<?xml version="1.0" encoding="UTF-8"?>
<svg xmlns="http://www.w3.org/2000/svg" xmlns:xlink="http://www.w3.org/1999/xlink" version="1.2" >
<font id="Abril Fatface Regular">
<font-face  font-family="Abril Fatface" units-per-em="1000" ascent="750" descent="-250" font-style="normal" font-weight="400" font-stretch="normal" cap-height="700" x-height="476" underline-position="-75" underline-thickness="50" />
<missing-glyph  horiz-adv-x="200" d="" />
<glyph glyph-name="space" unicode="&#x20;" horiz-adv-x="180" d="" />
<glyph glyph-name="exclam" unicode="&#x21;" horiz-adv-x="377" d="M178 264 Q178 323 168 373.5 Q158 424 145.5 468.5 Q133 513 123 553 Q113 593 113 630 Q113 654 120 669.5 Q127 685 138.5 694 Q150 703 164.5 707 Q179 711 194 711 Q208 711 222 707.5 Q236 704 246.5 695 Q257 686 263.5 670 Q270 654 270 630 Q270 590 259 550 Q248 510 235 466 Q222 422 211 372.5 Q200 323 200 263 L200 178 L178 178 L178 264 Z M111 65 Q111 97 130.5 119 Q150 141 186 141 Q219 141 241 123.5 Q263 106 263 67 Q263 32 243.5 11 Q224 -10 188 -10 Q145 -10 128 13.5 Q111 37 111 65 Z " />
<glyph glyph-name="quotedbl" unicode="&#x22;" horiz-adv-x="334" d="M198 747 Q238 767 263 767 Q278 767 287.5 757.5 Q297 748 297 730 Q297 716 294.5 699 Q292 682 288 664 L248 481 L227 481 L198 747 Z M50 747 Q90 767 115 767 Q130 767 139.5 757.5 Q149 748 149 730 Q149 716 146.5 699 Q144 682 140 664 L100 481 L79 481 L50 747 Z " />
<glyph glyph-name="numbersign" unicode="&#x23;" horiz-adv-x="608" d="M138 0 L165 169 L45 169 L61 261 L178 261 L204 407 L84 407 L99 500 L216 500 L237 640 L263 640 L241 500 L413 500 L434 640 L460 640 L438 500 L566 500 L552 407 L426 407 L402 261 L528 261 L514 169 L390 169 L362 0 L337 0 L365 169 L191 169 L163 0 L138 0 Z M229 407 L203 261 L377 261 L401 407 L229 407 Z " />
<glyph glyph-name="dollar" unicode="&#x24;" horiz-adv-x="565" d="M230 -4 Q188 2 156.5 10.5 Q125 19 111 19 Q100 19 94.5 11.5 Q89 4 84 -10 L71 -10 L62 222 L78 222 Q90 196 106 168.5 Q122 141 141.5 116.5 Q161 92 183 70.5 Q205 49 230 35 L230 260 Q194 272 163.5 289.5 Q133 307 111.5 332.5 Q90 358 77.5 394.5 Q65 431 65 481 Q65 517 75.5 550.5 Q86 584 107 612 Q128 640 159 659.5 Q190 679 230 687 L230 770 L258 770 L258 691 Q263 691 269 691.5 Q275 692 281 692 Q302 692 320 689 L320 770 L348 770 L348 685 Q381 678 403.5 670 Q426 662 443 662 Q454 662 459 667 Q464 672 469 682 L479 682 L486 485 L471 485 Q447 531 417 575.5 Q387 620 348 646 L348 440 Q382 429 414 413 Q446 397 470.5 372.5 Q495 348 510 311.5 Q525 275 525 223 Q525 129 477 68.5 Q429 8 348 -6 L348 -71 L320 -71 L320 -9 Q315 -10 311 -10 Q307 -10 302 -10 Q279 -10 258 -7 L258 -71 L230 -71 L230 -4 Z M320 11 L320 230 Q306 235 291 240.5 Q276 246 259 251 L258 251 L258 22 Q285 11 312 11 L320 11 Z M320 449 L320 661 Q295 672 269 672 Q261 672 258 671 L258 467 Q270 463 283.5 459 Q297 455 312 451 L320 449 Z M430 113 Q430 150 409.5 174.5 Q389 199 348 219 L348 15 Q380 23 405 47 Q430 71 430 113 Z M155 573 Q155 536 175 514.5 Q195 493 230 478 L230 667 Q196 657 175.5 632.5 Q155 608 155 573 Z " />
<glyph glyph-name="percent" unicode="&#x25;" horiz-adv-x="768" d="M399 154 Q399 192 411.5 223.5 Q424 255 446.5 278.5 Q469 302 501.5 315 Q534 328 574 328 Q653 328 698 285.5 Q743 243 743 162 Q743 122 730 90 Q717 58 693.5 36 Q670 14 638.5 2 Q607 -10 570 -10 Q528 -10 496 3 Q464 16 442.5 38 Q421 60 410 90 Q399 120 399 154 Z M522 155 Q522 119 523 91.5 Q524 64 528.5 45 Q533 26 543 16 Q553 6 572 6 Q590 6 600 17 Q610 28 614.5 48 Q619 68 620 96.5 Q621 125 621 160 Q621 235 614.5 273.5 Q608 312 573 312 Q554 312 543.5 302 Q533 292 528.5 272.5 Q524 253 523 223.5 Q522 194 522 155 Z M575 700 L615 700 L195 0 L154 0 L575 700 Z M30 537 Q30 575 42.5 606.5 Q55 638 77.5 661.5 Q100 685 132.5 698 Q165 711 205 711 Q284 711 329 668.5 Q374 626 374 545 Q374 505 361 473 Q348 441 324.5 419 Q301 397 269.5 385 Q238 373 201 373 Q159 373 127 386 Q95 399 73.5 421 Q52 443 41 473 Q30 503 30 537 Z M153 538 Q153 502 154 474.5 Q155 447 159.5 428 Q164 409 174 399 Q184 389 203 389 Q221 389 231 400 Q241 411 245.5 431 Q250 451 251 479.5 Q252 508 252 543 Q252 618 245.5 656.5 Q239 695 204 695 Q185 695 174.5 685 Q164 675 159.5 655.5 Q155 636 154 606.5 Q153 577 153 538 Z " />
<glyph glyph-name="ampersand" unicode="&#x26;" horiz-adv-x="822" d="M515 -226 Q541 -226 560 -212.5 Q579 -199 591.5 -177 Q604 -155 610.5 -126 Q617 -97 617 -65 Q617 -18 601.5 15 Q586 48 564 77 Q533 41 483 15.5 Q433 -10 351 -10 Q291 -10 239 0 Q187 10 148.5 32 Q110 54 87.5 90 Q65 126 65 177 Q65 241 99.5 283.5 Q134 326 222 345 Q180 383 157 423.5 Q134 464 134 518 Q134 569 153.5 606 Q173 643 205 666 Q237 689 278.5 700 Q320 711 364 711 Q469 711 516.5 674 Q564 637 564 578 Q564 526 525 485.5 Q486 445 403 416 Q436 394 481 365 Q521 339 560 312.5 Q599 286 633 254 Q641 292 645 328.5 Q649 365 650 400 L571 400 L571 420 L745 420 L745 400 L675 400 Q674 357 670 315 Q666 273 656 231 Q674 211 690 190.5 Q706 170 717.5 146 Q729 122 736 93.5 Q743 65 743 28 Q743 -26 722.5 -76 Q702 -126 667.5 -164.5 Q633 -203 588 -226.5 Q543 -250 494 -250 Q428 -250 392.5 -223.5 Q357 -197 357 -149 Q357 -111 380.5 -88 Q404 -65 440 -65 Q478 -65 499 -83.5 Q520 -102 520 -137 Q520 -152 514 -173 L479 -173 Q471 -196 478 -211 Q485 -226 515 -226 Z M379 16 Q441 16 481 40 Q521 64 547 98 Q522 124 492.5 148 Q463 172 418 202 Q363 238 317 268.5 Q271 299 236 330 Q228 314 224.5 285.5 Q221 257 221 205 Q221 152 231.5 115.5 Q242 79 262 57 Q282 35 311.5 25.5 Q341 16 379 16 Z M269 588 Q269 565 274.5 546 Q280 527 293 508.5 Q306 490 328.5 471 Q351 452 385 428 Q408 440 421 455 Q434 470 440 487.5 Q446 505 447 526 Q448 547 448 572 Q448 690 361 690 Q345 690 329 685.5 Q313 681 299.5 669.5 Q286 658 277.5 638 Q269 618 269 588 Z " />
<glyph glyph-name="quotesingle" unicode="&#x27;" horiz-adv-x="186" d="M50 747 Q90 767 115 767 Q130 767 139.5 757.5 Q149 748 149 730 Q149 716 146.5 699 Q144 682 140 664 L100 481 L79 481 L50 747 Z " />
<glyph glyph-name="parenleft" unicode="&#x28;" horiz-adv-x="351" d="M50 306 Q50 390 70.5 473.5 Q91 557 131 623.5 Q171 690 231.5 732.5 Q292 775 371 778 L371 758 Q329 756 305 735 Q281 714 269 675 Q257 636 254 578.5 Q251 521 251 446 L251 159 Q251 90 254.5 36 Q258 -18 270 -56 Q282 -94 306 -114.5 Q330 -135 371 -137 L371 -158 Q289 -157 228.5 -115.5 Q168 -74 128 -7.5 Q88 59 69 141.5 Q50 224 50 306 Z " />
<glyph glyph-name="parenright" unicode="&#x29;" horiz-adv-x="351" d="M301 313 Q301 229 280.5 145.5 Q260 62 220 -4.5 Q180 -71 120 -113.5 Q60 -156 -20 -159 L-20 -139 Q22 -137 46 -116 Q70 -95 82 -56 Q94 -17 97 40.5 Q100 98 100 173 L100 460 Q100 529 96.5 583 Q93 637 81 675 Q69 713 45 733.5 Q21 754 -20 756 L-20 777 Q63 776 123 734.5 Q183 693 223 626.5 Q263 560 282 477.5 Q301 395 301 313 Z " />
<glyph glyph-name="asterisk" unicode="&#x2a;" horiz-adv-x="529" d="M282 575 L414 540 Q432 535 450 526 Q468 517 468 492 Q468 464 446.5 446 Q425 428 400 418 L271 561 L316 373 Q298 359 281 353 Q264 347 250 347 Q229 347 215 357.5 Q201 368 201 387 Q201 398 202.5 408 Q204 418 210 436 L253 562 L129 418 Q118 422 106 429 Q94 436 84 445 Q74 454 67.5 466 Q61 478 61 492 Q61 516 79 525.5 Q97 535 123 542 L242 575 L64 608 Q62 617 61 627 Q60 637 60 645 Q60 655 62.5 666.5 Q65 678 71 687.5 Q77 697 86.5 703.5 Q96 710 109 710 Q125 710 135.5 702 Q146 694 164 677 L255 590 L211 765 Q229 779 246 785 Q263 791 277 791 Q298 791 312 780.5 Q326 770 326 751 Q326 728 313 693 L274 589 L363 678 Q377 692 390.5 701 Q404 710 420 710 Q445 710 457 690.5 Q469 671 469 645 Q469 624 465 608 L282 575 Z " />
<glyph glyph-name="plus" unicode="&#x2b;" horiz-adv-x="530" d="M281 301 L281 92 L243 92 L243 301 L38 301 L38 334 L243 334 L243 530 L281 530 L281 334 L492 334 L492 301 L281 301 Z " />
<glyph glyph-name="comma" unicode="&#x2c;" horiz-adv-x="262" d="M74 -141 Q107 -113 127 -92.5 Q147 -72 157.5 -55.5 Q168 -39 171 -25 Q174 -11 174 3 Q174 26 164 35 Q154 44 143 46 L95 3 Q75 10 55 29.5 Q35 49 35 81 Q35 117 58.5 140 Q82 163 120 163 Q167 163 192 130.5 Q217 98 217 51 Q217 -8 186 -56.5 Q155 -105 86 -156 L74 -141 Z " />
<glyph glyph-name="hyphen" unicode="&#x2d;" horiz-adv-x="352" d="M50 308 L302 308 L302 278 L50 278 L50 308 Z " />
<glyph glyph-name="period" unicode="&#x2e;" horiz-adv-x="265" d="M45 76 Q45 113 67 138.5 Q89 164 131 164 Q170 164 195 144 Q220 124 220 79 Q220 39 198 14.5 Q176 -10 134 -10 Q109 -10 92 -2 Q75 6 64.5 18 Q54 30 49.5 45.5 Q45 61 45 76 Z " />
<glyph glyph-name="slash" unicode="&#x2f;" horiz-adv-x="351" d="M303 795 L343 795 L49 -97 L8 -97 L303 795 Z " />
<glyph glyph-name="zero" unicode="0" horiz-adv-x="664" d="M30 351 Q30 449 52.5 517.5 Q75 586 115.5 629 Q156 672 211 691.5 Q266 711 332 711 Q398 711 453.5 691.5 Q509 672 549 629.5 Q589 587 611.5 518.5 Q634 450 634 351 Q634 252 611.5 183.5 Q589 115 548.5 72 Q508 29 452.5 9.5 Q397 -10 332 -10 Q253 -10 196 17 Q139 44 102 92 Q65 140 47.5 206.5 Q30 273 30 351 Z M235 299 Q235 220 236.5 165 Q238 110 247 76 Q256 42 276 26.5 Q296 11 332 11 Q368 11 387.5 26 Q407 41 416.5 74.5 Q426 108 428 161.5 Q430 215 430 291 L430 379 Q430 468 428.5 527.5 Q427 587 418 623 Q409 659 389 674.5 Q369 690 332 690 Q296 690 276.5 673.5 Q257 657 247.5 621 Q238 585 236.5 527.5 Q235 470 235 388 L235 299 Z " />
<glyph glyph-name="one" unicode="1" horiz-adv-x="425" d="M17 660 L15 680 L241 711 L322 711 L322 19 L400 19 L400 0 L22 0 L22 19 L127 19 L127 674 L17 660 Z " />
<glyph glyph-name="two" unicode="2" horiz-adv-x="552" d="M266 711 Q381 711 444.5 669 Q508 627 508 539 Q508 496 492 461.5 Q476 427 439 390.5 Q402 354 340.5 308.5 Q279 263 187 197 L126 153 L366 153 Q403 153 427 161.5 Q451 170 466.5 186 Q482 202 490.5 225 Q499 248 505 277 L522 277 L512 0 L42 0 L42 116 L143 209 Q191 253 227 292.5 Q263 332 286 371.5 Q309 411 320.5 454.5 Q332 498 332 550 Q332 625 314 658.5 Q296 692 244 692 Q222 692 207.5 685 Q193 678 184 666.5 Q175 655 171.5 642 Q168 629 168 617 Q168 605 174 588 L204 588 Q208 578 210 567.5 Q212 557 212 543 Q212 508 187 486.5 Q162 465 124 465 Q77 465 56 493 Q35 521 35 558 Q35 590 48.5 617.5 Q62 645 90 666 Q118 687 161.5 699 Q205 711 266 711 Z " />
<glyph glyph-name="three" unicode="3" horiz-adv-x="573" d="M273 711 Q338 711 383 700 Q428 689 456 668.5 Q484 648 496 618.5 Q508 589 508 552 Q508 486 454.5 444 Q401 402 301 385 L301 383 Q366 379 412 363 Q458 347 487 323 Q516 299 529.5 267 Q543 235 543 198 Q543 103 466.5 46.5 Q390 -10 250 -10 Q214 -10 175 -3 Q136 4 104 21 Q72 38 51 67 Q30 96 30 141 Q30 180 52 208.5 Q74 237 121 237 Q159 237 183 215.5 Q207 194 207 159 Q207 145 205 134.5 Q203 124 199 114 L168 114 Q162 98 162 81 Q162 71 164.5 58.5 Q167 46 176 35.5 Q185 25 201.5 17.5 Q218 10 246 10 Q278 10 297.5 22.5 Q317 35 328.5 59 Q340 83 344 117.5 Q348 152 348 195 Q348 235 342 263.5 Q336 292 325.5 312 Q315 332 300 345 Q285 358 267 367 Q243 362 226.5 359.5 Q210 357 180 354 L177 376 Q221 381 249 390 Q277 399 292.5 418 Q308 437 314 468.5 Q320 500 320 550 Q320 616 305 654.5 Q290 693 246 693 Q226 693 212.5 685.5 Q199 678 191 667 Q183 656 179.5 642.5 Q176 629 176 617 Q176 605 182 588 L211 588 Q215 578 217 567.5 Q219 557 219 543 Q219 508 194 486.5 Q169 465 131 465 Q84 465 63 493 Q42 521 42 558 Q42 590 56.5 617.5 Q71 645 100 666 Q129 687 172 699 Q215 711 273 711 Z " />
<glyph glyph-name="four" unicode="4" horiz-adv-x="603" d="M182 19 L276 19 L276 179 L5 179 L5 198 L287 700 L460 700 L460 203 L559 203 L559 290 L578 290 L578 105 L559 105 L559 179 L460 179 L460 19 L529 19 L529 0 L182 0 L182 19 Z M276 203 L276 624 L37 203 L276 203 Z " />
<glyph glyph-name="five" unicode="5" horiz-adv-x="540" d="M218 405 Q186 405 154 393.5 Q122 382 90 362 L73 370 L73 689 L89 701 Q120 697 171.5 691 Q223 685 274.5 679.5 Q326 674 367.5 670.5 Q409 667 420 667 Q437 667 445.5 676.5 Q454 686 460 709 L475 707 Q469 646 462.5 607.5 Q456 569 447.5 547.5 Q439 526 428 518 Q417 510 402 510 Q385 510 365 515 Q345 520 319 527 L101 584 L96 390 Q130 408 169 418.5 Q208 429 253 429 Q328 429 377.5 411 Q427 393 456.5 363.5 Q486 334 498 296.5 Q510 259 510 220 Q510 166 490 123.5 Q470 81 433 51.5 Q396 22 343 6 Q290 -10 223 -10 Q193 -10 157 -3 Q121 4 89.5 21 Q58 38 37 68 Q16 98 16 144 Q16 181 38 209 Q60 237 107 237 Q145 237 169 217 Q193 197 193 159 Q193 145 190.5 131.5 Q188 118 184 108 L151 108 Q145 92 145 75 Q145 65 148 53.5 Q151 42 159.5 32.5 Q168 23 182.5 16.5 Q197 10 220 10 Q252 10 269.5 25 Q287 40 295.5 68 Q304 96 306 136.5 Q308 177 308 228 Q308 275 305 308.5 Q302 342 293 363.5 Q284 385 266 395 Q248 405 218 405 Z " />
<glyph glyph-name="six" unicode="6" horiz-adv-x="616" d="M34 308 Q34 406 57 481 Q80 556 122 607 Q164 658 224 684.5 Q284 711 358 711 Q465 711 518 668 Q571 625 571 561 Q571 525 547.5 496.5 Q524 468 479 468 Q443 468 418.5 489.5 Q394 511 394 546 Q394 560 396 570.5 Q398 581 402 592 L434 592 Q437 600 438.5 611 Q440 622 440 628 Q440 655 424.5 673 Q409 691 367 691 Q334 691 308.5 674.5 Q283 658 266 620 Q249 582 240.5 519.5 Q232 457 231 364 Q254 399 291 422 Q328 445 389 445 Q433 445 470.5 432 Q508 419 536 393 Q564 367 579.5 328.5 Q595 290 595 238 Q595 181 575.5 135 Q556 89 520 56.5 Q484 24 433 7 Q382 -10 319 -10 Q252 -10 199 8 Q146 26 109.5 65 Q73 104 53.5 164 Q34 224 34 308 Z M240 321 Q235 299 234 277 Q233 255 233 223 Q233 172 234.5 132.5 Q236 93 243.5 66 Q251 39 268 25 Q285 11 315 11 Q345 11 362 26 Q379 41 387 68 Q395 95 397 132.5 Q399 170 399 216 Q399 269 397.5 306 Q396 343 389.5 366.5 Q383 390 369 401 Q355 412 330 412 Q295 412 272.5 385 Q250 358 240 321 Z " />
<glyph glyph-name="seven" unicode="7" horiz-adv-x="510" d="M119 88 Q119 111 124 132.5 Q129 154 145.5 183.5 Q162 213 193.5 254 Q225 295 277 356 L442 547 L186 547 Q151 547 128.5 543.5 Q106 540 92.5 529.5 Q79 519 71 499 Q63 479 57 446 L41 446 L52 700 L500 700 L500 592 L389 398 Q349 328 326 282 Q303 236 291.5 204 Q280 172 277 148 Q274 124 274 99 Q274 71 282 50 Q290 29 304 9 L297 -3 Q282 -7 264.5 -8.5 Q247 -10 235 -10 Q206 -10 184.5 -1.5 Q163 7 148.5 21 Q134 35 126.5 52.5 Q119 70 119 88 Z " />
<glyph glyph-name="eight" unicode="8" horiz-adv-x="611" d="M249 368 Q149 373 96.5 417 Q44 461 44 529 Q44 611 109.5 661 Q175 711 308 711 Q439 711 503.5 664.5 Q568 618 568 535 Q568 465 518.5 420.5 Q469 376 370 368 L370 365 Q486 355 536 307 Q586 259 586 182 Q586 88 519.5 39 Q453 -10 308 -10 Q161 -10 93 39 Q25 88 25 181 Q25 262 79.5 309.5 Q134 357 249 365 L249 368 Z M308 355 Q253 355 236.5 311.5 Q220 268 220 181 Q220 138 223 106 Q226 74 235.5 53 Q245 32 262.5 21.5 Q280 11 308 11 Q336 11 353 21.5 Q370 32 379.5 54 Q389 76 392 108.5 Q395 141 395 184 Q395 270 378 312.5 Q361 355 308 355 Z M239 535 Q239 496 240.5 466.5 Q242 437 249 417.5 Q256 398 270.5 388 Q285 378 311 378 Q335 378 348.5 388 Q362 398 368.5 417.5 Q375 437 376 466.5 Q377 496 377 535 Q377 572 375 600.5 Q373 629 366.5 649 Q360 669 346 679.5 Q332 690 308 690 Q284 690 270 679.5 Q256 669 249.5 649 Q243 629 241 600.5 Q239 572 239 535 Z " />
<glyph glyph-name="nine" unicode="9" horiz-adv-x="616" d="M584 393 Q584 295 562 220 Q540 145 499 94 Q458 43 398.5 16.5 Q339 -10 265 -10 Q158 -10 99.5 30.5 Q41 71 41 134 Q41 152 47 170 Q53 188 64.5 202 Q76 216 93 224.5 Q110 233 133 233 Q171 233 194.5 211.5 Q218 190 218 155 Q218 141 216 130.5 Q214 120 210 109 L180 109 Q176 101 174.5 90 Q173 79 173 73 Q173 50 193 30 Q213 10 258 10 Q291 10 315 26.5 Q339 43 354.5 81 Q370 119 378 181.5 Q386 244 387 337 Q364 302 327 279 Q290 256 229 256 Q185 256 147.5 270.5 Q110 285 82 313 Q54 341 38.5 381 Q23 421 23 473 Q23 537 46 582 Q69 627 107.5 655.5 Q146 684 197.5 697.5 Q249 711 306 711 Q371 711 422.5 693 Q474 675 510 636 Q546 597 565 537 Q584 477 584 393 Z M378 380 Q383 402 384 424 Q385 446 385 478 Q385 529 383.5 568.5 Q382 608 374.5 635 Q367 662 351.5 676 Q336 690 307 690 Q276 690 258 675 Q240 660 231.5 633 Q223 606 221 568.5 Q219 531 219 485 Q219 433 220.5 395.5 Q222 358 229 334.5 Q236 311 249.5 300 Q263 289 288 289 Q323 289 345.5 316 Q368 343 378 380 Z " />
<glyph glyph-name="colon" unicode="&#x3a;" horiz-adv-x="265" d="M45 407 Q45 444 67 469.5 Q89 495 131 495 Q170 495 195 475 Q220 455 220 410 Q220 370 198 345.5 Q176 321 134 321 Q109 321 92 329 Q75 337 64.5 349 Q54 361 49.5 376.5 Q45 392 45 407 Z M45 76 Q45 113 67 138.5 Q89 164 131 164 Q170 164 195 144 Q220 124 220 79 Q220 39 198 14.5 Q176 -10 134 -10 Q109 -10 92 -2 Q75 6 64.5 18 Q54 30 49.5 45.5 Q45 61 45 76 Z " />
<glyph glyph-name="semicolon" unicode="&#x3b;" horiz-adv-x="262" d="M74 -141 Q107 -113 127 -92.5 Q147 -72 157.5 -55.5 Q168 -39 171 -25 Q174 -11 174 3 Q174 26 164 35 Q154 44 143 46 L95 3 Q75 10 55 29.5 Q35 49 35 81 Q35 117 58.5 140 Q82 163 120 163 Q167 163 192 130.5 Q217 98 217 51 Q217 -8 186 -56.5 Q155 -105 86 -156 L74 -141 Z M36 407 Q36 444 58 469.5 Q80 495 122 495 Q161 495 186 475 Q211 455 211 410 Q211 370 189 345.5 Q167 321 125 321 Q100 321 83 329 Q66 337 55.5 349 Q45 361 40.5 376.5 Q36 392 36 407 Z " />
<glyph glyph-name="less" unicode="&#x3c;" horiz-adv-x="530" d="M39 280 L39 306 L491 497 L491 462 L93 294 L491 123 L491 86 L39 280 Z " />
<glyph glyph-name="equal" unicode="&#x3d;" horiz-adv-x="530" d="M38 190 L38 223 L492 223 L492 190 L38 190 Z M492 379 L492 346 L38 346 L38 379 L492 379 Z " />
<glyph glyph-name="greater" unicode="&#x3e;" horiz-adv-x="530" d="M491 303 L491 277 L39 86 L39 121 L437 291 L39 460 L39 497 L491 303 Z " />
<glyph glyph-name="question" unicode="&#x3f;" horiz-adv-x="580" d="M286 711 Q395 711 454.5 669.5 Q514 628 514 545 Q514 515 505.5 490 Q497 465 483.5 443 Q470 421 452 402 Q434 383 414 365 L263 231 L263 173 L238 173 L238 383 Q238 400 249 411 L311 474 Q340 503 351 528.5 Q362 554 362 595 Q362 692 272 692 Q248 692 232 685 Q216 678 206.5 666.5 Q197 655 193 642 Q189 629 189 617 Q189 605 195 588 L227 588 Q231 578 233 567.5 Q235 557 235 543 Q235 508 210 486.5 Q185 465 147 465 Q100 465 79 493 Q58 521 58 558 Q58 588 72 616 Q86 644 114 665 Q142 686 185 698.5 Q228 711 286 711 Z M174 65 Q174 97 193.5 119 Q213 141 249 141 Q282 141 304 123.5 Q326 106 326 67 Q326 32 306.5 11 Q287 -10 251 -10 Q208 -10 191 13.5 Q174 37 174 65 Z " />
<glyph glyph-name="at" unicode="&#x40;" horiz-adv-x="879" d="M433 395 Q465 395 484 385 Q503 375 520 358 L537 388 L646 388 L614 206 Q609 174 605.5 148.5 Q602 123 602 100 Q602 62 612.5 42 Q623 22 659 22 Q679 22 700.5 35.5 Q722 49 740.5 76 Q759 103 771 143.5 Q783 184 783 237 Q783 309 761.5 367 Q740 425 699 465.5 Q658 506 597.5 528 Q537 550 460 550 Q388 550 322.5 524.5 Q257 499 207 451 Q157 403 127.5 333 Q98 263 98 174 Q98 82 130 18.5 Q162 -45 214 -84.5 Q266 -124 331.5 -141.5 Q397 -159 464 -159 Q540 -159 598.5 -134.5 Q657 -110 697 -76 L713 -94 Q668 -136 600 -159.5 Q532 -183 463 -183 Q386 -183 315 -162.5 Q244 -142 189.5 -98.5 Q135 -55 102.5 11.5 Q70 78 70 170 Q70 257 98.5 330.5 Q127 404 179.5 457.5 Q232 511 305 541.5 Q378 572 467 572 Q542 572 604.5 550.5 Q667 529 712.5 487.5 Q758 446 783.5 385 Q809 324 809 244 Q809 116 755.5 54.5 Q702 -7 608 -7 Q576 -7 553.5 -1 Q531 5 516 15 Q501 25 492 38 Q483 51 477 65 Q473 53 465 40.5 Q457 28 445.5 18 Q434 8 417.5 1.5 Q401 -5 379 -5 Q342 -5 314.5 7.5 Q287 20 269 41 Q251 62 242 89.5 Q233 117 233 147 Q233 213 252 260 Q271 307 300 337 Q329 367 364.5 381 Q400 395 433 395 Z M515 344 Q500 360 485 367 Q470 374 449 374 Q418 374 398 341.5 Q378 309 367.5 265 Q357 221 353 174.5 Q349 128 349 100 Q349 55 361.5 35.5 Q374 16 400 16 Q429 16 451 48 Q473 80 481 130 L515 344 Z " />
<glyph glyph-name="A" unicode="A" horiz-adv-x="694" d="M359 235 L161 235 L84 19 L159 19 L159 0 L6 0 L6 19 L53 19 L308 706 L390 706 L642 19 L688 19 L688 0 L361 0 L361 19 L432 19 L359 235 Z M170 257 L351 257 L264 519 L170 257 Z " />
<glyph glyph-name="B" unicode="B" horiz-adv-x="659" d="M320 700 Q386 700 437.5 692 Q489 684 525 664.5 Q561 645 579.5 614 Q598 583 598 536 Q598 464 555 424.5 Q512 385 433 372 L433 370 Q528 358 580.5 316.5 Q633 275 633 196 Q633 138 610 100 Q587 62 545 40 Q503 18 444.5 9 Q386 0 315 0 L21 0 L21 19 L86 19 L86 681 L21 681 L21 700 L320 700 Z M281 19 L328 19 Q386 19 406.5 59.5 Q427 100 427 169 L427 222 Q427 253 421.5 277.5 Q416 302 402 319 Q388 336 364 345 Q340 354 304 354 L281 354 L281 19 Z M281 373 L307 373 Q361 373 380.5 406 Q400 439 400 501 L400 548 Q400 620 383 650.5 Q366 681 313 681 L281 681 L281 373 Z " />
<glyph glyph-name="C" unicode="C" horiz-adv-x="690" d="M400 691 Q324 691 284.5 619 Q245 547 245 392 L245 313 Q245 244 255 188 Q265 132 285 92.5 Q305 53 335.5 31.5 Q366 10 407 10 Q468 10 517.5 68 Q567 126 609 224 L627 224 L620 1 L609 1 Q604 11 599 16 Q594 21 582 21 Q569 21 552 16 Q535 11 511 5.5 Q487 0 455.5 -5 Q424 -10 383 -10 Q304 -10 240.5 11 Q177 32 132.5 75.5 Q88 119 64.5 185 Q41 251 41 341 Q41 432 66 501 Q91 570 136.5 616.5 Q182 663 245.5 687 Q309 711 386 711 Q425 711 454 706 Q483 701 505 695.5 Q527 690 543.5 685 Q560 680 573 680 Q585 680 590 685 Q595 690 600 700 L611 700 L619 483 L601 483 Q580 529 558.5 567.5 Q537 606 512.5 633.5 Q488 661 460 676 Q432 691 400 691 Z " />
<glyph glyph-name="D" unicode="D" horiz-adv-x="755" d="M714 362 Q714 256 683.5 186.5 Q653 117 598.5 75.5 Q544 34 469 17 Q394 0 304 0 L21 0 L21 19 L87 19 L87 681 L21 681 L21 700 L330 700 Q423 700 494.5 682 Q566 664 614.5 624 Q663 584 688.5 519.5 Q714 455 714 362 Z M320 19 Q371 19 406.5 36 Q442 53 464.5 90.5 Q487 128 497.5 187 Q508 246 508 330 L508 388 Q508 479 496 536 Q484 593 459.5 625.5 Q435 658 397 669.5 Q359 681 306 681 L282 681 L282 19 L320 19 Z " />
<glyph glyph-name="E" unicode="E" horiz-adv-x="624" d="M541 700 L551 502 L533 502 Q512 551 492 584.5 Q472 618 446.5 639 Q421 660 388 669 Q355 678 310 678 L275 678 L275 369 L309 369 Q358 369 389 406 Q420 443 433 500 L448 500 L448 204 L431 204 Q413 279 382.5 311 Q352 343 299 343 L275 343 L275 22 L313 22 Q361 22 401 37.5 Q441 53 472 79.5 Q503 106 525 141.5 Q547 177 558 218 L578 218 L570 0 L21 0 L21 22 L80 22 L80 678 L21 678 L21 700 L541 700 Z " />
<glyph glyph-name="F" unicode="F" horiz-adv-x="592" d="M541 700 L551 492 L533 492 Q515 546 494.5 582 Q474 618 447.5 639 Q421 660 386 669 Q351 678 303 678 L275 678 L275 353 L320 353 Q369 353 400.5 388.5 Q432 424 444 484 L459 484 L459 188 L442 188 Q425 264 397 295.5 Q369 327 320 327 L275 327 L275 22 L399 22 L399 0 L21 0 L21 22 L80 22 L80 678 L21 678 L21 700 L541 700 Z " />
<glyph glyph-name="G" unicode="G" horiz-adv-x="723" d="M390 10 Q416 10 431.5 15 Q447 20 454.5 30 Q462 40 464 55 Q466 70 466 89 L466 283 L402 283 L402 305 L690 305 L690 283 L651 283 L651 1 L636 1 Q627 14 616.5 20 Q606 26 585 26 Q570 26 549 20.5 Q528 15 502 8 Q476 1 446 -4.5 Q416 -10 383 -10 Q304 -10 240.5 11 Q177 32 132.5 75.5 Q88 119 64.5 185 Q41 251 41 341 Q41 432 66 501 Q91 570 136.5 616.5 Q182 663 245.5 687 Q309 711 386 711 Q425 711 455 706 Q485 701 508.5 695.5 Q532 690 549 685 Q566 680 579 680 Q591 680 596 685 Q601 690 606 700 L617 700 L625 483 L607 483 Q586 525 563 563 Q540 601 514.5 629.5 Q489 658 460 674.5 Q431 691 398 691 Q324 691 284.5 619 Q245 547 245 392 L245 313 Q245 160 283 85 Q321 10 390 10 Z " />
<glyph glyph-name="H" unicode="H" horiz-adv-x="749" d="M333 700 L333 681 L275 681 L275 371 L474 371 L474 681 L415 681 L415 700 L728 700 L728 681 L669 681 L669 19 L728 19 L728 0 L415 0 L415 19 L474 19 L474 345 L275 345 L275 19 L333 19 L333 0 L21 0 L21 19 L80 19 L80 681 L21 681 L21 700 L333 700 Z " />
<glyph glyph-name="I" unicode="I" horiz-adv-x="355" d="M330 700 L330 681 L275 681 L275 19 L330 19 L330 0 L25 0 L25 19 L80 19 L80 681 L25 681 L25 700 L330 700 Z " />
<glyph glyph-name="J" unicode="J" horiz-adv-x="517" d="M501 700 L501 681 L446 681 L446 249 Q446 111 383.5 51 Q321 -9 202 -9 Q121 -9 73.5 21.5 Q26 52 26 109 Q26 152 50 176.5 Q74 201 115 201 Q159 201 178.5 179 Q198 157 198 124 Q198 100 187 70 L148 70 Q139 55 139 44 Q139 28 152.5 18.5 Q166 9 188 9 Q208 9 220.5 15.5 Q233 22 239.5 40.5 Q246 59 248.5 92 Q251 125 251 177 L251 681 L176 681 L176 700 L501 700 Z " />
<glyph glyph-name="K" unicode="K" horiz-adv-x="734" d="M330 700 L330 681 L275 681 L275 365 L283 367 L565 681 L486 681 L486 700 L661 700 L661 681 L601 681 L429 489 L669 19 L723 19 L723 0 L402 0 L402 19 L449 19 L284 338 L275 336 L275 19 L330 19 L330 0 L25 0 L25 19 L80 19 L80 681 L25 681 L25 700 L330 700 Z " />
<glyph glyph-name="L" unicode="L" horiz-adv-x="596" d="M381 700 L381 678 L275 678 L275 22 L311 22 Q358 22 392.5 38 Q427 54 454.5 82.5 Q482 111 504.5 149.5 Q527 188 549 234 L570 234 L551 0 L21 0 L21 22 L80 22 L80 678 L21 678 L21 700 L381 700 Z " />
<glyph glyph-name="M" unicode="M" horiz-adv-x="840" d="M815 700 L815 681 L760 681 L760 19 L815 19 L815 0 L510 0 L510 19 L565 19 L565 644 L561 644 L411 0 L286 0 L110 647 L106 647 L106 19 L161 19 L161 0 L25 0 L25 19 L80 19 L80 681 L25 681 L25 700 L295 700 L428 185 L548 700 L815 700 Z " />
<glyph glyph-name="N" unicode="N" horiz-adv-x="670" d="M590 0 L450 0 L107 647 L107 19 L162 19 L162 0 L25 0 L25 19 L80 19 L80 681 L25 681 L25 700 L301 700 L563 198 L563 681 L508 681 L508 700 L645 700 L645 681 L590 681 L590 0 Z " />
<glyph glyph-name="O" unicode="O" horiz-adv-x="748" d="M501 383 Q501 460 498 517.5 Q495 575 483 613.5 Q471 652 445.5 671 Q420 690 375 690 Q330 690 304 670 Q278 650 265 611 Q252 572 249 514 Q246 456 246 379 L246 307 Q246 237 249.5 181.5 Q253 126 266.5 88.5 Q280 51 305.5 31 Q331 11 375 11 Q417 11 442 29.5 Q467 48 480 85 Q493 122 497 178 Q501 234 501 309 L501 383 Z M41 339 Q41 425 63 494 Q85 563 128.5 611 Q172 659 235.5 685 Q299 711 383 711 Q544 711 625.5 616.5 Q707 522 707 352 Q707 268 687 201 Q667 134 625.5 87 Q584 40 521 15 Q458 -10 371 -10 Q204 -10 122.5 82 Q41 174 41 339 Z " />
<glyph glyph-name="P" unicode="P" horiz-adv-x="634" d="M309 700 Q380 700 435.5 691 Q491 682 529 659.5 Q567 637 587.5 598.5 Q608 560 608 501 Q608 437 584.5 395.5 Q561 354 518.5 330 Q476 306 416 296.5 Q356 287 283 287 L275 287 L275 19 L400 19 L400 0 L15 0 L15 19 L80 19 L80 681 L15 681 L15 700 L309 700 Z M275 306 L296 306 Q359 306 380.5 349.5 Q402 393 402 480 L402 528 Q402 613 380.5 647 Q359 681 302 681 L275 681 L275 306 Z " />
<glyph glyph-name="Q" unicode="Q" horiz-adv-x="748" d="M41 339 Q41 425 63 494 Q85 563 128.5 611 Q172 659 235.5 685 Q299 711 383 711 Q544 711 625.5 616.5 Q707 522 707 352 Q707 197 638.5 105 Q570 13 423 -1 L423 -8 Q454 -11 475 -20 Q496 -29 510.5 -42 Q525 -55 534 -71.5 Q543 -88 549 -106 Q562 -143 572.5 -160 Q583 -177 607 -177 Q627 -177 637.5 -158 Q648 -139 652 -97 L674 -99 Q672 -167 632.5 -201 Q593 -235 531 -235 Q490 -235 461.5 -225 Q433 -215 413 -197 Q393 -179 380.5 -154 Q368 -129 359 -99 Q352 -77 347 -64.5 Q342 -52 336.5 -45 Q331 -38 326 -36 Q321 -34 314 -34 Q301 -34 281.5 -44.5 Q262 -55 240 -75 L226 -59 Q240 -45 265.5 -30 Q291 -15 317 -10 L317 -4 Q179 10 110 99.5 Q41 189 41 339 Z M501 383 Q501 460 498 517.5 Q495 575 483 613.5 Q471 652 445.5 671 Q420 690 375 690 Q330 690 304 670 Q278 650 265 611 Q252 572 249 514 Q246 456 246 379 L246 307 Q246 237 249.5 181.5 Q253 126 266.5 88.5 Q280 51 305.5 31 Q331 11 375 11 Q417 11 442 29.5 Q467 48 480 85 Q493 122 497 178 Q501 234 501 309 L501 383 Z " />
<glyph glyph-name="R" unicode="R" horiz-adv-x="716" d="M275 354 L275 19 L340 19 L340 0 L15 0 L15 19 L80 19 L80 681 L15 681 L15 700 L317 700 Q395 700 453.5 694.5 Q512 689 550 671 Q588 653 607 620 Q626 587 626 532 Q626 486 614.5 455.5 Q603 425 581 406 Q559 387 527.5 377.5 Q496 368 456 365 L456 362 Q497 357 524.5 345.5 Q552 334 569 314 Q586 294 593.5 264 Q601 234 601 190 L601 137 Q601 88 606 68.5 Q611 49 632 49 Q639 49 645 51.5 Q651 54 657 63 Q663 72 668 89 Q673 106 678 135 L695 133 Q689 90 680.5 62.5 Q672 35 656.5 19 Q641 3 617.5 -3.5 Q594 -10 559 -10 Q512 -10 480.5 -1 Q449 8 430.5 29 Q412 50 404 85 Q396 120 396 173 L396 246 Q396 300 382.5 327 Q369 354 328 354 L275 354 Z M275 373 L307 373 Q363 373 391 407 Q419 441 419 522 L419 551 Q419 593 411.5 618.5 Q404 644 390 658 Q376 672 355 676.5 Q334 681 308 681 L275 681 L275 373 Z " />
<glyph glyph-name="S" unicode="S" horiz-adv-x="600" d="M325 11 Q348 11 370.5 17 Q393 23 411 36 Q429 49 440.5 69 Q452 89 452 116 Q452 147 440.5 168.5 Q429 190 405.5 206.5 Q382 223 347.5 235.5 Q313 248 267 261 Q222 274 183 290.5 Q144 307 115.5 333.5 Q87 360 70.5 398.5 Q54 437 54 494 Q54 536 69.5 575 Q85 614 115 644.5 Q145 675 189 693 Q233 711 291 711 Q326 711 353 706 Q380 701 401.5 695.5 Q423 690 439.5 685 Q456 680 469 680 Q482 680 487.5 685 Q493 690 498 700 L509 700 L516 498 L500 498 Q481 533 458.5 567 Q436 601 408.5 628.5 Q381 656 349 673 Q317 690 278 690 Q224 690 190 662 Q156 634 156 589 Q156 561 168 542 Q180 523 202.5 508.5 Q225 494 256 483.5 Q287 473 325 463 Q367 452 408.5 437.5 Q450 423 483.5 397.5 Q517 372 538 331.5 Q559 291 559 229 Q559 175 541.5 131 Q524 87 491.5 55.5 Q459 24 414 7 Q369 -10 314 -10 Q278 -10 244.5 -5.5 Q211 -1 183.5 5 Q156 11 136 15.5 Q116 20 105 20 Q93 20 87 12 Q81 4 75 -10 L61 -10 L51 228 L68 228 Q87 191 114 152 Q141 113 174 82 Q207 51 245.5 31 Q284 11 325 11 Z " />
<glyph glyph-name="T" unicode="T" horiz-adv-x="683" d="M646 449 L627 449 Q607 510 589.5 553.5 Q572 597 552.5 625 Q533 653 509 666 Q485 679 451 679 L439 679 L439 21 L524 21 L524 0 L159 0 L159 21 L244 21 L244 679 L231 679 Q197 679 172.5 665 Q148 651 128 622.5 Q108 594 91 550.5 Q74 507 55 449 L36 449 L46 700 L636 700 L646 449 Z " />
<glyph glyph-name="U" unicode="U" horiz-adv-x="683" d="M420 23 Q496 23 541 72.5 Q586 122 586 229 L586 681 L521 681 L521 700 L667 700 L667 681 L612 681 L612 236 Q612 178 601 132.5 Q590 87 561 55.5 Q532 24 482.5 7 Q433 -10 356 -10 Q295 -10 243.5 2 Q192 14 155 43.5 Q118 73 97 122.5 Q76 172 76 247 L76 681 L21 681 L21 700 L336 700 L336 681 L271 681 L271 213 Q271 172 277 137 Q283 102 299.5 76.5 Q316 51 345 37 Q374 23 420 23 Z " />
<glyph glyph-name="V" unicode="V" horiz-adv-x="685" d="M604 681 L526 681 L526 700 L679 700 L679 681 L632 681 L391 -10 L307 -10 L52 681 L6 681 L6 700 L333 700 L333 681 L262 681 L430 181 L604 681 Z " />
<glyph glyph-name="W" unicode="W" horiz-adv-x="1015" d="M507 490 L447 681 L390 681 L390 700 L700 700 L700 681 L641 681 L790 208 L910 681 L809 681 L809 700 L1009 700 L1009 681 L943 681 L759 -10 L670 -10 L522 442 L392 -10 L305 -10 L53 681 L6 681 L6 700 L331 700 L331 681 L261 681 L424 202 L507 490 Z " />
<glyph glyph-name="X" unicode="X" horiz-adv-x="711" d="M358 0 L358 19 L424 19 L275 283 L116 19 L222 19 L222 0 L15 0 L15 19 L82 19 L257 313 L48 680 L-6 680 L-6 700 L331 700 L331 680 L263 680 L398 438 L549 680 L445 680 L445 700 L650 700 L650 680 L584 680 L415 410 L642 19 L700 19 L700 0 L358 0 Z " />
<glyph glyph-name="Y" unicode="Y" horiz-adv-x="641" d="M539 684 L438 684 L438 700 L635 700 L635 684 L569 684 L418 350 L418 19 L479 19 L479 0 L162 0 L162 19 L223 19 L223 331 L53 684 L6 684 L6 700 L326 700 L326 684 L261 684 L397 371 L539 684 Z " />
<glyph glyph-name="Z" unicode="Z" horiz-adv-x="612" d="M559 678 L263 23 L297 23 Q385 23 454 79 Q523 135 554 244 L572 244 L560 0 L48 0 L48 19 L347 678 L306 678 Q261 678 228.5 669 Q196 660 169.5 637.5 Q143 615 119.5 576.5 Q96 538 67 479 L49 479 L64 700 L559 700 L559 678 Z " />
<glyph glyph-name="bracketleft" unicode="&#x5b;" horiz-adv-x="329" d="M349 -160 L61 -160 L61 781 L349 781 L349 763 L304 763 Q286 763 274.5 761.5 Q263 760 257 754.5 Q251 749 248.5 739 Q246 729 246 711 L246 -89 Q246 -108 248 -118.5 Q250 -129 256 -134.5 Q262 -140 273.5 -141 Q285 -142 303 -142 L349 -142 L349 -160 Z " />
<glyph glyph-name="backslash" unicode="&#x5c;" horiz-adv-x="351" d="M344 -97 L302 -97 L8 795 L49 795 L344 -97 Z " />
<glyph glyph-name="bracketright" unicode="&#x5d;" horiz-adv-x="328" d="M-20 -142 L26 -142 Q44 -142 55.5 -141 Q67 -140 73 -134.5 Q79 -129 81 -118.5 Q83 -108 83 -89 L83 711 Q83 729 80.5 739 Q78 749 72 754.5 Q66 760 54.5 761.5 Q43 763 25 763 L-20 763 L-20 781 L268 781 L268 -160 L-20 -160 L-20 -142 Z " />
<glyph glyph-name="asciicircum" unicode="&#x5e;" horiz-adv-x="560" d="M463 285 L273 621 L98 284 L60 300 L249 664 L298 664 L500 300 L463 285 Z " />
<glyph glyph-name="underscore" unicode="&#x5f;" horiz-adv-x="500" d="M0 -106 L0 -69 L500 -69 L500 -106 L0 -106 Z " />
<glyph glyph-name="grave" unicode="&#x60;" horiz-adv-x="500" d="M309 532 L298 525 L164 636 Q148 650 141.5 662.5 Q135 675 135 689 Q135 709 150 725 Q165 741 199 733 L246 723 L309 532 Z " />
<glyph glyph-name="a" unicode="a" horiz-adv-x="549" d="M279 235 L279 312 Q279 360 276.5 391 Q274 422 268.5 440 Q263 458 253 465 Q243 472 228 472 Q214 472 197.5 464 Q181 456 181 432 Q181 420 187 403 L212 403 Q216 393 218 382.5 Q220 372 220 358 Q220 323 195 301.5 Q170 280 132 280 Q85 280 65.5 303 Q46 326 46 363 Q46 426 99 456 Q152 486 255 486 Q314 486 354 477 Q394 468 419 446 Q444 424 454.5 387.5 Q465 351 465 297 L465 94 Q465 63 473 52.5 Q481 42 494 42 Q501 42 507.5 46.5 Q514 51 519 62 Q524 73 528 93.5 Q532 114 534 145 L549 144 Q547 99 539 69.5 Q531 40 515.5 22 Q500 4 476.5 -3 Q453 -10 421 -10 Q301 -10 283 64 Q271 28 246 9 Q221 -10 168 -10 Q142 -10 115.5 -5 Q89 0 68 13 Q47 26 33.5 50 Q20 74 20 111 Q20 149 36 173 Q52 197 81.5 211 Q111 225 153.5 230 Q196 235 250 235 L279 235 Z M236 30 Q250 30 264.5 54 Q279 78 279 126 L279 219 L272 219 Q210 219 210 128 L210 112 Q210 85 211.5 69 Q213 53 216 44 Q219 35 224 32.5 Q229 30 236 30 Z " />
<glyph glyph-name="b" unicode="b" horiz-adv-x="588" d="M329 443 Q298 443 274.5 408.5 Q251 374 251 308 L251 122 Q251 82 268 50.5 Q285 19 316 19 Q353 19 364 66 Q375 113 375 217 L375 269 Q375 322 372.5 355.5 Q370 389 364.5 408.5 Q359 428 350.5 435.5 Q342 443 329 443 Z M251 400 Q268 438 298 462 Q328 486 385 486 Q471 486 519.5 426 Q568 366 568 237 Q568 108 516.5 49 Q465 -10 362 -10 Q310 -10 283 5.5 Q256 21 245 59 L238 0 L10 0 L10 18 L65 18 L65 732 L10 732 L10 750 L251 750 L251 400 Z " />
<glyph glyph-name="c" unicode="c" horiz-adv-x="483" d="M290 468 Q247 468 227.5 420.5 Q208 373 208 261 L208 209 Q208 112 229 68 Q250 24 309 24 Q343 24 368 37 Q393 50 409.5 69.5 Q426 89 436 112 Q446 135 450 155 L468 153 Q463 130 452.5 101.5 Q442 73 419 48.5 Q396 24 357 7 Q318 -10 255 -10 Q139 -10 77 52 Q15 114 15 232 Q15 358 86.5 422 Q158 486 282 486 Q374 486 419.5 451 Q465 416 465 359 Q465 312 442.5 288.5 Q420 265 382 265 Q343 265 318 285.5 Q293 306 293 348 Q293 355 294 364 Q295 373 298 384 L331 384 Q338 404 338 420 Q338 446 324.5 457 Q311 468 290 468 Z " />
<glyph glyph-name="d" unicode="d" horiz-adv-x="588" d="M268 33 Q279 33 291 38.5 Q303 44 313.5 56.5 Q324 69 330.5 88.5 Q337 108 337 136 L337 354 Q337 395 321 426 Q305 457 272 457 Q235 457 224 410 Q213 363 213 259 L213 207 Q213 154 215.5 120.5 Q218 87 224.5 67.5 Q231 48 241.5 40.5 Q252 33 268 33 Z M339 70 Q323 32 291.5 11 Q260 -10 201 -10 Q117 -10 68.5 50 Q20 110 20 237 Q20 365 70.5 425.5 Q121 486 218 486 Q265 486 292.5 473 Q320 460 334 437 L334 732 L273 732 L273 750 L523 750 L523 18 L572 18 L572 0 L350 0 L339 70 Z " />
<glyph glyph-name="e" unicode="e" horiz-adv-x="516" d="M15 237 Q15 302 35.5 349 Q56 396 91.5 426.5 Q127 457 173.5 471.5 Q220 486 272 486 Q390 486 442.5 428 Q495 370 490 258 L208 258 L208 219 Q208 175 213 138.5 Q218 102 231 76 Q244 50 267 35.5 Q290 21 326 21 Q382 21 418.5 54 Q455 87 472 145 L490 142 Q481 110 466 82 Q451 54 426 33.5 Q401 13 363.5 1.5 Q326 -10 273 -10 Q206 -10 157.5 8 Q109 26 77.5 59 Q46 92 30.5 137.5 Q15 183 15 237 Z M312 278 L312 327 Q312 406 303 436.5 Q294 467 263 467 Q237 467 223 437 Q209 407 209 327 L209 278 L312 278 Z " />
<glyph glyph-name="f" unicode="f" horiz-adv-x="383" d="M313 756 Q273 756 262 724.5 Q251 693 251 636 L251 476 L383 476 L383 458 L251 458 L251 18 L373 18 L373 0 L10 0 L10 18 L65 18 L65 458 L7 458 L7 476 L65 476 L65 480 Q65 548 77 602.5 Q89 657 117 695 Q145 733 191 753 Q237 773 304 773 Q351 773 381.5 762.5 Q412 752 430 735.5 Q448 719 455.5 699 Q463 679 463 661 Q463 616 439 595 Q415 574 380 574 Q339 574 319.5 594 Q300 614 300 645 Q300 656 302 667.5 Q304 679 306 688 L344 688 Q358 725 345.5 740.5 Q333 756 313 756 Z " />
<glyph glyph-name="g" unicode="g" horiz-adv-x="522" d="M439 545 Q441 557 436 566.5 Q431 576 415 576 Q410 576 402.5 574.5 Q395 573 388.5 566.5 Q382 560 377 546.5 Q372 533 372 510 Q372 484 379 450 Q408 431 431.5 402 Q455 373 455 323 Q455 238 399 195 Q343 152 251 152 Q229 152 207.5 154.5 Q186 157 170 160 Q144 143 135 134 Q126 125 126 118 Q126 111 138 107.5 Q150 104 190 104 L292 104 Q334 104 375 97.5 Q416 91 448 73.5 Q480 56 499.5 24 Q519 -8 519 -59 Q519 -101 503.5 -136 Q488 -171 454 -196.5 Q420 -222 366.5 -236 Q313 -250 237 -250 Q107 -250 48.5 -221 Q-10 -192 -10 -143 Q-10 -124 -3 -110.5 Q4 -97 15.5 -88 Q27 -79 40.5 -73 Q54 -67 67 -63 L127 -90 Q122 -107 120.5 -120 Q119 -133 119 -145 Q119 -161 124 -176.5 Q129 -192 143 -204 Q157 -216 182 -223.5 Q207 -231 247 -231 Q327 -231 368 -202 Q409 -173 409 -125 Q409 -107 404 -94.5 Q399 -82 385 -73.5 Q371 -65 346 -61.5 Q321 -58 282 -58 L185 -58 Q140 -58 111 -49.5 Q82 -41 65 -28 Q48 -15 41 2 Q34 19 34 35 Q34 56 41 73 Q48 90 62 105 Q76 120 97.5 134.5 Q119 149 148 167 Q89 184 60.5 220 Q32 256 32 319 Q32 354 44.5 384.5 Q57 415 83.5 437.5 Q110 460 150.5 473 Q191 486 248 486 Q285 486 309.5 480.5 Q334 475 359 461 Q353 488 353 510 Q353 541 362.5 561.5 Q372 582 386.5 594 Q401 606 418.5 611 Q436 616 451 616 Q486 616 509 597 Q532 578 532 542 Q532 507 513 491.5 Q494 476 469 476 Q446 476 429.5 489 Q413 502 411 528 L439 545 Z M199 287 Q199 252 202 229.5 Q205 207 211 194.5 Q217 182 226 177 Q235 172 246 172 Q256 172 264 176 Q272 180 278 193 Q284 206 287 229.5 Q290 253 290 292 L290 341 Q290 383 287 408 Q284 433 278.5 446.5 Q273 460 265 464 Q257 468 247 468 Q237 468 228 463.5 Q219 459 212.5 445.5 Q206 432 202.5 407 Q199 382 199 341 L199 287 Z " />
<glyph glyph-name="h" unicode="h" horiz-adv-x="616" d="M251 750 L251 384 Q257 403 267.5 421 Q278 439 295 453.5 Q312 468 337.5 477 Q363 486 400 486 Q470 486 512.5 448 Q555 410 555 319 L555 18 L611 18 L611 0 L328 0 L328 18 L369 18 L369 343 Q369 375 366.5 394 Q364 413 359.5 422.5 Q355 432 348 435 Q341 438 332 438 Q316 438 301.5 427 Q287 416 276 396.5 Q265 377 258 350.5 Q251 324 251 294 L251 18 L294 18 L294 0 L10 0 L10 18 L65 18 L65 732 L10 732 L10 750 L251 750 Z " />
<glyph glyph-name="i" unicode="i" horiz-adv-x="317" d="M59 638 Q59 675 82 703 Q105 731 161 731 Q208 731 234 708 Q260 685 260 639 Q260 599 236.5 572 Q213 545 159 545 Q129 545 109.5 553.5 Q90 562 78.5 575.5 Q67 589 63 605.5 Q59 622 59 638 Z M251 476 L251 18 L307 18 L307 0 L10 0 L10 18 L65 18 L65 458 L6 458 L6 476 L251 476 Z " />
<glyph glyph-name="j" unicode="j" horiz-adv-x="311" d="M251 86 Q251 8 238 -54.5 Q225 -117 196.5 -160.5 Q168 -204 122 -227 Q76 -250 10 -250 Q-35 -250 -66 -240 Q-97 -230 -115.5 -214 Q-134 -198 -142 -178 Q-150 -158 -150 -139 Q-150 -94 -123 -71.5 Q-96 -49 -58 -49 Q-18 -49 0.5 -71.5 Q19 -94 19 -126 Q19 -137 17 -148 Q15 -159 13 -168 L-25 -168 Q-42 -195 -29.5 -214 Q-17 -233 9 -233 Q26 -233 37 -225.5 Q48 -218 54 -198.5 Q60 -179 62.5 -144.5 Q65 -110 65 -56 L65 458 L0 458 L0 476 L251 476 L251 86 Z M58 638 Q58 675 81 703 Q104 731 160 731 Q207 731 233 708 Q259 685 259 639 Q259 599 235.5 572 Q212 545 158 545 Q128 545 108.5 553.5 Q89 562 77.5 575.5 Q66 589 62 605.5 Q58 622 58 638 Z " />
<glyph glyph-name="k" unicode="k" horiz-adv-x="620" d="M337 18 L383 18 L270 250 L251 245 L251 18 L297 18 L297 0 L10 0 L10 18 L65 18 L65 732 L6 732 L6 750 L251 750 L251 265 L267 271 L492 458 L398 458 L398 476 L595 476 L595 458 L525 458 L406 357 L579 18 L615 18 L615 0 L337 0 L337 18 Z " />
<glyph glyph-name="l" unicode="l" horiz-adv-x="316" d="M251 750 L251 18 L307 18 L307 0 L10 0 L10 18 L65 18 L65 732 L6 732 L6 750 L251 750 Z " />
<glyph glyph-name="m" unicode="m" horiz-adv-x="888" d="M251 476 L251 384 Q257 403 267 421 Q277 439 293 453.5 Q309 468 333.5 477 Q358 486 392 486 Q446 486 483 461 Q520 436 533 378 Q539 397 550 416 Q561 435 578.5 450.5 Q596 466 621 476 Q646 486 680 486 Q745 486 786 448 Q827 410 827 319 L827 18 L883 18 L883 0 L606 0 L606 18 L641 18 L641 343 Q641 375 639 394 Q637 413 633.5 422.5 Q630 432 624.5 435 Q619 438 612 438 Q585 438 562 400.5 Q539 363 539 300 L539 18 L575 18 L575 0 L318 0 L318 18 L353 18 L353 343 Q353 375 351 394 Q349 413 345.5 422.5 Q342 432 336.5 435 Q331 438 324 438 Q310 438 297 427 Q284 416 273.5 396.5 Q263 377 257 350.5 Q251 324 251 294 L251 18 L287 18 L287 0 L10 0 L10 18 L65 18 L65 458 L10 458 L10 476 L251 476 Z " />
<glyph glyph-name="n" unicode="n" horiz-adv-x="616" d="M253 476 L253 384 Q259 403 269.5 421 Q280 439 297 453.5 Q314 468 339.5 477 Q365 486 402 486 Q472 486 514.5 448 Q557 410 557 319 L557 18 L613 18 L613 0 L330 0 L330 18 L371 18 L371 343 Q371 375 368.5 394 Q366 413 361.5 422.5 Q357 432 350 435 Q343 438 334 438 Q318 438 303.5 427 Q289 416 278 396.5 Q267 377 260 350.5 Q253 324 253 294 L253 18 L296 18 L296 0 L12 0 L12 18 L67 18 L67 458 L12 458 L12 476 L253 476 Z " />
<glyph glyph-name="o" unicode="o" horiz-adv-x="543" d="M333 282 Q333 323 331.5 357 Q330 391 324.5 415.5 Q319 440 307 454 Q295 468 274 468 Q251 468 238 454 Q225 440 219 415 Q213 390 211.5 354.5 Q210 319 210 277 L210 199 Q210 156 211.5 120.5 Q213 85 219 60 Q225 35 237.5 21.5 Q250 8 273 8 Q294 8 306 19.5 Q318 31 324 54 Q330 77 331.5 112.5 Q333 148 333 197 L333 282 Z M18 236 Q18 360 87 423 Q156 486 277 486 Q404 486 464.5 426.5 Q525 367 525 245 Q525 122 465 56 Q405 -10 271 -10 Q144 -10 81 54 Q18 118 18 236 Z " />
<glyph glyph-name="p" unicode="p" horiz-adv-x="588" d="M329 443 Q298 443 274.5 407 Q251 371 251 305 L251 122 Q251 82 267 50.5 Q283 19 316 19 Q353 19 364 66 Q375 113 375 217 L375 269 Q375 322 372.5 355.5 Q370 389 364.5 408.5 Q359 428 350.5 435.5 Q342 443 329 443 Z M249 397 Q266 435 297 460.5 Q328 486 387 486 Q472 486 520 425.5 Q568 365 568 237 Q568 108 516.5 49 Q465 -10 362 -10 Q311 -10 288 3 Q265 16 251 39 L251 -220 L380 -220 L380 -238 L10 -238 L10 -220 L65 -220 L65 458 L12 458 L12 476 L249 476 L249 397 Z " />
<glyph glyph-name="q" unicode="q" horiz-adv-x="588" d="M259 33 Q290 33 313.5 67.5 Q337 102 337 168 L337 354 Q337 396 320 426.5 Q303 457 271 457 Q235 457 224 410 Q213 363 213 259 L213 207 Q213 154 215.5 120.5 Q218 87 223.5 67.5 Q229 48 237.5 40.5 Q246 33 259 33 Z M337 76 Q320 38 290 14 Q260 -10 202 -10 Q117 -10 68.5 50.5 Q20 111 20 239 Q20 368 71.5 427 Q123 486 226 486 Q267 486 295.5 472 Q324 458 343 423 L350 476 L578 476 L578 458 L523 458 L523 -220 L572 -220 L572 -238 L235 -238 L235 -220 L337 -220 L337 76 Z " />
<glyph glyph-name="r" unicode="r" horiz-adv-x="495" d="M344 448 Q326 448 309 435.5 Q292 423 279.5 401 Q267 379 259 349.5 Q251 320 251 286 L251 18 L322 18 L322 0 L10 0 L10 18 L65 18 L65 458 L10 458 L10 476 L251 476 L251 380 Q265 434 302.5 460 Q340 486 385 486 Q430 486 460.5 461 Q491 436 491 379 Q491 336 469.5 310 Q448 284 407 284 Q356 284 334.5 313.5 Q313 343 329 397 L365 397 Q380 428 370 438 Q360 448 344 448 Z " />
<glyph glyph-name="s" unicode="s" horiz-adv-x="434" d="M33 169 L45 169 Q59 123 77.5 93 Q96 63 118.5 45 Q141 27 167.5 19.5 Q194 12 225 12 Q281 12 304 30 Q327 48 327 77 Q327 94 318 105 Q309 116 293 124 Q277 132 254 138.5 Q231 145 202 153 Q172 161 142 172 Q112 183 87.5 201.5 Q63 220 48 247.5 Q33 275 33 317 Q33 394 81 440 Q129 486 209 486 Q242 486 266 479 Q290 472 310 463 Q319 459 324 457 Q329 455 338 455 Q349 455 356 462 Q363 469 373 488 L384 488 L384 335 L372 335 Q345 404 306.5 434.5 Q268 465 214 465 Q164 465 142.5 447.5 Q121 430 121 407 Q121 390 131.5 378.5 Q142 367 159.5 359 Q177 351 199.5 345 Q222 339 247 332 Q277 324 306.5 313 Q336 302 360 283 Q384 264 399 234.5 Q414 205 414 161 Q414 75 363 32.5 Q312 -10 227 -10 Q191 -10 163.5 -2.5 Q136 5 107 19 Q102 22 96.5 24.5 Q91 27 88 27 Q78 27 67.5 19 Q57 11 45 -10 L33 -10 L33 169 Z " />
<glyph glyph-name="t" unicode="t" horiz-adv-x="394" d="M60 458 L5 458 L5 476 L60 476 L60 605 L246 651 L246 476 L376 476 L376 458 L246 458 L246 121 Q246 76 255 53 Q264 30 290 30 Q326 30 348 60.5 Q370 91 377 142 L394 140 Q391 111 382 84 Q373 57 354.5 36 Q336 15 306 2.5 Q276 -10 230 -10 Q193 -10 161.5 -3.5 Q130 3 107.5 20 Q85 37 72.5 67 Q60 97 60 143 L60 458 Z " />
<glyph glyph-name="u" unicode="u" horiz-adv-x="605" d="M367 0 L356 73 Q349 55 338.5 40 Q328 25 312 14 Q296 3 272.5 -3.5 Q249 -10 215 -10 Q145 -10 102.5 28 Q60 66 60 157 L60 458 L4 458 L4 476 L246 476 L246 133 Q246 101 248.5 82 Q251 63 255.5 52.5 Q260 42 267 38.5 Q274 35 283 35 Q313 35 333.5 65 Q354 95 354 152 L354 458 L308 458 L308 476 L540 476 L540 18 L595 18 L595 0 L367 0 Z " />
<glyph glyph-name="v" unicode="v" horiz-adv-x="532" d="M0 476 L299 476 L299 458 L236 458 L356 126 L464 458 L397 458 L397 476 L532 476 L532 458 L488 458 L340 0 L226 0 L41 458 L0 458 L0 476 Z " />
<glyph glyph-name="w" unicode="w" horiz-adv-x="834" d="M352 476 L610 476 L610 458 L569 458 L659 121 L748 458 L679 458 L679 476 L814 476 L814 458 L772 458 L652 0 L515 0 L428 307 L334 0 L200 0 L52 458 L7 458 L7 476 L310 476 L310 458 L250 458 L342 118 L414 352 L389 458 L352 458 L352 476 Z " />
<glyph glyph-name="x" unicode="x" horiz-adv-x="595" d="M485 458 L413 458 L413 476 L562 476 L562 458 L510 458 L380 274 L543 18 L595 18 L595 0 L261 0 L261 18 L332 18 L222 198 L108 18 L174 18 L174 0 L17 0 L17 18 L83 18 L210 218 L58 458 L0 458 L0 476 L338 476 L338 458 L268 458 L367 295 L485 458 Z " />
<glyph glyph-name="y" unicode="y" horiz-adv-x="532" d="M5 476 L295 476 L295 458 L241 458 L350 126 L466 458 L399 458 L399 476 L540 476 L540 458 L490 458 L303 -81 Q286 -129 267.5 -161.5 Q249 -194 227.5 -213.5 Q206 -233 181.5 -241.5 Q157 -250 127 -250 Q70 -250 36 -223.5 Q2 -197 2 -149 Q2 -111 24 -89.5 Q46 -68 82 -68 Q120 -68 142.5 -85 Q165 -102 165 -137 Q165 -152 159 -173 L124 -173 Q116 -196 121.5 -211 Q127 -226 149 -226 Q191 -226 222.5 -184.5 Q254 -143 283 -62 L305 0 L217 0 L46 458 L5 458 L5 476 Z " />
<glyph glyph-name="z" unicode="z" horiz-adv-x="520" d="M475 458 L238 18 L251 18 Q337 18 384 63 Q431 108 458 205 L472 205 L456 0 L36 0 L36 15 L277 458 L266 458 Q215 458 181.5 451 Q148 444 125 424.5 Q102 405 86 371 Q70 337 55 284 L42 284 L55 476 L475 476 L475 458 Z " />
<glyph glyph-name="braceleft" unicode="&#x7b;" horiz-adv-x="377" d="M24 324 Q40 324 57 328.5 Q74 333 87.5 346 Q101 359 109.5 381.5 Q118 404 118 441 Q118 469 113.5 497.5 Q109 526 103.5 552.5 Q98 579 93.5 602 Q89 625 89 643 Q89 712 134 746 Q179 780 276 780 Q311 780 333.5 776 Q356 772 368 767 L363 751 Q354 754 345 756 Q336 758 323 758 Q314 758 304 756 Q294 754 286.5 747 Q279 740 274 727 Q269 714 269 693 Q269 670 273.5 638.5 Q278 607 283 573.5 Q288 540 292.5 507.5 Q297 475 297 450 Q297 414 287.5 390.5 Q278 367 257 352 Q236 337 204 329.5 Q172 322 127 319 L127 317 Q169 314 201 306 Q233 298 254.5 282 Q276 266 286.5 241.5 Q297 217 297 180 Q297 157 292.5 123 Q288 89 283 53 Q278 17 273.5 -15.5 Q269 -48 269 -69 Q269 -112 287 -124 Q305 -136 328 -136 Q339 -136 351.5 -133.5 Q364 -131 372 -128 L377 -144 Q366 -149 343 -154.5 Q320 -160 291 -160 Q185 -160 137 -123.5 Q89 -87 89 -15 Q89 0 93.5 24 Q98 48 103.5 76.5 Q109 105 113.5 135 Q118 165 118 192 Q118 227 109.5 249.5 Q101 272 87.5 285 Q74 298 57 303 Q40 308 24 308 L24 324 Z " />
<glyph glyph-name="bar" unicode="&#x7c;" horiz-adv-x="319" d="M140 795 L179 795 L179 -127 L140 -127 L140 795 Z " />
<glyph glyph-name="braceright" unicode="&#x7d;" horiz-adv-x="377" d="M353 324 L353 308 Q337 308 320 303 Q303 298 289.5 285 Q276 272 267.5 249.5 Q259 227 259 192 Q259 165 263.5 135 Q268 105 273.5 76.5 Q279 48 283.5 24 Q288 0 288 -15 Q288 -87 240 -123.5 Q192 -160 86 -160 Q57 -160 34 -154.5 Q11 -149 0 -144 L5 -128 Q13 -131 25.5 -133.5 Q38 -136 49 -136 Q72 -136 90 -124 Q108 -112 108 -69 Q108 -48 103.5 -15.5 Q99 17 94 53 Q89 89 84.5 123 Q80 157 80 180 Q80 217 90.5 241.5 Q101 266 122.5 282 Q144 298 176 306 Q208 314 250 317 L250 319 Q205 322 173 329.5 Q141 337 120 352 Q99 367 89.5 390.5 Q80 414 80 450 Q80 475 84.5 507.5 Q89 540 94 573.5 Q99 607 103.5 638.5 Q108 670 108 693 Q108 714 103 727 Q98 740 90.5 747 Q83 754 73 756 Q63 758 54 758 Q41 758 32 756 Q23 754 14 751 L9 767 Q21 772 43.5 776 Q66 780 101 780 Q198 780 243 746 Q288 712 288 643 Q288 625 283.5 602 Q279 579 273.5 552.5 Q268 526 263.5 497.5 Q259 469 259 441 Q259 404 267.5 381.5 Q276 359 289.5 346 Q303 333 320 328.5 Q337 324 353 324 Z " />
<glyph glyph-name="asciitilde" unicode="&#x7e;" horiz-adv-x="530" d="M377 237 Q345 237 310.5 244.5 Q276 252 243 260 Q217 267 191 272.5 Q165 278 144 278 Q125 278 105.5 270 Q86 262 72 235 L60 240 Q68 272 77 300.5 Q86 329 100 350.5 Q114 372 133 385 Q152 398 179 398 Q204 398 236.5 391 Q269 384 301 376 Q330 369 361.5 363.5 Q393 358 417 358 Q438 358 451.5 366.5 Q465 375 478 401 L490 398 Q477 346 464.5 314.5 Q452 283 439 266 Q426 249 411 243 Q396 237 377 237 Z " />
<glyph glyph-name="uni00A0" unicode="&#xa0;" horiz-adv-x="180" d="" />
<glyph glyph-name="exclamdown" unicode="&#xa1;" horiz-adv-x="377" d="M178 298 L200 298 L200 213 Q200 153 211 103.5 Q222 54 235 10 Q248 -34 259 -74 Q270 -114 270 -154 Q270 -178 263.5 -194 Q257 -210 246.5 -219 Q236 -228 222 -231.5 Q208 -235 194 -235 Q179 -235 164.5 -231 Q150 -227 138.5 -218 Q127 -209 120 -193.5 Q113 -178 113 -154 Q113 -117 123 -77 Q133 -37 145.5 7.5 Q158 52 168 102.5 Q178 153 178 212 L178 298 Z M111 411 Q111 439 128 462.5 Q145 486 188 486 Q224 486 243.5 465 Q263 444 263 409 Q263 370 241 352.5 Q219 335 186 335 Q150 335 130.5 357 Q111 379 111 411 Z " />
<glyph glyph-name="cent" unicode="&#xa2;" horiz-adv-x="515" d="M312 511 Q271 511 251.5 468 Q232 425 232 322 L232 275 Q232 187 253.5 147.5 Q275 108 330 108 Q362 108 385 119.5 Q408 131 423.5 149 Q439 167 447.5 188 Q456 209 460 228 L479 224 Q475 203 465 177 Q455 151 433.5 128.5 Q412 106 375 90.5 Q338 75 279 75 Q264 75 250 76 Q236 77 222 79 L199 -26 L171 -20 L194 85 Q125 105 89.5 158 Q54 211 54 296 Q54 411 121 469.5 Q188 528 305 528 L314 528 L338 635 L366 630 L343 526 Q409 518 442.5 486.5 Q476 455 476 410 Q476 367 456 346 Q436 325 401 325 Q365 325 345.5 343.5 Q326 362 326 400 Q326 406 327 414.5 Q328 423 331 433 L362 433 Q368 451 368 466 Q368 489 350 500 Q332 511 312 511 Z " />
<glyph glyph-name="sterling" unicode="&#xa3;" horiz-adv-x="581" d="M36 326 L113 326 Q90 364 70 406.5 Q50 449 50 503 Q50 554 69 592.5 Q88 631 123 657.5 Q158 684 206.5 697.5 Q255 711 315 711 Q370 711 411 699 Q452 687 479.5 666 Q507 645 520.5 617.5 Q534 590 534 558 Q534 521 513 493 Q492 465 445 465 Q407 465 382 486.5 Q357 508 357 543 Q357 557 359 567.5 Q361 578 365 588 L396 588 Q399 596 400.5 606 Q402 616 402 622 Q402 649 386.5 670.5 Q371 692 329 692 Q299 692 282.5 682 Q266 672 257.5 651.5 Q249 631 247 601 Q245 571 245 530 L245 326 L421 326 L421 298 L245 298 L245 268 Q245 240 239 218.5 Q233 197 221 178 Q209 159 192 141 Q175 123 153 101 L156 96 Q202 127 236 143.5 Q270 160 302 160 Q326 160 350.5 150 Q375 140 398 127.5 Q421 115 441 105 Q461 95 476 95 Q502 95 514 114 Q526 133 530 187 L551 186 Q546 86 508 33.5 Q470 -19 418 -19 Q389 -19 366.5 -12.5 Q344 -6 315 8 L163 80 Q157 32 132 10.5 Q107 -11 72 -11 Q43 -11 33 4 Q23 19 23 33 Q23 64 53 85.5 Q83 107 131 108 Q143 131 148 151.5 Q153 172 153 199 Q153 225 144.5 250 Q136 275 125 298 L36 298 L36 326 Z " />
<glyph glyph-name="currency" unicode="&#xa4;" horiz-adv-x="530" d="M99 340 Q99 364 106.5 389 Q114 414 128 436 L51 525 L70 543 L160 472 Q181 486 208 494.5 Q235 503 264 503 Q292 503 317.5 495.5 Q343 488 362 473 L452 542 L469 526 L394 441 Q408 421 415 394.5 Q422 368 422 343 Q422 316 414 290 Q406 264 392 243 L467 145 L449 128 L355 205 Q337 191 312.5 183.5 Q288 176 261 176 Q232 176 205.5 183.5 Q179 191 162 203 L73 129 L55 147 L127 236 Q113 257 106 285 Q99 313 99 340 Z M138 340 Q138 313 144.5 289 Q151 265 165.5 246.5 Q180 228 203.5 217.5 Q227 207 262 207 Q292 207 314.5 217.5 Q337 228 352.5 246.5 Q368 265 375.5 289 Q383 313 383 340 Q383 397 354 435.5 Q325 474 260 474 Q228 474 205 463 Q182 452 167 433.5 Q152 415 145 391 Q138 367 138 340 Z " />
<glyph glyph-name="yen" unicode="&#xa5;" horiz-adv-x="609" d="M529 684 L428 684 L428 700 L625 700 L625 684 L559 684 L411 377 L528 377 L528 349 L408 349 L408 276 L528 276 L528 248 L408 248 L408 19 L469 19 L469 0 L152 0 L152 19 L213 19 L213 248 L99 248 L99 276 L213 276 L213 349 L99 349 L99 377 L199 377 L43 684 L-4 684 L-4 700 L316 700 L316 684 L251 684 L387 391 L529 684 Z " />
<glyph glyph-name="brokenbar" unicode="&#xa6;" horiz-adv-x="319" d="M140 795 L179 795 L179 412 L140 412 L140 795 Z M140 310 L179 310 L179 -127 L140 -127 L140 310 Z " />
<glyph glyph-name="section" unicode="&#xa7;" horiz-adv-x="699" d="M70 418 Q70 493 95 548 Q120 603 161.5 639 Q203 675 256.5 693 Q310 711 367 711 Q477 711 528.5 671 Q580 631 580 568 Q580 531 559 503 Q538 475 491 475 Q453 475 428 496.5 Q403 518 403 553 Q403 567 405 577.5 Q407 588 411 598 L447 606 Q450 614 451.5 622.5 Q453 631 453 642 Q453 666 435 679 Q417 692 374 692 Q338 692 315.5 677 Q293 662 280 635 Q267 608 262 571 Q257 534 255 490 Q335 473 402 449 Q469 425 517 387.5 Q565 350 592 296 Q619 242 619 166 Q619 91 594 36 Q569 -19 527.5 -55 Q486 -91 432.5 -109 Q379 -127 322 -127 Q212 -127 160.5 -87 Q109 -47 109 16 Q109 53 130 81 Q151 109 198 109 Q236 109 261 87.5 Q286 66 286 31 Q286 17 284 6.5 Q282 -4 278 -14 L242 -22 Q239 -30 237.5 -38.5 Q236 -47 236 -58 Q236 -82 254 -95 Q272 -108 315 -108 Q351 -108 373.5 -93 Q396 -78 408.5 -51 Q421 -24 426.5 13 Q432 50 433 94 Q353 111 286 135 Q219 159 171 196.5 Q123 234 96.5 288 Q70 342 70 418 Z M434 155 Q434 215 425 263.5 Q416 312 395 350.5 Q374 389 340 417 Q306 445 255 465 L255 429 Q255 368 264 319.5 Q273 271 294 233 Q315 195 349 166.5 Q383 138 434 118 L434 155 Z " />
<glyph glyph-name="dieresis" unicode="&#xa8;" horiz-adv-x="500" d="M291 618 Q291 647 310 669 Q329 691 365 691 Q397 691 418.5 673.5 Q440 656 440 618 Q440 585 421 564 Q402 543 366 543 Q345 543 330.5 549.5 Q316 556 307.5 567 Q299 578 295 591.5 Q291 605 291 618 Z M98 618 Q98 647 117 669 Q136 691 172 691 Q204 691 225.5 673.5 Q247 656 247 618 Q247 585 228 564 Q209 543 173 543 Q152 543 137.5 549.5 Q123 556 114.5 567 Q106 578 102 591.5 Q98 605 98 618 Z " />
<glyph glyph-name="copyright" unicode="&#xa9;" horiz-adv-x="781" d="M721 320 Q721 243 697 181.5 Q673 120 629 77.5 Q585 35 524.5 12 Q464 -11 390 -11 Q308 -11 246 12.5 Q184 36 143 78.5 Q102 121 81 179 Q60 237 60 306 Q60 384 86 445 Q112 506 157 548.5 Q202 591 262.5 613.5 Q323 636 392 636 Q469 636 529.5 613.5 Q590 591 633 550 Q676 509 698.5 450.5 Q721 392 721 320 Z M696 314 Q696 388 673.5 444 Q651 500 610.5 538 Q570 576 514 595 Q458 614 392 614 Q327 614 271 593.5 Q215 573 174 534 Q133 495 109.5 438 Q86 381 86 307 Q86 237 107 182.5 Q128 128 167 90 Q206 52 262.5 32 Q319 12 390 12 Q460 12 516.5 33 Q573 54 613 93 Q653 132 674.5 188 Q696 244 696 314 Z M416 496 Q398 496 385.5 488.5 Q373 481 365.5 461.5 Q358 442 355 407.5 Q352 373 352 318 Q352 267 355 233 Q358 199 365 178 Q372 157 384.5 148.5 Q397 140 416 140 Q436 140 452.5 149.5 Q469 159 482.5 174 Q496 189 506.5 208.5 Q517 228 524 247 L536 247 L532 128 L522 128 Q519 133 516.5 138 Q514 143 508 143 Q500 143 472.5 132.5 Q445 122 407 122 Q318 122 263 168.5 Q208 215 208 318 Q208 414 263.5 464 Q319 514 411 514 Q445 514 470.5 504 Q496 494 505 494 Q511 494 513.5 499 Q516 504 519 509 L528 509 L531 390 L517 390 Q501 437 472.5 466.5 Q444 496 416 496 Z " />
<glyph glyph-name="ordfeminine" unicode="&#xaa;" horiz-adv-x="454" d="M227 568 L227 623 Q227 657 225.5 678.5 Q224 700 219.5 712 Q215 724 207.5 728.5 Q200 733 188 733 Q177 733 164.5 729 Q152 725 152 708 Q152 699 156 688 L176 688 Q178 681 180 673.5 Q182 666 182 656 Q182 630 162.5 615 Q143 600 114 600 Q78 600 62.5 616.5 Q47 633 47 659 Q47 704 88.5 725.5 Q130 747 209 747 Q254 747 285 740.5 Q316 734 335 718.5 Q354 703 362.5 677 Q371 651 371 612 L371 472 Q371 450 377 442.5 Q383 435 393 435 Q404 435 411.5 447.5 Q419 460 422 505 L435 503 Q433 439 410 416.5 Q387 394 337 394 Q245 394 230 447 Q221 421 202 407.5 Q183 394 142 394 Q122 394 101.5 397.5 Q81 401 64.5 410.5 Q48 420 37.5 436.5 Q27 453 27 480 Q27 507 39.5 524 Q52 541 75 551 Q98 561 131 564.5 Q164 568 205 568 L227 568 Z M194 426 Q205 426 216 442.5 Q227 459 227 491 L227 553 L222 553 Q197 553 185.5 539 Q174 525 174 492 L174 481 Q174 446 178.5 436 Q183 426 194 426 Z " />
<glyph glyph-name="guillemotleft" unicode="&#xab;" horiz-adv-x="494" d="M416 401 L425 394 L339 231 L424 56 L415 49 L256 179 Q241 192 233.5 202 Q226 212 226 225 Q226 237 230.5 247 Q235 257 239 263 L416 401 Z M240 401 L249 394 L163 231 L248 56 L239 49 L80 179 Q65 192 57.5 202 Q50 212 50 225 Q50 237 54.5 247 Q59 257 63 263 L240 401 Z " />
<glyph glyph-name="logicalnot" unicode="&#xac;" horiz-adv-x="530" d="M457 301 L38 301 L38 334 L492 334 L492 167 L457 167 L457 301 Z " />
<glyph glyph-name="uni00AD" unicode="&#xad;" horiz-adv-x="340" d="M47 308 L299 308 L299 278 L47 278 L47 308 Z " />
<glyph glyph-name="registered" unicode="&#xae;" horiz-adv-x="459" d="M419 480 Q419 438 405 403.5 Q391 369 366 344 Q341 319 306 305.5 Q271 292 229 292 Q182 292 146.5 306 Q111 320 87.5 344 Q64 368 52 401 Q40 434 40 473 Q40 517 55 552 Q70 587 95.5 611.5 Q121 636 156 649 Q191 662 230 662 Q318 662 368.5 612.5 Q419 563 419 480 Z M394 477 Q394 516 381.5 546.5 Q369 577 347 598 Q325 619 295 630 Q265 641 230 641 Q158 641 112 596.5 Q66 552 66 474 Q66 399 108.5 356.5 Q151 314 230 314 Q305 314 349.5 358 Q394 402 394 477 Z M223 482 L223 395 L231 395 L231 387 L132 387 L132 395 L154 395 L154 571 L132 571 L132 579 L236 579 Q271 579 291.5 571 Q312 563 312 534 Q312 509 294.5 499 Q277 489 248 487 L248 486 Q287 484 300.5 473.5 Q314 463 314 439 L314 416 Q314 408 315.5 404 Q317 400 323 400 Q331 400 335 410 Q339 420 341 434 L349 433 Q346 410 336 397 Q326 384 295 384 Q246 384 246 421 L246 450 Q246 468 242.5 475 Q239 482 226 482 L223 482 Z M223 492 L226 492 Q243 492 247.5 502 Q252 512 252 532 Q252 552 248.5 561.5 Q245 571 228 571 L223 571 L223 492 Z " />
<glyph glyph-name="macron" unicode="&#xaf;" horiz-adv-x="500" d="M114 647 L386 647 L386 552 L114 552 L114 647 Z " />
<glyph glyph-name="degree" unicode="&#xb0;" horiz-adv-x="329" d="M76 627 Q76 587 98.5 561 Q121 535 166 535 Q207 535 230.5 561 Q254 587 254 627 Q254 669 229.5 694 Q205 719 163 719 Q122 719 99 693.5 Q76 668 76 627 Z M40 627 Q40 651 48 673 Q56 695 72 711.5 Q88 728 112 737.5 Q136 747 167 747 Q227 747 258 714.5 Q289 682 289 629 Q289 578 257 542 Q225 506 164 506 Q101 506 70.5 540.5 Q40 575 40 627 Z " />
<glyph glyph-name="plusminus" unicode="&#xb1;" horiz-adv-x="530" d="M280 301 L280 112 L242 112 L242 301 L38 301 L38 334 L242 334 L242 510 L280 510 L280 334 L492 334 L492 301 L280 301 Z M38 0 L38 33 L492 33 L492 0 L38 0 Z " />
<glyph glyph-name="twosuperior" unicode="&#xb2;" horiz-adv-x="417" d="M195 823 Q267 823 311 797 Q355 771 355 714 Q355 686 345 663.5 Q335 641 311 619 Q287 597 246.5 572.5 Q206 548 145 516 L107 496 L267 496 Q313 496 329.5 516.5 Q346 537 353 571 L368 571 L361 394 L57 394 L57 478 L121 529 Q153 554 173.5 576 Q194 598 207 620.5 Q220 643 225 668.5 Q230 694 230 726 Q230 761 222 783 Q214 805 182 805 Q158 805 143 788 Q128 771 140 743 L160 743 Q162 736 163.5 729.5 Q165 723 165 714 Q165 691 149 677.5 Q133 664 110 664 Q79 664 64.5 682 Q50 700 50 724 Q50 764 86.5 793.5 Q123 823 195 823 Z " />
<glyph glyph-name="threesuperior" unicode="&#xb3;" horiz-adv-x="422" d="M203 819 Q284 819 316.5 793 Q349 767 349 723 Q349 684 316 658.5 Q283 633 221 623 L221 622 Q302 617 336.5 586.5 Q371 556 371 511 Q371 454 323.5 420 Q276 386 189 386 Q167 386 142 389.5 Q117 393 96.5 402.5 Q76 412 62.5 429 Q49 446 49 474 Q49 498 64.5 516.5 Q80 535 109 535 Q133 535 148.5 522.5 Q164 510 164 487 Q164 479 162 472 Q160 465 158 459 L143 459 Q137 447 137 437 Q137 420 151 411 Q165 402 187 402 Q226 402 236.5 431.5 Q247 461 247 509 Q247 557 235 577 Q223 597 200 608 Q185 605 174.5 603.5 Q164 602 146 600 L144 618 Q171 621 187.5 626 Q204 631 213.5 642.5 Q223 654 226 673 Q229 692 229 722 Q229 761 221.5 782.5 Q214 804 189 804 Q169 804 157.5 794.5 Q146 785 146 768 Q146 757 150 746 L166 746 Q168 740 170 733.5 Q172 727 172 718 Q172 697 155.5 683.5 Q139 670 115 670 Q86 670 72 687.5 Q58 705 58 728 Q58 766 94.5 792.5 Q131 819 203 819 Z " />
<glyph glyph-name="acute" unicode="&#xb4;" horiz-adv-x="500" d="M226 723 L273 733 Q307 741 322 725 Q337 709 337 689 Q337 675 330.5 662.5 Q324 650 308 636 L174 525 L163 532 L226 723 Z " />
<glyph glyph-name="mu" unicode="&#xb5;" horiz-adv-x="673" d="M268 158 Q268 133 268.5 111.5 Q269 90 272.5 74 Q276 58 284.5 48.5 Q293 39 308 39 Q322 39 335.5 48.5 Q349 58 360.5 76 Q372 94 379 120.5 Q386 147 386 181 L386 492 L563 501 L563 85 Q563 59 570.5 50.5 Q578 42 592 42 Q599 42 605.5 46.5 Q612 51 617 62 Q622 73 626 93.5 Q630 114 632 145 L647 144 Q645 99 637 69.5 Q629 40 613.5 22 Q598 4 574.5 -3 Q551 -10 519 -10 Q459 -10 427 18.5 Q395 47 386 89 Q371 47 338.5 18 Q306 -11 261 -11 Q246 -11 231 -8.5 Q216 -6 201 3 Q186 12 172 29 Q158 46 144 74 L140 71 L198 -71 Q215 -112 224.5 -135.5 Q234 -159 234 -178 Q234 -201 214 -214.5 Q194 -228 171 -223 L80 -204 L80 492 L268 501 L268 158 Z " />
<glyph glyph-name="paragraph" unicode="&#xb6;" horiz-adv-x="628" d="M377 175 L358 175 Q218 175 146.5 243.5 Q75 312 75 436 Q75 493 93.5 541.5 Q112 590 149.5 625 Q187 660 242.5 680 Q298 700 371 700 L598 700 L598 681 L533 681 L533 -13 Q533 -138 469.5 -194 Q406 -250 285 -250 Q233 -250 200.5 -237.5 Q168 -225 149.5 -206 Q131 -187 124 -164.5 Q117 -142 117 -123 Q117 -78 144 -53.5 Q171 -29 209 -29 Q249 -29 267.5 -51.5 Q286 -74 286 -106 Q286 -117 284 -128 Q282 -139 280 -148 L251 -148 Q228 -185 240.5 -208 Q253 -231 288 -231 Q309 -231 325.5 -224 Q342 -217 353.5 -199.5 Q365 -182 371 -153.5 Q377 -125 377 -82 L377 175 Z M407 -93 Q407 -131 399 -164.5 Q391 -198 369 -218 Q411 -209 437.5 -187.5 Q464 -166 478.5 -136.5 Q493 -107 498.5 -73 Q504 -39 504 -4 L504 681 L407 681 L407 -93 Z " />
<glyph glyph-name="periodcentered" unicode="&#xb7;" horiz-adv-x="300" d="M70 321 Q70 358 92 383.5 Q114 409 156 409 Q195 409 220 389 Q245 369 245 324 Q245 284 223 259.5 Q201 235 159 235 Q134 235 117 243 Q100 251 89.5 263 Q79 275 74.5 290.5 Q70 306 70 321 Z " />
<glyph glyph-name="cedilla" unicode="&#xb8;" horiz-adv-x="500" d="M270 13 L230 -55 Q235 -54 244.5 -53 Q254 -52 263 -52 Q319 -52 343.5 -76.5 Q368 -101 368 -141 Q368 -158 361 -176.5 Q354 -195 338.5 -210 Q323 -225 297 -235 Q271 -245 232 -245 Q185 -245 157 -226.5 Q129 -208 129 -179 Q129 -158 141 -146 Q153 -134 172 -134 Q191 -134 202 -146 Q213 -158 218 -172 L192 -192 Q192 -204 199 -216.5 Q206 -229 226 -229 Q245 -229 253.5 -212 Q262 -195 262 -152 Q262 -113 257.5 -91.5 Q253 -70 230 -70 Q216 -70 200 -74 L197 -65 L244 13 L270 13 Z " />
<glyph glyph-name="onesuperior" unicode="&#xb9;" horiz-adv-x="425" d="M88 783 L86 802 L230 821 L301 821 L301 413 L369 413 L369 394 L91 394 L91 413 L160 413 L160 791 L88 783 Z " />
<glyph glyph-name="ordmasculine" unicode="&#xba;" horiz-adv-x="489" d="M295 601 Q295 659 287 694 Q279 729 247 729 Q212 729 203 693.5 Q194 658 194 598 L194 542 Q194 481 202.5 446 Q211 411 246 411 Q279 411 287 441.5 Q295 472 295 541 L295 601 Z M46 569 Q46 657 97.5 702 Q149 747 249 747 Q443 747 443 575 Q443 487 395 440.5 Q347 394 244 394 Q144 394 95 439.5 Q46 485 46 569 Z " />
<glyph glyph-name="guillemotright" unicode="&#xbb;" horiz-adv-x="494" d="M254 49 L246 56 L331 219 L247 393 L255 401 L414 271 Q429 258 436.5 248 Q444 238 444 225 Q444 213 439.5 203 Q435 193 431 187 L254 49 Z M78 49 L70 56 L155 219 L71 393 L79 401 L238 271 Q253 258 260.5 248 Q268 238 268 225 Q268 213 263.5 203 Q259 193 255 187 L78 49 Z " />
<glyph glyph-name="onequarter" unicode="&#xbc;" horiz-adv-x="820" d="M560 700 L594 700 L274 0 L239 0 L560 700 Z M46 663 L44 682 L188 701 L259 701 L259 293 L327 293 L327 274 L49 274 L49 293 L118 293 L118 671 L46 663 Z M523 19 L581 19 L581 98 L413 98 L413 119 L588 420 L715 420 L715 122 L777 122 L777 174 L796 174 L796 56 L777 56 L777 98 L715 98 L715 19 L758 19 L758 0 L523 0 L523 19 Z M581 122 L581 360 L442 122 L581 122 Z " />
<glyph glyph-name="onehalf" unicode="&#xbd;" horiz-adv-x="820" d="M549 700 L583 700 L263 0 L228 0 L549 700 Z M35 663 L33 682 L177 701 L248 701 L248 293 L316 293 L316 274 L38 274 L38 293 L107 293 L107 671 L35 663 Z M614 429 Q686 429 730 403 Q774 377 774 320 Q774 292 764 269.5 Q754 247 730 225 Q706 203 665.5 178.5 Q625 154 564 122 L526 102 L686 102 Q732 102 748.5 122.5 Q765 143 772 177 L787 177 L780 0 L476 0 L476 84 L540 135 Q572 160 592.5 182 Q613 204 626 226.5 Q639 249 644 274.5 Q649 300 649 332 Q649 367 641 389 Q633 411 601 411 Q577 411 562 394 Q547 377 559 349 L579 349 Q581 342 582.5 335.5 Q584 329 584 320 Q584 297 568 283.5 Q552 270 529 270 Q498 270 483.5 288 Q469 306 469 330 Q469 370 505.5 399.5 Q542 429 614 429 Z " />
<glyph glyph-name="threequarters" unicode="&#xbe;" horiz-adv-x="820" d="M575 700 L609 700 L289 0 L254 0 L575 700 Z M538 19 L596 19 L596 98 L428 98 L428 119 L603 420 L730 420 L730 122 L792 122 L792 174 L811 174 L811 56 L792 56 L792 98 L730 98 L730 19 L773 19 L773 0 L538 0 L538 19 Z M596 122 L596 360 L457 122 L596 122 Z M182 699 Q263 699 295.5 673 Q328 647 328 603 Q328 564 295 538.5 Q262 513 200 503 L200 502 Q281 497 315.5 466.5 Q350 436 350 391 Q350 334 302.5 300 Q255 266 168 266 Q146 266 121 269.5 Q96 273 75.5 282.5 Q55 292 41.5 309 Q28 326 28 354 Q28 378 43.5 396.5 Q59 415 88 415 Q112 415 127.5 402.5 Q143 390 143 367 Q143 359 141 352 Q139 345 137 339 L122 339 Q116 327 116 317 Q116 300 130 291 Q144 282 166 282 Q205 282 215.5 311.5 Q226 341 226 389 Q226 437 214 457 Q202 477 179 488 Q164 485 153.5 483.5 Q143 482 125 480 L123 498 Q150 501 166.5 506 Q183 511 192.5 522.5 Q202 534 205 553 Q208 572 208 602 Q208 641 200.5 662.5 Q193 684 168 684 Q148 684 136.5 674.5 Q125 665 125 648 Q125 637 129 626 L145 626 Q147 620 149 613.5 Q151 607 151 598 Q151 577 134.5 563.5 Q118 550 94 550 Q65 550 51 567.5 Q37 585 37 608 Q37 646 73.5 672.5 Q110 699 182 699 Z " />
<glyph glyph-name="questiondown" unicode="&#xbf;" horiz-adv-x="580" d="M298 -235 Q189 -235 129.5 -193.5 Q70 -152 70 -69 Q70 -39 78.5 -14 Q87 11 100.5 33 Q114 55 132.5 74 Q151 93 170 111 L321 245 L321 303 L346 303 L346 93 Q346 76 335 65 L273 2 Q244 -27 233 -52.5 Q222 -78 222 -119 Q222 -216 312 -216 Q336 -216 352 -209 Q368 -202 377.5 -190.5 Q387 -179 391 -166 Q395 -153 395 -141 Q395 -129 389 -112 L357 -112 Q353 -102 351 -91.5 Q349 -81 349 -67 Q349 -32 374 -10.5 Q399 11 437 11 Q484 11 505 -17 Q526 -45 526 -82 Q526 -112 512 -140 Q498 -168 470 -189 Q442 -210 399 -222.5 Q356 -235 298 -235 Z M410 411 Q410 379 390.5 357 Q371 335 335 335 Q302 335 280 352.5 Q258 370 258 409 Q258 444 277.5 465 Q297 486 333 486 Q377 486 393.5 462.5 Q410 439 410 411 Z " />
<glyph glyph-name="Agrave" unicode="&#xc0;" horiz-adv-x="694" d="M359 235 L161 235 L84 19 L159 19 L159 0 L6 0 L6 19 L53 19 L308 706 L390 706 L642 19 L688 19 L688 0 L361 0 L361 19 L432 19 L359 235 Z M170 257 L351 257 L264 519 L170 257 Z M444 743 L436 733 L277 798 Q257 806 245 821.5 Q233 837 233 856 Q233 871 243.5 885 Q254 899 281 901 L329 905 L444 743 Z " />
<glyph glyph-name="Aacute" unicode="&#xc1;" horiz-adv-x="694" d="M359 235 L161 235 L84 19 L159 19 L159 0 L6 0 L6 19 L53 19 L308 706 L390 706 L642 19 L688 19 L688 0 L361 0 L361 19 L432 19 L359 235 Z M170 257 L351 257 L264 519 L170 257 Z M376 905 L424 901 Q451 899 461.5 885 Q472 871 472 856 Q472 837 460 821.5 Q448 806 428 798 L269 733 L261 743 L376 905 Z " />
<glyph glyph-name="Acircumflex" unicode="&#xc2;" horiz-adv-x="694" d="M359 235 L161 235 L84 19 L159 19 L159 0 L6 0 L6 19 L53 19 L308 706 L390 706 L642 19 L688 19 L688 0 L361 0 L361 19 L432 19 L359 235 Z M170 257 L351 257 L264 519 L170 257 Z M303 891 Q314 897 329 902 Q344 907 358 907 Q386 907 401.5 897 Q417 887 428 867 L502 743 L493 733 L351 801 L205 733 L197 743 L303 891 Z " />
<glyph glyph-name="Atilde" unicode="&#xc3;" horiz-adv-x="694" d="M359 235 L161 235 L84 19 L159 19 L159 0 L6 0 L6 19 L53 19 L308 706 L390 706 L642 19 L688 19 L688 0 L361 0 L361 19 L432 19 L359 235 Z M170 257 L351 257 L264 519 L170 257 Z M420 752 Q400 752 379 758.5 Q358 765 338 772.5 Q318 780 299.5 786 Q281 792 266 792 Q255 792 238.5 785 Q222 778 211 751 L199 755 Q209 788 218 813.5 Q227 839 238.5 857 Q250 875 266 884 Q282 893 306 893 Q325 893 344.5 887 Q364 881 383 873.5 Q402 866 419.5 859.5 Q437 853 451 853 Q466 853 482.5 859.5 Q499 866 509 895 L522 891 Q512 851 501.5 824 Q491 797 479 781 Q467 765 452.5 758.5 Q438 752 420 752 Z " />
<glyph glyph-name="Adieresis" unicode="&#xc4;" horiz-adv-x="694" d="M359 235 L161 235 L84 19 L159 19 L159 0 L6 0 L6 19 L53 19 L308 706 L390 706 L642 19 L688 19 L688 0 L361 0 L361 19 L432 19 L359 235 Z M170 257 L351 257 L264 519 L170 257 Z M371 821 Q371 850 390 872 Q409 894 445 894 Q477 894 498.5 876.5 Q520 859 520 821 Q520 788 501 767 Q482 746 446 746 Q425 746 410.5 752.5 Q396 759 387.5 770 Q379 781 375 794.5 Q371 808 371 821 Z M178 821 Q178 850 197 872 Q216 894 252 894 Q284 894 305.5 876.5 Q327 859 327 821 Q327 788 308 767 Q289 746 253 746 Q232 746 217.5 752.5 Q203 759 194.5 770 Q186 781 182 794.5 Q178 808 178 821 Z " />
<glyph glyph-name="Aring" unicode="&#xc5;" horiz-adv-x="694" d="M359 235 L161 235 L84 19 L159 19 L159 0 L6 0 L6 19 L53 19 L308 706 L390 706 L642 19 L688 19 L688 0 L361 0 L361 19 L432 19 L359 235 Z M170 257 L351 257 L264 519 L170 257 Z M277 823 Q277 795 292 772.5 Q307 750 349 750 Q387 750 403.5 772 Q420 794 420 823 Q420 851 403 872.5 Q386 894 347 894 Q308 894 292.5 872 Q277 850 277 823 Z M247 823 Q247 862 272 890 Q297 918 350 918 Q400 918 424.5 892 Q449 866 449 825 Q449 781 423 753.5 Q397 726 348 726 Q294 726 270.5 753 Q247 780 247 823 Z " />
<glyph glyph-name="AE" unicode="&#xc6;" horiz-adv-x="1033" d="M376 700 L950 700 L960 502 L942 502 Q922 550 902 583.5 Q882 617 857.5 638 Q833 659 802 668.5 Q771 678 728 678 L684 678 L684 362 L718 362 Q767 362 798 399 Q829 436 842 493 L857 493 L857 197 L840 197 Q822 272 791.5 304 Q761 336 708 336 L684 336 L684 22 L722 22 Q770 22 810 37.5 Q850 53 881 79.5 Q912 106 934 141.5 Q956 177 967 218 L987 218 L979 0 L430 0 L430 22 L489 22 L489 339 L279 339 L85 19 L160 19 L160 0 L6 0 L6 19 L53 19 L452 678 L376 678 L376 700 Z M291 363 L489 363 L489 678 L483 678 L291 363 Z " />
<glyph glyph-name="Ccedilla" unicode="&#xc7;" horiz-adv-x="690" d="M400 691 Q324 691 284.5 619 Q245 547 245 392 L245 313 Q245 244 255 188 Q265 132 285 92.5 Q305 53 335.5 31.5 Q366 10 407 10 Q468 10 517.5 68 Q567 126 609 224 L627 224 L620 1 L609 1 Q604 11 599 16 Q594 21 582 21 Q570 21 554 16.5 Q538 12 517 7 Q496 2 468.5 -3 Q441 -8 405 -9 L376 -59 Q381 -58 390.5 -57 Q400 -56 409 -56 Q465 -56 489.5 -80.5 Q514 -105 514 -145 Q514 -162 507 -180.5 Q500 -199 484.5 -214 Q469 -229 443 -239 Q417 -249 378 -249 Q331 -249 303 -230.5 Q275 -212 275 -183 Q275 -162 287 -150 Q299 -138 318 -138 Q337 -138 348 -150 Q359 -162 364 -176 L338 -196 Q338 -208 345 -220.5 Q352 -233 372 -233 Q391 -233 399.5 -216 Q408 -199 408 -156 Q408 -117 403.5 -95.5 Q399 -74 376 -74 Q362 -74 346 -78 L343 -69 L378 -10 Q300 -9 237.5 12.5 Q175 34 131.5 77 Q88 120 64.5 186 Q41 252 41 341 Q41 432 66 501 Q91 570 136.5 616.5 Q182 663 245.5 687 Q309 711 386 711 Q425 711 454 706 Q483 701 505 695.5 Q527 690 543.5 685 Q560 680 573 680 Q585 680 590 685 Q595 690 600 700 L611 700 L619 483 L601 483 Q580 529 558.5 567.5 Q537 606 512.5 633.5 Q488 661 460 676 Q432 691 400 691 Z " />
<glyph glyph-name="Egrave" unicode="&#xc8;" horiz-adv-x="624" d="M541 700 L551 502 L533 502 Q512 551 492 584.5 Q472 618 446.5 639 Q421 660 388 669 Q355 678 310 678 L275 678 L275 369 L309 369 Q358 369 389 406 Q420 443 433 500 L448 500 L448 204 L431 204 Q413 279 382.5 311 Q352 343 299 343 L275 343 L275 22 L313 22 Q361 22 401 37.5 Q441 53 472 79.5 Q503 106 525 141.5 Q547 177 558 218 L578 218 L570 0 L21 0 L21 22 L80 22 L80 678 L21 678 L21 700 L541 700 Z M390 743 L382 733 L223 798 Q203 806 191 821.5 Q179 837 179 856 Q179 871 189.5 885 Q200 899 227 901 L275 905 L390 743 Z " />
<glyph glyph-name="Eacute" unicode="&#xc9;" horiz-adv-x="624" d="M541 700 L551 502 L533 502 Q512 551 492 584.5 Q472 618 446.5 639 Q421 660 388 669 Q355 678 310 678 L275 678 L275 369 L309 369 Q358 369 389 406 Q420 443 433 500 L448 500 L448 204 L431 204 Q413 279 382.5 311 Q352 343 299 343 L275 343 L275 22 L313 22 Q361 22 401 37.5 Q441 53 472 79.5 Q503 106 525 141.5 Q547 177 558 218 L578 218 L570 0 L21 0 L21 22 L80 22 L80 678 L21 678 L21 700 L541 700 Z M322 905 L370 901 Q397 899 407.5 885 Q418 871 418 856 Q418 837 406 821.5 Q394 806 374 798 L215 733 L207 743 L322 905 Z " />
<glyph glyph-name="Ecircumflex" unicode="&#xca;" horiz-adv-x="624" d="M541 700 L551 502 L533 502 Q512 551 492 584.5 Q472 618 446.5 639 Q421 660 388 669 Q355 678 310 678 L275 678 L275 369 L309 369 Q358 369 389 406 Q420 443 433 500 L448 500 L448 204 L431 204 Q413 279 382.5 311 Q352 343 299 343 L275 343 L275 22 L313 22 Q361 22 401 37.5 Q441 53 472 79.5 Q503 106 525 141.5 Q547 177 558 218 L578 218 L570 0 L21 0 L21 22 L80 22 L80 678 L21 678 L21 700 L541 700 Z M249 891 Q260 897 275 902 Q290 907 304 907 Q332 907 347.5 897 Q363 887 374 867 L448 743 L439 733 L297 801 L151 733 L143 743 L249 891 Z " />
<glyph glyph-name="Edieresis" unicode="&#xcb;" horiz-adv-x="624" d="M541 700 L551 502 L533 502 Q512 551 492 584.5 Q472 618 446.5 639 Q421 660 388 669 Q355 678 310 678 L275 678 L275 369 L309 369 Q358 369 389 406 Q420 443 433 500 L448 500 L448 204 L431 204 Q413 279 382.5 311 Q352 343 299 343 L275 343 L275 22 L313 22 Q361 22 401 37.5 Q441 53 472 79.5 Q503 106 525 141.5 Q547 177 558 218 L578 218 L570 0 L21 0 L21 22 L80 22 L80 678 L21 678 L21 700 L541 700 Z M317 821 Q317 850 336 872 Q355 894 391 894 Q423 894 444.5 876.5 Q466 859 466 821 Q466 788 447 767 Q428 746 392 746 Q371 746 356.5 752.5 Q342 759 333.5 770 Q325 781 321 794.5 Q317 808 317 821 Z M124 821 Q124 850 143 872 Q162 894 198 894 Q230 894 251.5 876.5 Q273 859 273 821 Q273 788 254 767 Q235 746 199 746 Q178 746 163.5 752.5 Q149 759 140.5 770 Q132 781 128 794.5 Q124 808 124 821 Z " />
<glyph glyph-name="Igrave" unicode="&#xcc;" horiz-adv-x="355" d="M330 700 L330 681 L275 681 L275 19 L330 19 L330 0 L25 0 L25 19 L80 19 L80 681 L25 681 L25 700 L330 700 Z M272 743 L264 733 L105 798 Q85 806 73 821.5 Q61 837 61 856 Q61 871 71.5 885 Q82 899 109 901 L157 905 L272 743 Z " />
<glyph glyph-name="Iacute" unicode="&#xcd;" horiz-adv-x="355" d="M330 700 L330 681 L275 681 L275 19 L330 19 L330 0 L25 0 L25 19 L80 19 L80 681 L25 681 L25 700 L330 700 Z M204 905 L252 901 Q279 899 289.5 885 Q300 871 300 856 Q300 837 288 821.5 Q276 806 256 798 L97 733 L89 743 L204 905 Z " />
<glyph glyph-name="Icircumflex" unicode="&#xce;" horiz-adv-x="355" d="M330 700 L330 681 L275 681 L275 19 L330 19 L330 0 L25 0 L25 19 L80 19 L80 681 L25 681 L25 700 L330 700 Z M131 891 Q142 897 157 902 Q172 907 186 907 Q214 907 229.5 897 Q245 887 256 867 L330 743 L321 733 L179 801 L33 733 L25 743 L131 891 Z " />
<glyph glyph-name="Idieresis" unicode="&#xcf;" horiz-adv-x="355" d="M330 700 L330 681 L275 681 L275 19 L330 19 L330 0 L25 0 L25 19 L80 19 L80 681 L25 681 L25 700 L330 700 Z M199 821 Q199 850 218 872 Q237 894 273 894 Q305 894 326.5 876.5 Q348 859 348 821 Q348 788 329 767 Q310 746 274 746 Q253 746 238.5 752.5 Q224 759 215.5 770 Q207 781 203 794.5 Q199 808 199 821 Z M6 821 Q6 850 25 872 Q44 894 80 894 Q112 894 133.5 876.5 Q155 859 155 821 Q155 788 136 767 Q117 746 81 746 Q60 746 45.5 752.5 Q31 759 22.5 770 Q14 781 10 794.5 Q6 808 6 821 Z " />
<glyph glyph-name="Eth" unicode="&#xd0;" horiz-adv-x="763" d="M19 385 L95 385 L95 681 L29 681 L29 700 L338 700 Q431 700 502.5 682 Q574 664 622.5 624 Q671 584 696.5 519.5 Q722 455 722 362 Q722 256 691.5 186.5 Q661 117 606.5 75.5 Q552 34 477 17 Q402 0 312 0 L29 0 L29 19 L95 19 L95 359 L19 359 L19 385 Z M328 19 Q379 19 414.5 36 Q450 53 472.5 90.5 Q495 128 505.5 187 Q516 246 516 330 L516 388 Q516 479 504 536 Q492 593 467.5 625.5 Q443 658 405 669.5 Q367 681 314 681 L290 681 L290 385 L419 385 L419 359 L290 359 L290 19 L328 19 Z " />
<glyph glyph-name="Ntilde" unicode="&#xd1;" horiz-adv-x="670" d="M590 0 L450 0 L107 647 L107 19 L162 19 L162 0 L25 0 L25 19 L80 19 L80 681 L25 681 L25 700 L301 700 L563 198 L563 681 L508 681 L508 700 L645 700 L645 681 L590 681 L590 0 Z M413 752 Q393 752 372 758.5 Q351 765 331 772.5 Q311 780 292.5 786 Q274 792 259 792 Q248 792 231.5 785 Q215 778 204 751 L192 755 Q202 788 211 813.5 Q220 839 231.5 857 Q243 875 259 884 Q275 893 299 893 Q318 893 337.5 887 Q357 881 376 873.5 Q395 866 412.5 859.5 Q430 853 444 853 Q459 853 475.5 859.5 Q492 866 502 895 L515 891 Q505 851 494.5 824 Q484 797 472 781 Q460 765 445.5 758.5 Q431 752 413 752 Z " />
<glyph glyph-name="Ograve" unicode="&#xd2;" horiz-adv-x="748" d="M501 383 Q501 460 498 517.5 Q495 575 483 613.5 Q471 652 445.5 671 Q420 690 375 690 Q330 690 304 670 Q278 650 265 611 Q252 572 249 514 Q246 456 246 379 L246 307 Q246 237 249.5 181.5 Q253 126 266.5 88.5 Q280 51 305.5 31 Q331 11 375 11 Q417 11 442 29.5 Q467 48 480 85 Q493 122 497 178 Q501 234 501 309 L501 383 Z M41 339 Q41 425 63 494 Q85 563 128.5 611 Q172 659 235.5 685 Q299 711 383 711 Q544 711 625.5 616.5 Q707 522 707 352 Q707 268 687 201 Q667 134 625.5 87 Q584 40 521 15 Q458 -10 371 -10 Q204 -10 122.5 82 Q41 174 41 339 Z M471 743 L463 733 L304 798 Q284 806 272 821.5 Q260 837 260 856 Q260 871 270.5 885 Q281 899 308 901 L356 905 L471 743 Z " />
<glyph glyph-name="Oacute" unicode="&#xd3;" horiz-adv-x="748" d="M501 383 Q501 460 498 517.5 Q495 575 483 613.5 Q471 652 445.5 671 Q420 690 375 690 Q330 690 304 670 Q278 650 265 611 Q252 572 249 514 Q246 456 246 379 L246 307 Q246 237 249.5 181.5 Q253 126 266.5 88.5 Q280 51 305.5 31 Q331 11 375 11 Q417 11 442 29.5 Q467 48 480 85 Q493 122 497 178 Q501 234 501 309 L501 383 Z M41 339 Q41 425 63 494 Q85 563 128.5 611 Q172 659 235.5 685 Q299 711 383 711 Q544 711 625.5 616.5 Q707 522 707 352 Q707 268 687 201 Q667 134 625.5 87 Q584 40 521 15 Q458 -10 371 -10 Q204 -10 122.5 82 Q41 174 41 339 Z M403 905 L451 901 Q478 899 488.5 885 Q499 871 499 856 Q499 837 487 821.5 Q475 806 455 798 L296 733 L288 743 L403 905 Z " />
<glyph glyph-name="Ocircumflex" unicode="&#xd4;" horiz-adv-x="748" d="M501 383 Q501 460 498 517.5 Q495 575 483 613.5 Q471 652 445.5 671 Q420 690 375 690 Q330 690 304 670 Q278 650 265 611 Q252 572 249 514 Q246 456 246 379 L246 307 Q246 237 249.5 181.5 Q253 126 266.5 88.5 Q280 51 305.5 31 Q331 11 375 11 Q417 11 442 29.5 Q467 48 480 85 Q493 122 497 178 Q501 234 501 309 L501 383 Z M41 339 Q41 425 63 494 Q85 563 128.5 611 Q172 659 235.5 685 Q299 711 383 711 Q544 711 625.5 616.5 Q707 522 707 352 Q707 268 687 201 Q667 134 625.5 87 Q584 40 521 15 Q458 -10 371 -10 Q204 -10 122.5 82 Q41 174 41 339 Z M330 891 Q341 897 356 902 Q371 907 385 907 Q413 907 428.5 897 Q444 887 455 867 L529 743 L520 733 L378 801 L232 733 L224 743 L330 891 Z " />
<glyph glyph-name="Otilde" unicode="&#xd5;" horiz-adv-x="748" d="M501 383 Q501 460 498 517.5 Q495 575 483 613.5 Q471 652 445.5 671 Q420 690 375 690 Q330 690 304 670 Q278 650 265 611 Q252 572 249 514 Q246 456 246 379 L246 307 Q246 237 249.5 181.5 Q253 126 266.5 88.5 Q280 51 305.5 31 Q331 11 375 11 Q417 11 442 29.5 Q467 48 480 85 Q493 122 497 178 Q501 234 501 309 L501 383 Z M41 339 Q41 425 63 494 Q85 563 128.5 611 Q172 659 235.5 685 Q299 711 383 711 Q544 711 625.5 616.5 Q707 522 707 352 Q707 268 687 201 Q667 134 625.5 87 Q584 40 521 15 Q458 -10 371 -10 Q204 -10 122.5 82 Q41 174 41 339 Z M447 752 Q427 752 406 758.5 Q385 765 365 772.5 Q345 780 326.5 786 Q308 792 293 792 Q282 792 265.5 785 Q249 778 238 751 L226 755 Q236 788 245 813.5 Q254 839 265.5 857 Q277 875 293 884 Q309 893 333 893 Q352 893 371.5 887 Q391 881 410 873.5 Q429 866 446.5 859.5 Q464 853 478 853 Q493 853 509.5 859.5 Q526 866 536 895 L549 891 Q539 851 528.5 824 Q518 797 506 781 Q494 765 479.5 758.5 Q465 752 447 752 Z " />
<glyph glyph-name="Odieresis" unicode="&#xd6;" horiz-adv-x="748" d="M501 383 Q501 460 498 517.5 Q495 575 483 613.5 Q471 652 445.5 671 Q420 690 375 690 Q330 690 304 670 Q278 650 265 611 Q252 572 249 514 Q246 456 246 379 L246 307 Q246 237 249.5 181.5 Q253 126 266.5 88.5 Q280 51 305.5 31 Q331 11 375 11 Q417 11 442 29.5 Q467 48 480 85 Q493 122 497 178 Q501 234 501 309 L501 383 Z M41 339 Q41 425 63 494 Q85 563 128.5 611 Q172 659 235.5 685 Q299 711 383 711 Q544 711 625.5 616.5 Q707 522 707 352 Q707 268 687 201 Q667 134 625.5 87 Q584 40 521 15 Q458 -10 371 -10 Q204 -10 122.5 82 Q41 174 41 339 Z M398 821 Q398 850 417 872 Q436 894 472 894 Q504 894 525.5 876.5 Q547 859 547 821 Q547 788 528 767 Q509 746 473 746 Q452 746 437.5 752.5 Q423 759 414.5 770 Q406 781 402 794.5 Q398 808 398 821 Z M205 821 Q205 850 224 872 Q243 894 279 894 Q311 894 332.5 876.5 Q354 859 354 821 Q354 788 335 767 Q316 746 280 746 Q259 746 244.5 752.5 Q230 759 221.5 770 Q213 781 209 794.5 Q205 808 205 821 Z " />
<glyph glyph-name="multiply" unicode="&#xd7;" horiz-adv-x="530" d="M287 315 L435 167 L411 144 L264 291 L116 143 L92 167 L240 315 L93 463 L116 487 L264 339 L413 488 L437 464 L287 315 Z " />
<glyph glyph-name="Oslash" unicode="&#xd8;" horiz-adv-x="748" d="M41 339 Q41 425 63 494 Q85 563 128.5 611 Q172 659 235.5 685 Q299 711 383 711 Q442 711 488 698 L515 769 L540 759 L514 690 Q611 656 659 570 Q707 484 707 352 Q707 268 687 201 Q667 134 625.5 87 Q584 40 521 15 Q458 -10 371 -10 Q308 -10 254 4 L225 -74 L200 -64 L229 12 Q133 47 87 130 Q41 213 41 339 Z M501 383 Q501 458 498 515 Q495 572 484 610 L277 64 Q306 11 375 11 Q417 11 442 29.5 Q467 48 480 85 Q493 122 497 178 Q501 234 501 309 L501 383 Z M246 307 Q246 241 248.5 190 Q251 139 262 101 L468 645 Q454 668 432 679 Q410 690 375 690 Q330 690 304 670 Q278 650 265 611 Q252 572 249 514 Q246 456 246 379 L246 307 Z " />
<glyph glyph-name="Ugrave" unicode="&#xd9;" horiz-adv-x="683" d="M420 23 Q496 23 541 72.5 Q586 122 586 229 L586 681 L521 681 L521 700 L667 700 L667 681 L612 681 L612 236 Q612 178 601 132.5 Q590 87 561 55.5 Q532 24 482.5 7 Q433 -10 356 -10 Q295 -10 243.5 2 Q192 14 155 43.5 Q118 73 97 122.5 Q76 172 76 247 L76 681 L21 681 L21 700 L336 700 L336 681 L271 681 L271 213 Q271 172 277 137 Q283 102 299.5 76.5 Q316 51 345 37 Q374 23 420 23 Z M350 905 L302 901 Q275 899 264.5 885 Q254 871 254 856 Q254 837 266 821.5 Q278 806 298 798 L457 733 L465 743 L350 905 Z " />
<glyph glyph-name="Uacute" unicode="&#xda;" horiz-adv-x="683" d="M420 23 Q496 23 541 72.5 Q586 122 586 229 L586 681 L521 681 L521 700 L667 700 L667 681 L612 681 L612 236 Q612 178 601 132.5 Q590 87 561 55.5 Q532 24 482.5 7 Q433 -10 356 -10 Q295 -10 243.5 2 Q192 14 155 43.5 Q118 73 97 122.5 Q76 172 76 247 L76 681 L21 681 L21 700 L336 700 L336 681 L271 681 L271 213 Q271 172 277 137 Q283 102 299.5 76.5 Q316 51 345 37 Q374 23 420 23 Z M282 743 L290 733 L449 798 Q469 806 481 821.5 Q493 837 493 856 Q493 871 482.5 885 Q472 899 445 901 L397 905 L282 743 Z " />
<glyph glyph-name="Ucircumflex" unicode="&#xdb;" horiz-adv-x="683" d="M420 23 Q496 23 541 72.5 Q586 122 586 229 L586 681 L521 681 L521 700 L667 700 L667 681 L612 681 L612 236 Q612 178 601 132.5 Q590 87 561 55.5 Q532 24 482.5 7 Q433 -10 356 -10 Q295 -10 243.5 2 Q192 14 155 43.5 Q118 73 97 122.5 Q76 172 76 247 L76 681 L21 681 L21 700 L336 700 L336 681 L271 681 L271 213 Q271 172 277 137 Q283 102 299.5 76.5 Q316 51 345 37 Q374 23 420 23 Z M218 743 L226 733 L372 801 L514 733 L523 743 L449 867 Q438 887 422.5 897 Q407 907 379 907 Q365 907 350 902 Q335 897 324 891 L218 743 Z " />
<glyph glyph-name="Udieresis" unicode="&#xdc;" horiz-adv-x="683" d="M420 23 Q496 23 541 72.5 Q586 122 586 229 L586 681 L521 681 L521 700 L667 700 L667 681 L612 681 L612 236 Q612 178 601 132.5 Q590 87 561 55.5 Q532 24 482.5 7 Q433 -10 356 -10 Q295 -10 243.5 2 Q192 14 155 43.5 Q118 73 97 122.5 Q76 172 76 247 L76 681 L21 681 L21 700 L336 700 L336 681 L271 681 L271 213 Q271 172 277 137 Q283 102 299.5 76.5 Q316 51 345 37 Q374 23 420 23 Z M392 821 Q392 850 411 872 Q430 894 466 894 Q498 894 519.5 876.5 Q541 859 541 821 Q541 788 522 767 Q503 746 467 746 Q446 746 431.5 752.5 Q417 759 408.5 770 Q400 781 396 794.5 Q392 808 392 821 Z M199 821 Q199 850 218 872 Q237 894 273 894 Q305 894 326.5 876.5 Q348 859 348 821 Q348 788 329 767 Q310 746 274 746 Q253 746 238.5 752.5 Q224 759 215.5 770 Q207 781 203 794.5 Q199 808 199 821 Z " />
<glyph glyph-name="Yacute" unicode="&#xdd;" horiz-adv-x="641" d="M539 684 L438 684 L438 700 L635 700 L635 684 L569 684 L418 350 L418 19 L479 19 L479 0 L162 0 L162 19 L223 19 L223 331 L53 684 L6 684 L6 700 L326 700 L326 684 L261 684 L397 371 L539 684 Z M376 905 L424 901 Q451 899 461.5 885 Q472 871 472 856 Q472 837 460 821.5 Q448 806 428 798 L269 733 L261 743 L376 905 Z " />
<glyph glyph-name="Thorn" unicode="&#xde;" horiz-adv-x="634" d="M275 566 L309 566 Q380 566 435.5 557 Q491 548 529 525.5 Q567 503 587.5 464.5 Q608 426 608 367 Q608 303 584.5 261.5 Q561 220 518.5 196 Q476 172 416 162.5 Q356 153 283 153 L275 153 L275 19 L400 19 L400 0 L15 0 L15 19 L80 19 L80 681 L15 681 L15 700 L400 700 L400 681 L275 681 L275 566 Z M275 172 L296 172 Q359 172 380.5 215.5 Q402 259 402 346 L402 394 Q402 479 380.5 513 Q359 547 302 547 L275 547 L275 172 Z " />
<glyph glyph-name="germandbls" unicode="&#xdf;" horiz-adv-x="674" d="M307 169 L319 169 Q342 95 380 53.5 Q418 12 480 12 Q525 12 548.5 28 Q572 44 572 78 Q572 107 553 123.5 Q534 140 506 152 Q478 164 445 176.5 Q412 189 384 208.5 Q356 228 337 259.5 Q318 291 318 341 Q318 377 331.5 405.5 Q345 434 364.5 458.5 Q384 483 407.5 504 Q431 525 450.5 547 Q470 569 483.5 593 Q497 617 497 646 Q497 698 462.5 724.5 Q428 751 370 751 Q330 751 306.5 738.5 Q283 726 270.5 705.5 Q258 685 254.5 658.5 Q251 632 251 604 L251 0 L-11 0 L-11 18 L65 18 L65 469 Q65 557 87 615.5 Q109 674 147.5 709 Q186 744 238.5 758.5 Q291 773 353 773 Q404 773 437.5 762 Q471 751 490.5 733 Q510 715 518 693 Q526 671 526 649 Q526 609 507.5 579.5 Q489 550 467.5 526 Q446 502 427.5 480 Q409 458 409 431 Q409 406 427.5 391 Q446 376 474 364 Q502 352 534 338.5 Q566 325 594 303.5 Q622 282 640.5 248 Q659 214 659 161 Q659 122 645 90.5 Q631 59 607.5 36.5 Q584 14 553 2 Q522 -10 489 -10 Q453 -10 431 -3.5 Q409 3 381 19 Q369 26 362 28.5 Q355 31 350 31 Q340 31 332 22 Q324 13 319 -10 L307 -10 L307 169 Z " />
<glyph glyph-name="agrave" unicode="&#xe0;" horiz-adv-x="549" d="M279 235 L279 312 Q279 360 276.5 391 Q274 422 268.5 440 Q263 458 253 465 Q243 472 228 472 Q214 472 197.5 464 Q181 456 181 432 Q181 420 187 403 L212 403 Q216 393 218 382.5 Q220 372 220 358 Q220 323 195 301.5 Q170 280 132 280 Q85 280 65.5 303 Q46 326 46 363 Q46 426 99 456 Q152 486 255 486 Q314 486 354 477 Q394 468 419 446 Q444 424 454.5 387.5 Q465 351 465 297 L465 94 Q465 63 473 52.5 Q481 42 494 42 Q501 42 507.5 46.5 Q514 51 519 62 Q524 73 528 93.5 Q532 114 534 145 L549 144 Q547 99 539 69.5 Q531 40 515.5 22 Q500 4 476.5 -3 Q453 -10 421 -10 Q301 -10 283 64 Q271 28 246 9 Q221 -10 168 -10 Q142 -10 115.5 -5 Q89 0 68 13 Q47 26 33.5 50 Q20 74 20 111 Q20 149 36 173 Q52 197 81.5 211 Q111 225 153.5 230 Q196 235 250 235 L279 235 Z M236 30 Q250 30 264.5 54 Q279 78 279 126 L279 219 L272 219 Q210 219 210 128 L210 112 Q210 85 211.5 69 Q213 53 216 44 Q219 35 224 32.5 Q229 30 236 30 Z M326 547 L315 540 L181 651 Q165 665 158.5 677.5 Q152 690 152 704 Q152 724 167 740 Q182 756 216 748 L263 738 L326 547 Z " />
<glyph glyph-name="aacute" unicode="&#xe1;" horiz-adv-x="549" d="M279 235 L279 312 Q279 360 276.5 391 Q274 422 268.5 440 Q263 458 253 465 Q243 472 228 472 Q214 472 197.5 464 Q181 456 181 432 Q181 420 187 403 L212 403 Q216 393 218 382.5 Q220 372 220 358 Q220 323 195 301.5 Q170 280 132 280 Q85 280 65.5 303 Q46 326 46 363 Q46 426 99 456 Q152 486 255 486 Q314 486 354 477 Q394 468 419 446 Q444 424 454.5 387.5 Q465 351 465 297 L465 94 Q465 63 473 52.5 Q481 42 494 42 Q501 42 507.5 46.5 Q514 51 519 62 Q524 73 528 93.5 Q532 114 534 145 L549 144 Q547 99 539 69.5 Q531 40 515.5 22 Q500 4 476.5 -3 Q453 -10 421 -10 Q301 -10 283 64 Q271 28 246 9 Q221 -10 168 -10 Q142 -10 115.5 -5 Q89 0 68 13 Q47 26 33.5 50 Q20 74 20 111 Q20 149 36 173 Q52 197 81.5 211 Q111 225 153.5 230 Q196 235 250 235 L279 235 Z M236 30 Q250 30 264.5 54 Q279 78 279 126 L279 219 L272 219 Q210 219 210 128 L210 112 Q210 85 211.5 69 Q213 53 216 44 Q219 35 224 32.5 Q229 30 236 30 Z M251 738 L298 748 Q332 756 347 740 Q362 724 362 704 Q362 690 355.5 677.5 Q349 665 333 651 L199 540 L188 547 L251 738 Z " />
<glyph glyph-name="acircumflex" unicode="&#xe2;" horiz-adv-x="549" d="M279 235 L279 312 Q279 360 276.5 391 Q274 422 268.5 440 Q263 458 253 465 Q243 472 228 472 Q214 472 197.5 464 Q181 456 181 432 Q181 420 187 403 L212 403 Q216 393 218 382.5 Q220 372 220 358 Q220 323 195 301.5 Q170 280 132 280 Q85 280 65.5 303 Q46 326 46 363 Q46 426 99 456 Q152 486 255 486 Q314 486 354 477 Q394 468 419 446 Q444 424 454.5 387.5 Q465 351 465 297 L465 94 Q465 63 473 52.5 Q481 42 494 42 Q501 42 507.5 46.5 Q514 51 519 62 Q524 73 528 93.5 Q532 114 534 145 L549 144 Q547 99 539 69.5 Q531 40 515.5 22 Q500 4 476.5 -3 Q453 -10 421 -10 Q301 -10 283 64 Q271 28 246 9 Q221 -10 168 -10 Q142 -10 115.5 -5 Q89 0 68 13 Q47 26 33.5 50 Q20 74 20 111 Q20 149 36 173 Q52 197 81.5 211 Q111 225 153.5 230 Q196 235 250 235 L279 235 Z M236 30 Q250 30 264.5 54 Q279 78 279 126 L279 219 L272 219 Q210 219 210 128 L210 112 Q210 85 211.5 69 Q213 53 216 44 Q219 35 224 32.5 Q229 30 236 30 Z M210 722 Q221 728 236.5 733 Q252 738 269 738 Q293 738 308.5 725.5 Q324 713 333 690 L394 531 L383 524 L258 628 L133 523 L121 532 L210 722 Z " />
<glyph glyph-name="atilde" unicode="&#xe3;" horiz-adv-x="549" d="M279 235 L279 312 Q279 360 276.5 391 Q274 422 268.5 440 Q263 458 253 465 Q243 472 228 472 Q214 472 197.5 464 Q181 456 181 432 Q181 420 187 403 L212 403 Q216 393 218 382.5 Q220 372 220 358 Q220 323 195 301.5 Q170 280 132 280 Q85 280 65.5 303 Q46 326 46 363 Q46 426 99 456 Q152 486 255 486 Q314 486 354 477 Q394 468 419 446 Q444 424 454.5 387.5 Q465 351 465 297 L465 94 Q465 63 473 52.5 Q481 42 494 42 Q501 42 507.5 46.5 Q514 51 519 62 Q524 73 528 93.5 Q532 114 534 145 L549 144 Q547 99 539 69.5 Q531 40 515.5 22 Q500 4 476.5 -3 Q453 -10 421 -10 Q301 -10 283 64 Q271 28 246 9 Q221 -10 168 -10 Q142 -10 115.5 -5 Q89 0 68 13 Q47 26 33.5 50 Q20 74 20 111 Q20 149 36 173 Q52 197 81.5 211 Q111 225 153.5 230 Q196 235 250 235 L279 235 Z M236 30 Q250 30 264.5 54 Q279 78 279 126 L279 219 L272 219 Q210 219 210 128 L210 112 Q210 85 211.5 69 Q213 53 216 44 Q219 35 224 32.5 Q229 30 236 30 Z M321 563 Q301 563 280 569.5 Q259 576 239 583.5 Q219 591 200.5 597 Q182 603 167 603 Q156 603 139.5 596 Q123 589 112 562 L100 566 Q110 599 120.5 626 Q131 653 144.5 672 Q158 691 175.5 701.5 Q193 712 217 712 Q236 712 255.5 706 Q275 700 294 692.5 Q313 685 330.5 678.5 Q348 672 362 672 Q377 672 393.5 678.5 Q410 685 420 714 L433 710 Q413 629 385.5 596 Q358 563 321 563 Z " />
<glyph glyph-name="adieresis" unicode="&#xe4;" horiz-adv-x="549" d="M279 235 L279 312 Q279 360 276.5 391 Q274 422 268.5 440 Q263 458 253 465 Q243 472 228 472 Q214 472 197.5 464 Q181 456 181 432 Q181 420 187 403 L212 403 Q216 393 218 382.5 Q220 372 220 358 Q220 323 195 301.5 Q170 280 132 280 Q85 280 65.5 303 Q46 326 46 363 Q46 426 99 456 Q152 486 255 486 Q314 486 354 477 Q394 468 419 446 Q444 424 454.5 387.5 Q465 351 465 297 L465 94 Q465 63 473 52.5 Q481 42 494 42 Q501 42 507.5 46.5 Q514 51 519 62 Q524 73 528 93.5 Q532 114 534 145 L549 144 Q547 99 539 69.5 Q531 40 515.5 22 Q500 4 476.5 -3 Q453 -10 421 -10 Q301 -10 283 64 Q271 28 246 9 Q221 -10 168 -10 Q142 -10 115.5 -5 Q89 0 68 13 Q47 26 33.5 50 Q20 74 20 111 Q20 149 36 173 Q52 197 81.5 211 Q111 225 153.5 230 Q196 235 250 235 L279 235 Z M236 30 Q250 30 264.5 54 Q279 78 279 126 L279 219 L272 219 Q210 219 210 128 L210 112 Q210 85 211.5 69 Q213 53 216 44 Q219 35 224 32.5 Q229 30 236 30 Z M279 633 Q279 662 298 684 Q317 706 353 706 Q385 706 406.5 688.5 Q428 671 428 633 Q428 600 409 579 Q390 558 354 558 Q333 558 318.5 564.5 Q304 571 295.5 582 Q287 593 283 606.5 Q279 620 279 633 Z M86 633 Q86 662 105 684 Q124 706 160 706 Q192 706 213.5 688.5 Q235 671 235 633 Q235 600 216 579 Q197 558 161 558 Q140 558 125.5 564.5 Q111 571 102.5 582 Q94 593 90 606.5 Q86 620 86 633 Z " />
<glyph glyph-name="aring" unicode="&#xe5;" horiz-adv-x="549" d="M279 235 L279 312 Q279 360 276.5 391 Q274 422 268.5 440 Q263 458 253 465 Q243 472 228 472 Q214 472 197.5 464 Q181 456 181 432 Q181 420 187 403 L212 403 Q216 393 218 382.5 Q220 372 220 358 Q220 323 195 301.5 Q170 280 132 280 Q85 280 65.5 303 Q46 326 46 363 Q46 426 99 456 Q152 486 255 486 Q314 486 354 477 Q394 468 419 446 Q444 424 454.5 387.5 Q465 351 465 297 L465 94 Q465 63 473 52.5 Q481 42 494 42 Q501 42 507.5 46.5 Q514 51 519 62 Q524 73 528 93.5 Q532 114 534 145 L549 144 Q547 99 539 69.5 Q531 40 515.5 22 Q500 4 476.5 -3 Q453 -10 421 -10 Q301 -10 283 64 Q271 28 246 9 Q221 -10 168 -10 Q142 -10 115.5 -5 Q89 0 68 13 Q47 26 33.5 50 Q20 74 20 111 Q20 149 36 173 Q52 197 81.5 211 Q111 225 153.5 230 Q196 235 250 235 L279 235 Z M236 30 Q250 30 264.5 54 Q279 78 279 126 L279 219 L272 219 Q210 219 210 128 L210 112 Q210 85 211.5 69 Q213 53 216 44 Q219 35 224 32.5 Q229 30 236 30 Z M186 632 Q186 604 201 581.5 Q216 559 258 559 Q296 559 312.5 581 Q329 603 329 632 Q329 660 312 681.5 Q295 703 256 703 Q217 703 201.5 681 Q186 659 186 632 Z M156 632 Q156 671 181 699 Q206 727 259 727 Q309 727 333.5 701 Q358 675 358 634 Q358 590 332 562.5 Q306 535 257 535 Q203 535 179.5 562 Q156 589 156 632 Z " />
<glyph glyph-name="ae" unicode="&#xe6;" horiz-adv-x="772" d="M279 312 Q279 360 276.5 391 Q274 422 268.5 440 Q263 458 253 465 Q243 472 228 472 Q214 472 197.5 464 Q181 456 181 432 Q181 420 187 403 L212 403 Q216 393 218 382.5 Q220 372 220 358 Q220 323 195 301.5 Q170 280 132 280 Q85 280 65.5 303 Q46 326 46 363 Q46 395 60 418 Q74 441 99.5 456 Q125 471 160 478.5 Q195 486 237 486 Q296 486 331.5 470.5 Q367 455 389 423 Q413 455 454 470.5 Q495 486 541 486 Q650 486 700.5 428 Q751 370 746 258 L464 258 L464 219 Q464 175 469 138.5 Q474 102 487 76 Q500 50 523 35.5 Q546 21 582 21 Q638 21 674.5 54 Q711 87 728 145 L746 142 Q737 110 722 82 Q707 54 682 33.5 Q657 13 619.5 1.5 Q582 -10 529 -10 Q456 -10 406.5 11 Q357 32 328 70 Q322 57 311.5 43 Q301 29 283 17 Q265 5 238 -2.5 Q211 -10 173 -10 Q147 -10 119.5 -5 Q92 0 70 13 Q48 26 34 50 Q20 74 20 111 Q20 149 36 173 Q52 197 81.5 211 Q111 225 153.5 230 Q196 235 250 235 L279 235 L279 237 L279 312 Z M568 278 L568 327 Q568 406 559 436.5 Q550 467 519 467 Q493 467 479 437 Q465 407 465 327 L465 278 L568 278 Z M249 30 Q263 30 283 42.5 Q303 55 314 89 Q297 116 289 148.5 Q281 181 279 218 L279 219 L272 219 Q210 219 210 128 L210 112 Q210 85 212.5 69 Q215 53 220.5 44 Q226 35 233 32.5 Q240 30 249 30 Z " />
<glyph glyph-name="ccedilla" unicode="&#xe7;" horiz-adv-x="483" d="M290 468 Q247 468 227.5 420.5 Q208 373 208 261 L208 209 Q208 112 229 68 Q250 24 309 24 Q343 24 368 37 Q393 50 409.5 69.5 Q426 89 436 112 Q446 135 450 155 L468 153 Q463 131 453.5 104 Q444 77 423.5 53 Q403 29 369 11.5 Q335 -6 281 -9 L254 -55 Q259 -54 268.5 -53 Q278 -52 287 -52 Q343 -52 367.5 -76.5 Q392 -101 392 -141 Q392 -158 385 -176.5 Q378 -195 362.5 -210 Q347 -225 321 -235 Q295 -245 256 -245 Q209 -245 181 -226.5 Q153 -208 153 -179 Q153 -158 165 -146 Q177 -134 196 -134 Q215 -134 226 -146 Q237 -158 242 -172 L216 -192 Q216 -204 223 -216.5 Q230 -229 250 -229 Q269 -229 277.5 -212 Q286 -195 286 -152 Q286 -113 281.5 -91.5 Q277 -70 254 -70 Q240 -70 224 -74 L221 -65 L254 -10 Q138 -9 76.5 52.5 Q15 114 15 232 Q15 358 86.5 422 Q158 486 282 486 Q374 486 419.5 451 Q465 416 465 359 Q465 312 442.5 288.5 Q420 265 382 265 Q343 265 318 285.5 Q293 306 293 348 Q293 355 294 364 Q295 373 298 384 L331 384 Q338 404 338 420 Q338 446 324.5 457 Q311 468 290 468 Z " />
<glyph glyph-name="egrave" unicode="&#xe8;" horiz-adv-x="516" d="M15 237 Q15 302 35.5 349 Q56 396 91.5 426.5 Q127 457 173.5 471.5 Q220 486 272 486 Q390 486 442.5 428 Q495 370 490 258 L208 258 L208 219 Q208 175 213 138.5 Q218 102 231 76 Q244 50 267 35.5 Q290 21 326 21 Q382 21 418.5 54 Q455 87 472 145 L490 142 Q481 110 466 82 Q451 54 426 33.5 Q401 13 363.5 1.5 Q326 -10 273 -10 Q206 -10 157.5 8 Q109 26 77.5 59 Q46 92 30.5 137.5 Q15 183 15 237 Z M312 278 L312 327 Q312 406 303 436.5 Q294 467 263 467 Q237 467 223 437 Q209 407 209 327 L209 278 L312 278 Z M273 738 L226 748 Q192 756 177 740 Q162 724 162 704 Q162 690 168.5 677.5 Q175 665 191 651 L325 540 L336 547 L273 738 Z " />
<glyph glyph-name="eacute" unicode="&#xe9;" horiz-adv-x="516" d="M15 237 Q15 302 35.5 349 Q56 396 91.5 426.5 Q127 457 173.5 471.5 Q220 486 272 486 Q390 486 442.5 428 Q495 370 490 258 L208 258 L208 219 Q208 175 213 138.5 Q218 102 231 76 Q244 50 267 35.5 Q290 21 326 21 Q382 21 418.5 54 Q455 87 472 145 L490 142 Q481 110 466 82 Q451 54 426 33.5 Q401 13 363.5 1.5 Q326 -10 273 -10 Q206 -10 157.5 8 Q109 26 77.5 59 Q46 92 30.5 137.5 Q15 183 15 237 Z M312 278 L312 327 Q312 406 303 436.5 Q294 467 263 467 Q237 467 223 437 Q209 407 209 327 L209 278 L312 278 Z M198 547 L209 540 L343 651 Q359 665 365.5 677.5 Q372 690 372 704 Q372 724 357 740 Q342 756 308 748 L261 738 L198 547 Z " />
<glyph glyph-name="ecircumflex" unicode="&#xea;" horiz-adv-x="516" d="M15 237 Q15 302 35.5 349 Q56 396 91.5 426.5 Q127 457 173.5 471.5 Q220 486 272 486 Q390 486 442.5 428 Q495 370 490 258 L208 258 L208 219 Q208 175 213 138.5 Q218 102 231 76 Q244 50 267 35.5 Q290 21 326 21 Q382 21 418.5 54 Q455 87 472 145 L490 142 Q481 110 466 82 Q451 54 426 33.5 Q401 13 363.5 1.5 Q326 -10 273 -10 Q206 -10 157.5 8 Q109 26 77.5 59 Q46 92 30.5 137.5 Q15 183 15 237 Z M312 278 L312 327 Q312 406 303 436.5 Q294 467 263 467 Q237 467 223 437 Q209 407 209 327 L209 278 L312 278 Z M131 532 L143 523 L268 628 L393 524 L404 531 L343 690 Q334 713 318.5 725.5 Q303 738 279 738 Q262 738 246.5 733 Q231 728 220 722 L131 532 Z " />
<glyph glyph-name="edieresis" unicode="&#xeb;" horiz-adv-x="516" d="M15 237 Q15 302 35.5 349 Q56 396 91.5 426.5 Q127 457 173.5 471.5 Q220 486 272 486 Q390 486 442.5 428 Q495 370 490 258 L208 258 L208 219 Q208 175 213 138.5 Q218 102 231 76 Q244 50 267 35.5 Q290 21 326 21 Q382 21 418.5 54 Q455 87 472 145 L490 142 Q481 110 466 82 Q451 54 426 33.5 Q401 13 363.5 1.5 Q326 -10 273 -10 Q206 -10 157.5 8 Q109 26 77.5 59 Q46 92 30.5 137.5 Q15 183 15 237 Z M312 278 L312 327 Q312 406 303 436.5 Q294 467 263 467 Q237 467 223 437 Q209 407 209 327 L209 278 L312 278 Z M289 633 Q289 662 308 684 Q327 706 363 706 Q395 706 416.5 688.5 Q438 671 438 633 Q438 600 419 579 Q400 558 364 558 Q343 558 328.5 564.5 Q314 571 305.5 582 Q297 593 293 606.5 Q289 620 289 633 Z M96 633 Q96 662 115 684 Q134 706 170 706 Q202 706 223.5 688.5 Q245 671 245 633 Q245 600 226 579 Q207 558 171 558 Q150 558 135.5 564.5 Q121 571 112.5 582 Q104 593 100 606.5 Q96 620 96 633 Z " />
<glyph glyph-name="igrave" unicode="&#xec;" horiz-adv-x="317" d="M210 547 L199 540 L65 651 Q49 665 42.5 677.5 Q36 690 36 704 Q36 724 51 740 Q66 756 100 748 L147 738 L210 547 Z M251 476 L251 18 L307 18 L307 0 L10 0 L10 18 L65 18 L65 458 L6 458 L6 476 L251 476 Z " />
<glyph glyph-name="iacute" unicode="&#xed;" horiz-adv-x="317" d="M148 738 L195 748 Q229 756 244 740 Q259 724 259 704 Q259 690 252.5 677.5 Q246 665 230 651 L96 540 L85 547 L148 738 Z M251 476 L251 18 L307 18 L307 0 L10 0 L10 18 L65 18 L65 458 L6 458 L6 476 L251 476 Z " />
<glyph glyph-name="icircumflex" unicode="&#xee;" horiz-adv-x="317" d="M251 476 L251 18 L307 18 L307 0 L10 0 L10 18 L65 18 L65 458 L6 458 L6 476 L251 476 Z M93 722 Q104 728 119.5 733 Q135 738 152 738 Q176 738 191.5 725.5 Q207 713 216 690 L277 531 L266 524 L141 628 L16 523 L4 532 L93 722 Z " />
<glyph glyph-name="idieresis" unicode="&#xef;" horiz-adv-x="317" d="M169 633 Q169 662 188 684 Q207 706 243 706 Q275 706 296.5 688.5 Q318 671 318 633 Q318 600 299 579 Q280 558 244 558 Q223 558 208.5 564.5 Q194 571 185.5 582 Q177 593 173 606.5 Q169 620 169 633 Z M-24 633 Q-24 662 -5 684 Q14 706 50 706 Q82 706 103.5 688.5 Q125 671 125 633 Q125 600 106 579 Q87 558 51 558 Q30 558 15.5 564.5 Q1 571 -7.5 582 Q-16 593 -20 606.5 Q-24 620 -24 633 Z M251 476 L251 18 L307 18 L307 0 L10 0 L10 18 L65 18 L65 458 L6 458 L6 476 L251 476 Z " />
<glyph glyph-name="eth" unicode="&#xf0;" horiz-adv-x="560" d="M187 600 L293 669 Q263 706 214 728 Q165 750 89 749 L91 765 Q261 778 367 718 L473 788 L481 763 L390 703 Q466 649 503 556 Q540 463 540 332 Q540 267 530.5 205.5 Q521 144 492.5 96 Q464 48 412.5 19 Q361 -10 278 -10 Q147 -10 83.5 54 Q20 118 20 236 Q20 360 81 427 Q142 494 249 494 Q297 494 321.5 477.5 Q346 461 360 431 Q357 487 347 544.5 Q337 602 307 649 L195 575 L187 600 Z M344 282 Q344 323 342 357 Q340 391 333.5 415.5 Q327 440 314.5 454 Q302 468 281 468 Q258 468 244.5 454 Q231 440 224 415 Q217 390 215 354.5 Q213 319 213 277 L213 199 Q213 156 215 120.5 Q217 85 223.5 60 Q230 35 243.5 21.5 Q257 8 280 8 Q323 8 333.5 54 Q344 100 344 197 L344 282 Z " />
<glyph glyph-name="ntilde" unicode="&#xf1;" horiz-adv-x="616" d="M251 476 L251 384 Q257 403 267.5 421 Q278 439 295 453.5 Q312 468 337.5 477 Q363 486 400 486 Q470 486 512.5 448 Q555 410 555 319 L555 18 L611 18 L611 0 L328 0 L328 18 L369 18 L369 343 Q369 375 366.5 394 Q364 413 359.5 422.5 Q355 432 348 435 Q341 438 332 438 Q316 438 301.5 427 Q287 416 276 396.5 Q265 377 258 350.5 Q251 324 251 294 L251 18 L294 18 L294 0 L10 0 L10 18 L65 18 L65 458 L10 458 L10 476 L251 476 Z M369 563 Q349 563 328 569.5 Q307 576 287 583.5 Q267 591 248.5 597 Q230 603 215 603 Q204 603 187.5 596 Q171 589 160 562 L148 566 Q158 599 168.5 626 Q179 653 192.5 672 Q206 691 223.5 701.5 Q241 712 265 712 Q284 712 303.5 706 Q323 700 342 692.5 Q361 685 378.5 678.5 Q396 672 410 672 Q425 672 441.5 678.5 Q458 685 468 714 L481 710 Q461 629 433.5 596 Q406 563 369 563 Z " />
<glyph glyph-name="ograve" unicode="&#xf2;" horiz-adv-x="543" d="M333 282 Q333 323 331.5 357 Q330 391 324.5 415.5 Q319 440 307 454 Q295 468 274 468 Q251 468 238 454 Q225 440 219 415 Q213 390 211.5 354.5 Q210 319 210 277 L210 199 Q210 156 211.5 120.5 Q213 85 219 60 Q225 35 237.5 21.5 Q250 8 273 8 Q294 8 306 19.5 Q318 31 324 54 Q330 77 331.5 112.5 Q333 148 333 197 L333 282 Z M18 236 Q18 360 87 423 Q156 486 277 486 Q404 486 464.5 426.5 Q525 367 525 245 Q525 122 465 56 Q405 -10 271 -10 Q144 -10 81 54 Q18 118 18 236 Z M343 547 L332 540 L198 651 Q182 665 175.5 677.5 Q169 690 169 704 Q169 724 184 740 Q199 756 233 748 L280 738 L343 547 Z " />
<glyph glyph-name="oacute" unicode="&#xf3;" horiz-adv-x="543" d="M333 282 Q333 323 331.5 357 Q330 391 324.5 415.5 Q319 440 307 454 Q295 468 274 468 Q251 468 238 454 Q225 440 219 415 Q213 390 211.5 354.5 Q210 319 210 277 L210 199 Q210 156 211.5 120.5 Q213 85 219 60 Q225 35 237.5 21.5 Q250 8 273 8 Q294 8 306 19.5 Q318 31 324 54 Q330 77 331.5 112.5 Q333 148 333 197 L333 282 Z M18 236 Q18 360 87 423 Q156 486 277 486 Q404 486 464.5 426.5 Q525 367 525 245 Q525 122 465 56 Q405 -10 271 -10 Q144 -10 81 54 Q18 118 18 236 Z M268 738 L315 748 Q349 756 364 740 Q379 724 379 704 Q379 690 372.5 677.5 Q366 665 350 651 L216 540 L205 547 L268 738 Z " />
<glyph glyph-name="ocircumflex" unicode="&#xf4;" horiz-adv-x="543" d="M333 282 Q333 323 331.5 357 Q330 391 324.5 415.5 Q319 440 307 454 Q295 468 274 468 Q251 468 238 454 Q225 440 219 415 Q213 390 211.5 354.5 Q210 319 210 277 L210 199 Q210 156 211.5 120.5 Q213 85 219 60 Q225 35 237.5 21.5 Q250 8 273 8 Q294 8 306 19.5 Q318 31 324 54 Q330 77 331.5 112.5 Q333 148 333 197 L333 282 Z M18 236 Q18 360 87 423 Q156 486 277 486 Q404 486 464.5 426.5 Q525 367 525 245 Q525 122 465 56 Q405 -10 271 -10 Q144 -10 81 54 Q18 118 18 236 Z M227 722 Q238 728 253.5 733 Q269 738 286 738 Q310 738 325.5 725.5 Q341 713 350 690 L411 531 L400 524 L275 628 L150 523 L138 532 L227 722 Z " />
<glyph glyph-name="otilde" unicode="&#xf5;" horiz-adv-x="543" d="M333 282 Q333 323 331.5 357 Q330 391 324.5 415.5 Q319 440 307 454 Q295 468 274 468 Q251 468 238 454 Q225 440 219 415 Q213 390 211.5 354.5 Q210 319 210 277 L210 199 Q210 156 211.5 120.5 Q213 85 219 60 Q225 35 237.5 21.5 Q250 8 273 8 Q294 8 306 19.5 Q318 31 324 54 Q330 77 331.5 112.5 Q333 148 333 197 L333 282 Z M18 236 Q18 360 87 423 Q156 486 277 486 Q404 486 464.5 426.5 Q525 367 525 245 Q525 122 465 56 Q405 -10 271 -10 Q144 -10 81 54 Q18 118 18 236 Z M338 563 Q318 563 297 569.5 Q276 576 256 583.5 Q236 591 217.5 597 Q199 603 184 603 Q173 603 156.5 596 Q140 589 129 562 L117 566 Q127 599 137.5 626 Q148 653 161.5 672 Q175 691 192.5 701.5 Q210 712 234 712 Q253 712 272.5 706 Q292 700 311 692.5 Q330 685 347.5 678.5 Q365 672 379 672 Q394 672 410.5 678.5 Q427 685 437 714 L450 710 Q430 629 402.5 596 Q375 563 338 563 Z " />
<glyph glyph-name="odieresis" unicode="&#xf6;" horiz-adv-x="543" d="M333 282 Q333 323 331.5 357 Q330 391 324.5 415.5 Q319 440 307 454 Q295 468 274 468 Q251 468 238 454 Q225 440 219 415 Q213 390 211.5 354.5 Q210 319 210 277 L210 199 Q210 156 211.5 120.5 Q213 85 219 60 Q225 35 237.5 21.5 Q250 8 273 8 Q294 8 306 19.5 Q318 31 324 54 Q330 77 331.5 112.5 Q333 148 333 197 L333 282 Z M18 236 Q18 360 87 423 Q156 486 277 486 Q404 486 464.5 426.5 Q525 367 525 245 Q525 122 465 56 Q405 -10 271 -10 Q144 -10 81 54 Q18 118 18 236 Z M296 633 Q296 662 315 684 Q334 706 370 706 Q402 706 423.5 688.5 Q445 671 445 633 Q445 600 426 579 Q407 558 371 558 Q350 558 335.5 564.5 Q321 571 312.5 582 Q304 593 300 606.5 Q296 620 296 633 Z M103 633 Q103 662 122 684 Q141 706 177 706 Q209 706 230.5 688.5 Q252 671 252 633 Q252 600 233 579 Q214 558 178 558 Q157 558 142.5 564.5 Q128 571 119.5 582 Q111 593 107 606.5 Q103 620 103 633 Z " />
<glyph glyph-name="divide" unicode="&#xf7;" horiz-adv-x="530" d="M213 446 Q213 469 227 485 Q241 501 268 501 Q293 501 309 488 Q325 475 325 447 Q325 421 311 405.5 Q297 390 270 390 Q238 390 225.5 407.5 Q213 425 213 446 Z M213 192 Q213 215 227 231 Q241 247 268 247 Q293 247 309 234 Q325 221 325 193 Q325 167 311 151.5 Q297 136 270 136 Q238 136 225.5 153.5 Q213 171 213 192 Z M38 301 L38 334 L492 334 L492 301 L38 301 Z " />
<glyph glyph-name="oslash" unicode="&#xf8;" horiz-adv-x="546" d="M15 236 Q15 360 82.5 423 Q150 486 279 486 Q296 486 312.5 484.5 Q329 483 344 481 L370 550 L392 542 L367 477 Q531 439 531 245 Q531 121 469 55.5 Q407 -10 273 -10 Q225 -10 186 -1 L158 -75 L136 -67 L163 5 Q88 29 51.5 87.5 Q15 146 15 236 Z M339 282 Q339 312 338 339 Q337 366 334 389 L215 75 Q221 43 235 25.5 Q249 8 275 8 Q318 8 328.5 54 Q339 100 339 197 L339 282 Z M208 199 Q208 179 208 161 Q208 143 209 127 L324 429 Q316 448 305 458 Q294 468 276 468 Q253 468 239.5 454 Q226 440 219 415 Q212 390 210 354.5 Q208 319 208 277 L208 199 Z " />
<glyph glyph-name="ugrave" unicode="&#xf9;" horiz-adv-x="605" d="M367 0 L356 73 Q349 55 338.5 40 Q328 25 312 14 Q296 3 272.5 -3.5 Q249 -10 215 -10 Q145 -10 102.5 28 Q60 66 60 157 L60 458 L4 458 L4 476 L246 476 L246 133 Q246 101 248.5 82 Q251 63 255.5 52.5 Q260 42 267 38.5 Q274 35 283 35 Q313 35 333.5 65 Q354 95 354 152 L354 458 L308 458 L308 476 L540 476 L540 18 L595 18 L595 0 L367 0 Z M352 547 L341 540 L207 651 Q191 665 184.5 677.5 Q178 690 178 704 Q178 724 193 740 Q208 756 242 748 L289 738 L352 547 Z " />
<glyph glyph-name="uacute" unicode="&#xfa;" horiz-adv-x="605" d="M367 0 L356 73 Q349 55 338.5 40 Q328 25 312 14 Q296 3 272.5 -3.5 Q249 -10 215 -10 Q145 -10 102.5 28 Q60 66 60 157 L60 458 L4 458 L4 476 L246 476 L246 133 Q246 101 248.5 82 Q251 63 255.5 52.5 Q260 42 267 38.5 Q274 35 283 35 Q313 35 333.5 65 Q354 95 354 152 L354 458 L308 458 L308 476 L540 476 L540 18 L595 18 L595 0 L367 0 Z M286 738 L333 748 Q367 756 382 740 Q397 724 397 704 Q397 690 390.5 677.5 Q384 665 368 651 L234 540 L223 547 L286 738 Z " />
<glyph glyph-name="ucircumflex" unicode="&#xfb;" horiz-adv-x="605" d="M367 0 L356 73 Q349 55 338.5 40 Q328 25 312 14 Q296 3 272.5 -3.5 Q249 -10 215 -10 Q145 -10 102.5 28 Q60 66 60 157 L60 458 L4 458 L4 476 L246 476 L246 133 Q246 101 248.5 82 Q251 63 255.5 52.5 Q260 42 267 38.5 Q274 35 283 35 Q313 35 333.5 65 Q354 95 354 152 L354 458 L308 458 L308 476 L540 476 L540 18 L595 18 L595 0 L367 0 Z M245 722 Q256 728 271.5 733 Q287 738 304 738 Q328 738 343.5 725.5 Q359 713 368 690 L429 531 L418 524 L293 628 L168 523 L156 532 L245 722 Z " />
<glyph glyph-name="udieresis" unicode="&#xfc;" horiz-adv-x="605" d="M367 0 L356 73 Q349 55 338.5 40 Q328 25 312 14 Q296 3 272.5 -3.5 Q249 -10 215 -10 Q145 -10 102.5 28 Q60 66 60 157 L60 458 L4 458 L4 476 L246 476 L246 133 Q246 101 248.5 82 Q251 63 255.5 52.5 Q260 42 267 38.5 Q274 35 283 35 Q313 35 333.5 65 Q354 95 354 152 L354 458 L308 458 L308 476 L540 476 L540 18 L595 18 L595 0 L367 0 Z M314 633 Q314 662 333 684 Q352 706 388 706 Q420 706 441.5 688.5 Q463 671 463 633 Q463 600 444 579 Q425 558 389 558 Q368 558 353.5 564.5 Q339 571 330.5 582 Q322 593 318 606.5 Q314 620 314 633 Z M121 633 Q121 662 140 684 Q159 706 195 706 Q227 706 248.5 688.5 Q270 671 270 633 Q270 600 251 579 Q232 558 196 558 Q175 558 160.5 564.5 Q146 571 137.5 582 Q129 593 125 606.5 Q121 620 121 633 Z " />
<glyph glyph-name="yacute" unicode="&#xfd;" horiz-adv-x="532" d="M5 476 L295 476 L295 458 L241 458 L350 126 L466 458 L399 458 L399 476 L540 476 L540 458 L490 458 L303 -81 Q286 -129 267.5 -161.5 Q249 -194 227.5 -213.5 Q206 -233 181.5 -241.5 Q157 -250 127 -250 Q70 -250 36 -223.5 Q2 -197 2 -149 Q2 -111 24 -89.5 Q46 -68 82 -68 Q120 -68 142.5 -85 Q165 -102 165 -137 Q165 -152 159 -173 L124 -173 Q116 -196 121.5 -211 Q127 -226 149 -226 Q191 -226 222.5 -184.5 Q254 -143 283 -62 L305 0 L217 0 L46 458 L5 458 L5 476 Z M231 547 L242 540 L376 651 Q392 665 398.5 677.5 Q405 690 405 704 Q405 724 390 740 Q375 756 341 748 L294 738 L231 547 Z " />
<glyph glyph-name="thorn" unicode="&#xfe;" horiz-adv-x="588" d="M329 443 Q298 443 274.5 408.5 Q251 374 251 308 L251 122 Q251 82 268 50.5 Q285 19 316 19 Q353 19 364 66 Q375 113 375 217 L375 269 Q375 322 372.5 355.5 Q370 389 364.5 408.5 Q359 428 350.5 435.5 Q342 443 329 443 Z M65 732 L16 732 L16 750 L251 750 L251 400 Q268 438 298 462 Q328 486 385 486 Q471 486 519.5 425.5 Q568 365 568 237 Q568 108 516.5 49 Q465 -10 362 -10 Q311 -10 288 3 Q265 16 251 39 L251 -220 L380 -220 L380 -238 L10 -238 L10 -220 L65 -220 L65 732 Z " />
<glyph glyph-name="ydieresis" unicode="&#xff;" horiz-adv-x="532" d="M5 476 L295 476 L295 458 L241 458 L350 126 L466 458 L399 458 L399 476 L540 476 L540 458 L490 458 L303 -81 Q286 -129 267.5 -161.5 Q249 -194 227.5 -213.5 Q206 -233 181.5 -241.5 Q157 -250 127 -250 Q70 -250 36 -223.5 Q2 -197 2 -149 Q2 -111 24 -89.5 Q46 -68 82 -68 Q120 -68 142.5 -85 Q165 -102 165 -137 Q165 -152 159 -173 L124 -173 Q116 -196 121.5 -211 Q127 -226 149 -226 Q191 -226 222.5 -184.5 Q254 -143 283 -62 L305 0 L217 0 L46 458 L5 458 L5 476 Z M322 633 Q322 662 341 684 Q360 706 396 706 Q428 706 449.5 688.5 Q471 671 471 633 Q471 600 452 579 Q433 558 397 558 Q376 558 361.5 564.5 Q347 571 338.5 582 Q330 593 326 606.5 Q322 620 322 633 Z M129 633 Q129 662 148 684 Q167 706 203 706 Q235 706 256.5 688.5 Q278 671 278 633 Q278 600 259 579 Q240 558 204 558 Q183 558 168.5 564.5 Q154 571 145.5 582 Q137 593 133 606.5 Q129 620 129 633 Z " />
<glyph glyph-name="Amacron" unicode="&#x100;" horiz-adv-x="694" d="M359 235 L161 235 L84 19 L159 19 L159 0 L6 0 L6 19 L53 19 L308 706 L390 706 L642 19 L688 19 L688 0 L361 0 L361 19 L432 19 L359 235 Z M170 257 L351 257 L264 519 L170 257 Z M213 867 L485 867 L485 770 L213 770 L213 867 Z " />
<glyph glyph-name="amacron" unicode="&#x101;" horiz-adv-x="549" d="M279 235 L279 312 Q279 360 276.5 391 Q274 422 268.5 440 Q263 458 253 465 Q243 472 228 472 Q214 472 197.5 464 Q181 456 181 432 Q181 420 187 403 L212 403 Q216 393 218 382.5 Q220 372 220 358 Q220 323 195 301.5 Q170 280 132 280 Q85 280 65.5 303 Q46 326 46 363 Q46 426 99 456 Q152 486 255 486 Q314 486 354 477 Q394 468 419 446 Q444 424 454.5 387.5 Q465 351 465 297 L465 94 Q465 63 473 52.5 Q481 42 494 42 Q501 42 507.5 46.5 Q514 51 519 62 Q524 73 528 93.5 Q532 114 534 145 L549 144 Q547 99 539 69.5 Q531 40 515.5 22 Q500 4 476.5 -3 Q453 -10 421 -10 Q301 -10 283 64 Q271 28 246 9 Q221 -10 168 -10 Q142 -10 115.5 -5 Q89 0 68 13 Q47 26 33.5 50 Q20 74 20 111 Q20 149 36 173 Q52 197 81.5 211 Q111 225 153.5 230 Q196 235 250 235 L279 235 Z M236 30 Q250 30 264.5 54 Q279 78 279 126 L279 219 L272 219 Q210 219 210 128 L210 112 Q210 85 211.5 69 Q213 53 216 44 Q219 35 224 32.5 Q229 30 236 30 Z M121 662 L393 662 L393 567 L121 567 L121 662 Z " />
<glyph glyph-name="Abreve" unicode="&#x102;" horiz-adv-x="694" d="M359 235 L161 235 L84 19 L159 19 L159 0 L6 0 L6 19 L53 19 L308 706 L390 706 L642 19 L688 19 L688 0 L361 0 L361 19 L432 19 L359 235 Z M170 257 L351 257 L264 519 L170 257 Z M223 921 Q237 879 267 866 Q297 853 351 853 Q377 853 397.5 855 Q418 857 433.5 864.5 Q449 872 459.5 885.5 Q470 899 476 921 L491 918 Q487 882 478 850.5 Q469 819 452.5 795.5 Q436 772 410.5 759 Q385 746 349 746 Q310 746 285 759 Q260 772 244 795.5 Q228 819 220 850.5 Q212 882 207 918 L223 921 Z " />
<glyph glyph-name="abreve" unicode="&#x103;" horiz-adv-x="549" d="M279 235 L279 312 Q279 360 276.5 391 Q274 422 268.5 440 Q263 458 253 465 Q243 472 228 472 Q214 472 197.5 464 Q181 456 181 432 Q181 420 187 403 L212 403 Q216 393 218 382.5 Q220 372 220 358 Q220 323 195 301.5 Q170 280 132 280 Q85 280 65.5 303 Q46 326 46 363 Q46 426 99 456 Q152 486 255 486 Q314 486 354 477 Q394 468 419 446 Q444 424 454.5 387.5 Q465 351 465 297 L465 94 Q465 63 473 52.5 Q481 42 494 42 Q501 42 507.5 46.5 Q514 51 519 62 Q524 73 528 93.5 Q532 114 534 145 L549 144 Q547 99 539 69.5 Q531 40 515.5 22 Q500 4 476.5 -3 Q453 -10 421 -10 Q301 -10 283 64 Q271 28 246 9 Q221 -10 168 -10 Q142 -10 115.5 -5 Q89 0 68 13 Q47 26 33.5 50 Q20 74 20 111 Q20 149 36 173 Q52 197 81.5 211 Q111 225 153.5 230 Q196 235 250 235 L279 235 Z M236 30 Q250 30 264.5 54 Q279 78 279 126 L279 219 L272 219 Q210 219 210 128 L210 112 Q210 85 211.5 69 Q213 53 216 44 Q219 35 224 32.5 Q229 30 236 30 Z M131 724 Q145 682 175 669 Q205 656 259 656 Q285 656 305.5 658 Q326 660 341.5 667.5 Q357 675 367.5 688.5 Q378 702 384 724 L399 721 Q395 684 386 651 Q377 618 360.5 593.5 Q344 569 318.5 555 Q293 541 257 541 Q218 541 193 555 Q168 569 152.5 593.5 Q137 618 128.5 651 Q120 684 115 721 L131 724 Z " />
<glyph glyph-name="Aogonek" unicode="&#x104;" horiz-adv-x="694" d="M359 235 L161 235 L84 19 L159 19 L159 0 L6 0 L6 19 L53 19 L308 706 L390 706 L642 19 L688 19 L688 0 L577 0 Q543 -28 529 -63 Q515 -98 515 -147 Q515 -185 522.5 -197.5 Q530 -210 547 -210 Q573 -210 602 -167 L615 -175 Q606 -189 596 -203 Q586 -217 572 -227.5 Q558 -238 539.5 -244.5 Q521 -251 495 -251 Q453 -251 424 -231 Q395 -211 395 -168 Q395 -148 399.5 -131 Q404 -114 416 -97.5 Q428 -81 449.5 -64 Q471 -47 505 -26 L547 0 L361 0 L361 19 L432 19 L359 235 Z M170 257 L351 257 L264 519 L170 257 Z " />
<glyph glyph-name="aogonek" unicode="&#x105;" horiz-adv-x="549" d="M279 235 L279 312 Q279 360 276.5 391 Q274 422 268.5 440 Q263 458 253 465 Q243 472 228 472 Q214 472 197.5 464 Q181 456 181 432 Q181 420 187 403 L212 403 Q216 393 218 382.5 Q220 372 220 358 Q220 323 195 301.5 Q170 280 132 280 Q85 280 65.5 303 Q46 326 46 363 Q46 426 99 456 Q152 486 255 486 Q314 486 354 477 Q394 468 419 446 Q444 424 454.5 387.5 Q465 351 465 297 L465 94 Q465 63 473 52.5 Q481 42 494 42 Q501 42 507.5 46.5 Q514 51 519 62 Q524 73 528 93.5 Q532 114 534 145 L549 144 Q547 86 534.5 54 Q522 22 498 5 Q459 -21 443 -58.5 Q427 -96 427 -147 Q427 -185 434.5 -197.5 Q442 -210 459 -210 Q485 -210 514 -167 L527 -175 Q518 -189 508 -203 Q498 -217 484 -227.5 Q470 -238 451.5 -244.5 Q433 -251 407 -251 Q365 -251 336 -231 Q307 -211 307 -168 Q307 -148 311.5 -131 Q316 -114 328 -97.5 Q340 -81 361.5 -64 Q383 -47 417 -26 L445 -9 Q439 -9 433 -9.5 Q427 -10 421 -10 Q301 -10 283 64 Q271 28 246 9 Q221 -10 168 -10 Q142 -10 115.5 -5 Q89 0 68 13 Q47 26 33.5 50 Q20 74 20 111 Q20 149 36 173 Q52 197 81.5 211 Q111 225 153.5 230 Q196 235 250 235 L279 235 Z M236 30 Q250 30 264.5 54 Q279 78 279 126 L279 219 L272 219 Q210 219 210 128 L210 112 Q210 85 211.5 69 Q213 53 216 44 Q219 35 224 32.5 Q229 30 236 30 Z " />
<glyph glyph-name="Cacute" unicode="&#x106;" horiz-adv-x="690" d="M400 691 Q324 691 284.5 619 Q245 547 245 392 L245 313 Q245 244 255 188 Q265 132 285 92.5 Q305 53 335.5 31.5 Q366 10 407 10 Q468 10 517.5 68 Q567 126 609 224 L627 224 L620 1 L609 1 Q604 11 599 16 Q594 21 582 21 Q569 21 552 16 Q535 11 511 5.5 Q487 0 455.5 -5 Q424 -10 383 -10 Q304 -10 240.5 11 Q177 32 132.5 75.5 Q88 119 64.5 185 Q41 251 41 341 Q41 432 66 501 Q91 570 136.5 616.5 Q182 663 245.5 687 Q309 711 386 711 Q425 711 454 706 Q483 701 505 695.5 Q527 690 543.5 685 Q560 680 573 680 Q585 680 590 685 Q595 690 600 700 L611 700 L619 483 L601 483 Q580 529 558.5 567.5 Q537 606 512.5 633.5 Q488 661 460 676 Q432 691 400 691 Z M405 905 L453 901 Q480 899 490.5 885 Q501 871 501 856 Q501 837 489 821.5 Q477 806 457 798 L298 733 L290 743 L405 905 Z " />
<glyph glyph-name="cacute" unicode="&#x107;" horiz-adv-x="483" d="M290 468 Q247 468 227.5 420.5 Q208 373 208 261 L208 209 Q208 112 229 68 Q250 24 309 24 Q343 24 368 37 Q393 50 409.5 69.5 Q426 89 436 112 Q446 135 450 155 L468 153 Q463 130 452.5 101.5 Q442 73 419 48.5 Q396 24 357 7 Q318 -10 255 -10 Q139 -10 77 52 Q15 114 15 232 Q15 358 86.5 422 Q158 486 282 486 Q374 486 419.5 451 Q465 416 465 359 Q465 312 442.5 288.5 Q420 265 382 265 Q343 265 318 285.5 Q293 306 293 348 Q293 355 294 364 Q295 373 298 384 L331 384 Q338 404 338 420 Q338 446 324.5 457 Q311 468 290 468 Z M257 738 L304 748 Q338 756 353 740 Q368 724 368 704 Q368 690 361.5 677.5 Q355 665 339 651 L205 540 L194 547 L257 738 Z " />
<glyph glyph-name="Ccircumflex" unicode="&#x108;" horiz-adv-x="690" d="M400 691 Q324 691 284.5 619 Q245 547 245 392 L245 313 Q245 244 255 188 Q265 132 285 92.5 Q305 53 335.5 31.5 Q366 10 407 10 Q468 10 517.5 68 Q567 126 609 224 L627 224 L620 1 L609 1 Q604 11 599 16 Q594 21 582 21 Q569 21 552 16 Q535 11 511 5.5 Q487 0 455.5 -5 Q424 -10 383 -10 Q304 -10 240.5 11 Q177 32 132.5 75.5 Q88 119 64.5 185 Q41 251 41 341 Q41 432 66 501 Q91 570 136.5 616.5 Q182 663 245.5 687 Q309 711 386 711 Q425 711 454 706 Q483 701 505 695.5 Q527 690 543.5 685 Q560 680 573 680 Q585 680 590 685 Q595 690 600 700 L611 700 L619 483 L601 483 Q580 529 558.5 567.5 Q537 606 512.5 633.5 Q488 661 460 676 Q432 691 400 691 Z M332 891 Q343 897 358 902 Q373 907 387 907 Q415 907 430.5 897 Q446 887 457 867 L531 743 L522 733 L380 801 L234 733 L226 743 L332 891 Z " />
<glyph glyph-name="ccircumflex" unicode="&#x109;" horiz-adv-x="483" d="M290 468 Q247 468 227.5 420.5 Q208 373 208 261 L208 209 Q208 112 229 68 Q250 24 309 24 Q343 24 368 37 Q393 50 409.5 69.5 Q426 89 436 112 Q446 135 450 155 L468 153 Q463 130 452.5 101.5 Q442 73 419 48.5 Q396 24 357 7 Q318 -10 255 -10 Q139 -10 77 52 Q15 114 15 232 Q15 358 86.5 422 Q158 486 282 486 Q374 486 419.5 451 Q465 416 465 359 Q465 312 442.5 288.5 Q420 265 382 265 Q343 265 318 285.5 Q293 306 293 348 Q293 355 294 364 Q295 373 298 384 L331 384 Q338 404 338 420 Q338 446 324.5 457 Q311 468 290 468 Z M220 722 Q231 728 246.5 733 Q262 738 279 738 Q303 738 318.5 725.5 Q334 713 343 690 L404 531 L393 524 L268 628 L143 523 L131 532 L220 722 Z " />
<glyph glyph-name="Cdotaccent" unicode="&#x10a;" horiz-adv-x="690" d="M400 691 Q324 691 284.5 619 Q245 547 245 392 L245 313 Q245 244 255 188 Q265 132 285 92.5 Q305 53 335.5 31.5 Q366 10 407 10 Q468 10 517.5 68 Q567 126 609 224 L627 224 L620 1 L609 1 Q604 11 599 16 Q594 21 582 21 Q569 21 552 16 Q535 11 511 5.5 Q487 0 455.5 -5 Q424 -10 383 -10 Q304 -10 240.5 11 Q177 32 132.5 75.5 Q88 119 64.5 185 Q41 251 41 341 Q41 432 66 501 Q91 570 136.5 616.5 Q182 663 245.5 687 Q309 711 386 711 Q425 711 454 706 Q483 701 505 695.5 Q527 690 543.5 685 Q560 680 573 680 Q585 680 590 685 Q595 690 600 700 L611 700 L619 483 L601 483 Q580 529 558.5 567.5 Q537 606 512.5 633.5 Q488 661 460 676 Q432 691 400 691 Z M278 846 Q278 883 301 911 Q324 939 380 939 Q427 939 453 916 Q479 893 479 847 Q479 807 455.5 780 Q432 753 378 753 Q348 753 328.5 761.5 Q309 770 297.5 783.5 Q286 797 282 813.5 Q278 830 278 846 Z " />
<glyph glyph-name="cdotaccent" unicode="&#x10b;" horiz-adv-x="483" d="M290 468 Q247 468 227.5 420.5 Q208 373 208 261 L208 209 Q208 112 229 68 Q250 24 309 24 Q343 24 368 37 Q393 50 409.5 69.5 Q426 89 436 112 Q446 135 450 155 L468 153 Q463 130 452.5 101.5 Q442 73 419 48.5 Q396 24 357 7 Q318 -10 255 -10 Q139 -10 77 52 Q15 114 15 232 Q15 358 86.5 422 Q158 486 282 486 Q374 486 419.5 451 Q465 416 465 359 Q465 312 442.5 288.5 Q420 265 382 265 Q343 265 318 285.5 Q293 306 293 348 Q293 355 294 364 Q295 373 298 384 L331 384 Q338 404 338 420 Q338 446 324.5 457 Q311 468 290 468 Z M166 638 Q166 675 189 703 Q212 731 268 731 Q315 731 341 708 Q367 685 367 639 Q367 599 343.5 572 Q320 545 266 545 Q236 545 216.5 553.5 Q197 562 185.5 575.5 Q174 589 170 605.5 Q166 622 166 638 Z " />
<glyph glyph-name="Ccaron" unicode="&#x10c;" horiz-adv-x="690" d="M400 691 Q324 691 284.5 619 Q245 547 245 392 L245 313 Q245 244 255 188 Q265 132 285 92.5 Q305 53 335.5 31.5 Q366 10 407 10 Q468 10 517.5 68 Q567 126 609 224 L627 224 L620 1 L609 1 Q604 11 599 16 Q594 21 582 21 Q569 21 552 16 Q535 11 511 5.5 Q487 0 455.5 -5 Q424 -10 383 -10 Q304 -10 240.5 11 Q177 32 132.5 75.5 Q88 119 64.5 185 Q41 251 41 341 Q41 432 66 501 Q91 570 136.5 616.5 Q182 663 245.5 687 Q309 711 386 711 Q425 711 454 706 Q483 701 505 695.5 Q527 690 543.5 685 Q560 680 573 680 Q585 680 590 685 Q595 690 600 700 L611 700 L619 483 L601 483 Q580 529 558.5 567.5 Q537 606 512.5 633.5 Q488 661 460 676 Q432 691 400 691 Z M428 761 Q417 755 402 750 Q387 745 373 745 Q345 745 329.5 755 Q314 765 303 785 L229 909 L238 919 L380 851 L526 919 L534 909 L428 761 Z " />
<glyph glyph-name="ccaron" unicode="&#x10d;" horiz-adv-x="483" d="M290 468 Q247 468 227.5 420.5 Q208 373 208 261 L208 209 Q208 112 229 68 Q250 24 309 24 Q343 24 368 37 Q393 50 409.5 69.5 Q426 89 436 112 Q446 135 450 155 L468 153 Q463 130 452.5 101.5 Q442 73 419 48.5 Q396 24 357 7 Q318 -10 255 -10 Q139 -10 77 52 Q15 114 15 232 Q15 358 86.5 422 Q158 486 282 486 Q374 486 419.5 451 Q465 416 465 359 Q465 312 442.5 288.5 Q420 265 382 265 Q343 265 318 285.5 Q293 306 293 348 Q293 355 294 364 Q295 373 298 384 L331 384 Q338 404 338 420 Q338 446 324.5 457 Q311 468 290 468 Z M318 544 Q307 537 292 532.5 Q277 528 264 528 Q236 528 220 541 Q204 554 195 576 L131 735 L142 742 L268 636 L392 743 L404 734 L318 544 Z " />
<glyph glyph-name="Dcaron" unicode="&#x10e;" horiz-adv-x="755" d="M714 362 Q714 256 683.5 186.5 Q653 117 598.5 75.5 Q544 34 469 17 Q394 0 304 0 L21 0 L21 19 L87 19 L87 681 L21 681 L21 700 L330 700 Q423 700 494.5 682 Q566 664 614.5 624 Q663 584 688.5 519.5 Q714 455 714 362 Z M320 19 Q371 19 406.5 36 Q442 53 464.5 90.5 Q487 128 497.5 187 Q508 246 508 330 L508 388 Q508 479 496 536 Q484 593 459.5 625.5 Q435 658 397 669.5 Q359 681 306 681 L282 681 L282 19 L320 19 Z M382 761 Q371 755 356 750 Q341 745 327 745 Q299 745 283.5 755 Q268 765 257 785 L183 909 L192 919 L334 851 L480 919 L488 909 L382 761 Z " />
<glyph glyph-name="dcaron" unicode="&#x10f;" horiz-adv-x="664" d="M268 33 Q279 33 291 38.5 Q303 44 313.5 56.5 Q324 69 330.5 88.5 Q337 108 337 136 L337 354 Q337 395 321 426 Q305 457 272 457 Q235 457 224 410 Q213 363 213 259 L213 207 Q213 154 215.5 120.5 Q218 87 224.5 67.5 Q231 48 241.5 40.5 Q252 33 268 33 Z M339 70 Q323 32 291.5 11 Q260 -10 201 -10 Q117 -10 68.5 50 Q20 110 20 237 Q20 365 70.5 425.5 Q121 486 218 486 Q265 486 292.5 473 Q320 460 334 437 L334 732 L273 732 L273 750 L523 750 L523 18 L572 18 L572 0 L350 0 L339 70 Z M570 520 Q630 562 662 605.5 Q694 649 694 689 Q694 715 679 737 Q664 759 632 759 Q606 759 577 730 L555 708 Q572 693 586 675.5 Q600 658 600 635 Q600 615 591 587 Q582 559 558 533 L570 520 Z " />
<glyph glyph-name="Dcroat" unicode="&#x110;" horiz-adv-x="763" d="M19 385 L95 385 L95 681 L29 681 L29 700 L338 700 Q431 700 502.5 682 Q574 664 622.5 624 Q671 584 696.5 519.5 Q722 455 722 362 Q722 256 691.5 186.5 Q661 117 606.5 75.5 Q552 34 477 17 Q402 0 312 0 L29 0 L29 19 L95 19 L95 359 L19 359 L19 385 Z M328 19 Q379 19 414.5 36 Q450 53 472.5 90.5 Q495 128 505.5 187 Q516 246 516 330 L516 388 Q516 479 504 536 Q492 593 467.5 625.5 Q443 658 405 669.5 Q367 681 314 681 L290 681 L290 385 L419 385 L419 359 L290 359 L290 19 L328 19 Z " />
<glyph glyph-name="dcroat" unicode="&#x111;" horiz-adv-x="584" d="M339 70 Q323 32 291.5 11 Q260 -10 201 -10 Q117 -10 68.5 50 Q20 110 20 237 Q20 365 70.5 425.5 Q121 486 218 486 Q265 486 292.5 473 Q320 460 334 437 L334 585 L170 585 L170 606 L334 606 L334 732 L273 732 L273 750 L523 750 L523 606 L579 606 L579 585 L523 585 L523 18 L572 18 L572 0 L350 0 L339 70 Z M268 33 Q279 33 291 38.5 Q303 44 313.5 56.5 Q324 69 330.5 88.5 Q337 108 337 136 L337 354 Q337 395 321 426 Q305 457 272 457 Q235 457 224 410 Q213 363 213 259 L213 207 Q213 154 215.5 120.5 Q218 87 224.5 67.5 Q231 48 241.5 40.5 Q252 33 268 33 Z " />
<glyph glyph-name="Emacron" unicode="&#x112;" horiz-adv-x="624" d="M541 700 L551 502 L533 502 Q512 551 492 584.5 Q472 618 446.5 639 Q421 660 388 669 Q355 678 310 678 L275 678 L275 369 L309 369 Q358 369 389 406 Q420 443 433 500 L448 500 L448 204 L431 204 Q413 279 382.5 311 Q352 343 299 343 L275 343 L275 22 L313 22 Q361 22 401 37.5 Q441 53 472 79.5 Q503 106 525 141.5 Q547 177 558 218 L578 218 L570 0 L21 0 L21 22 L80 22 L80 678 L21 678 L21 700 L541 700 Z M159 867 L431 867 L431 770 L159 770 L159 867 Z " />
<glyph glyph-name="emacron" unicode="&#x113;" horiz-adv-x="516" d="M15 237 Q15 302 35.5 349 Q56 396 91.5 426.5 Q127 457 173.5 471.5 Q220 486 272 486 Q390 486 442.5 428 Q495 370 490 258 L208 258 L208 219 Q208 175 213 138.5 Q218 102 231 76 Q244 50 267 35.5 Q290 21 326 21 Q382 21 418.5 54 Q455 87 472 145 L490 142 Q481 110 466 82 Q451 54 426 33.5 Q401 13 363.5 1.5 Q326 -10 273 -10 Q206 -10 157.5 8 Q109 26 77.5 59 Q46 92 30.5 137.5 Q15 183 15 237 Z M312 278 L312 327 Q312 406 303 436.5 Q294 467 263 467 Q237 467 223 437 Q209 407 209 327 L209 278 L312 278 Z M131 567 L403 567 L403 662 L131 662 L131 567 Z " />
<glyph glyph-name="Ebreve" unicode="&#x114;" horiz-adv-x="624" d="M541 700 L551 502 L533 502 Q512 551 492 584.5 Q472 618 446.5 639 Q421 660 388 669 Q355 678 310 678 L275 678 L275 369 L309 369 Q358 369 389 406 Q420 443 433 500 L448 500 L448 204 L431 204 Q413 279 382.5 311 Q352 343 299 343 L275 343 L275 22 L313 22 Q361 22 401 37.5 Q441 53 472 79.5 Q503 106 525 141.5 Q547 177 558 218 L578 218 L570 0 L21 0 L21 22 L80 22 L80 678 L21 678 L21 700 L541 700 Z M173 921 Q187 879 217 866 Q247 853 301 853 Q327 853 347.5 855 Q368 857 383.5 864.5 Q399 872 409.5 885.5 Q420 899 426 921 L441 918 Q437 882 428 850.5 Q419 819 402.5 795.5 Q386 772 360.5 759 Q335 746 299 746 Q260 746 235 759 Q210 772 194 795.5 Q178 819 170 850.5 Q162 882 157 918 L173 921 Z " />
<glyph glyph-name="ebreve" unicode="&#x115;" horiz-adv-x="516" d="M15 237 Q15 302 35.5 349 Q56 396 91.5 426.5 Q127 457 173.5 471.5 Q220 486 272 486 Q390 486 442.5 428 Q495 370 490 258 L208 258 L208 219 Q208 175 213 138.5 Q218 102 231 76 Q244 50 267 35.5 Q290 21 326 21 Q382 21 418.5 54 Q455 87 472 145 L490 142 Q481 110 466 82 Q451 54 426 33.5 Q401 13 363.5 1.5 Q326 -10 273 -10 Q206 -10 157.5 8 Q109 26 77.5 59 Q46 92 30.5 137.5 Q15 183 15 237 Z M312 278 L312 327 Q312 406 303 436.5 Q294 467 263 467 Q237 467 223 437 Q209 407 209 327 L209 278 L312 278 Z M141 724 Q155 682 185 669 Q215 656 269 656 Q295 656 315.5 658 Q336 660 351.5 667.5 Q367 675 377.5 688.5 Q388 702 394 724 L409 721 Q405 684 396 651 Q387 618 370.5 593.5 Q354 569 328.5 555 Q303 541 267 541 Q228 541 203 555 Q178 569 162.5 593.5 Q147 618 138.5 651 Q130 684 125 721 L141 724 Z " />
<glyph glyph-name="Edotaccent" unicode="&#x116;" horiz-adv-x="624" d="M541 700 L551 502 L533 502 Q512 551 492 584.5 Q472 618 446.5 639 Q421 660 388 669 Q355 678 310 678 L275 678 L275 369 L309 369 Q358 369 389 406 Q420 443 433 500 L448 500 L448 204 L431 204 Q413 279 382.5 311 Q352 343 299 343 L275 343 L275 22 L313 22 Q361 22 401 37.5 Q441 53 472 79.5 Q503 106 525 141.5 Q547 177 558 218 L578 218 L570 0 L21 0 L21 22 L80 22 L80 678 L21 678 L21 700 L541 700 Z M200 846 Q200 883 223 911 Q246 939 302 939 Q349 939 375 916 Q401 893 401 847 Q401 807 377.5 780 Q354 753 300 753 Q270 753 250.5 761.5 Q231 770 219.5 783.5 Q208 797 204 813.5 Q200 830 200 846 Z " />
<glyph glyph-name="edotaccent" unicode="&#x117;" horiz-adv-x="516" d="M15 237 Q15 302 35.5 349 Q56 396 91.5 426.5 Q127 457 173.5 471.5 Q220 486 272 486 Q390 486 442.5 428 Q495 370 490 258 L208 258 L208 219 Q208 175 213 138.5 Q218 102 231 76 Q244 50 267 35.5 Q290 21 326 21 Q382 21 418.5 54 Q455 87 472 145 L490 142 Q481 110 466 82 Q451 54 426 33.5 Q401 13 363.5 1.5 Q326 -10 273 -10 Q206 -10 157.5 8 Q109 26 77.5 59 Q46 92 30.5 137.5 Q15 183 15 237 Z M312 278 L312 327 Q312 406 303 436.5 Q294 467 263 467 Q237 467 223 437 Q209 407 209 327 L209 278 L312 278 Z M167 638 Q167 675 190 703 Q213 731 269 731 Q316 731 342 708 Q368 685 368 639 Q368 599 344.5 572 Q321 545 267 545 Q237 545 217.5 553.5 Q198 562 186.5 575.5 Q175 589 171 605.5 Q167 622 167 638 Z " />
<glyph glyph-name="Eogonek" unicode="&#x118;" horiz-adv-x="624" d="M541 700 L551 502 L533 502 Q512 551 492 584.5 Q472 618 446.5 639 Q421 660 388 669 Q355 678 310 678 L275 678 L275 369 L309 369 Q358 369 389 406 Q420 443 433 500 L448 500 L448 204 L431 204 Q413 279 382.5 311 Q352 343 299 343 L275 343 L275 22 L313 22 Q361 22 401 37.5 Q441 53 472 79.5 Q503 106 525 141.5 Q547 177 558 218 L578 218 L570 0 L501 0 Q466 -28 452 -63 Q438 -98 438 -147 Q438 -185 445.5 -197.5 Q453 -210 470 -210 Q496 -210 525 -167 L538 -175 Q529 -189 519 -203 Q509 -217 495 -227.5 Q481 -238 462.5 -244.5 Q444 -251 418 -251 Q376 -251 347 -231 Q318 -211 318 -168 Q318 -148 322.5 -131 Q327 -114 339 -97.5 Q351 -81 372.5 -64 Q394 -47 428 -26 L470 0 L21 0 L21 22 L80 22 L80 678 L21 678 L21 700 L541 700 Z " />
<glyph glyph-name="eogonek" unicode="&#x119;" horiz-adv-x="516" d="M15 237 Q15 302 35.5 349 Q56 396 91.5 426.5 Q127 457 173.5 471.5 Q220 486 272 486 Q390 486 442.5 428 Q495 370 490 258 L208 258 L208 219 Q208 175 213 138.5 Q218 102 231 76 Q244 50 267 35.5 Q290 21 326 21 Q382 21 418.5 54 Q455 87 472 145 L490 142 Q479 99 457.5 67 Q436 35 394 11 Q353 -13 336.5 -54.5 Q320 -96 320 -147 Q320 -185 327.5 -197.5 Q335 -210 352 -210 Q378 -210 407 -167 L420 -175 Q411 -189 401 -203 Q391 -217 377 -227.5 Q363 -238 344.5 -244.5 Q326 -251 300 -251 Q258 -251 229 -231 Q200 -211 200 -168 Q200 -148 205 -131 Q210 -114 222 -98 Q234 -82 254.5 -65 Q275 -48 306 -27 L341 -3 Q326 -6 309 -8 Q292 -10 273 -10 Q206 -10 157.5 8 Q109 26 77.5 59 Q46 92 30.5 137.5 Q15 183 15 237 Z M312 278 L312 327 Q312 406 303 436.5 Q294 467 263 467 Q237 467 223 437 Q209 407 209 327 L209 278 L312 278 Z " />
<glyph glyph-name="Ecaron" unicode="&#x11a;" horiz-adv-x="624" d="M541 700 L551 502 L533 502 Q512 551 492 584.5 Q472 618 446.5 639 Q421 660 388 669 Q355 678 310 678 L275 678 L275 369 L309 369 Q358 369 389 406 Q420 443 433 500 L448 500 L448 204 L431 204 Q413 279 382.5 311 Q352 343 299 343 L275 343 L275 22 L313 22 Q361 22 401 37.5 Q441 53 472 79.5 Q503 106 525 141.5 Q547 177 558 218 L578 218 L570 0 L21 0 L21 22 L80 22 L80 678 L21 678 L21 700 L541 700 Z M345 761 Q334 755 319 750 Q304 745 290 745 Q262 745 246.5 755 Q231 765 220 785 L146 909 L155 919 L297 851 L443 919 L451 909 L345 761 Z " />
<glyph glyph-name="ecaron" unicode="&#x11b;" horiz-adv-x="516" d="M15 237 Q15 302 35.5 349 Q56 396 91.5 426.5 Q127 457 173.5 471.5 Q220 486 272 486 Q390 486 442.5 428 Q495 370 490 258 L208 258 L208 219 Q208 175 213 138.5 Q218 102 231 76 Q244 50 267 35.5 Q290 21 326 21 Q382 21 418.5 54 Q455 87 472 145 L490 142 Q481 110 466 82 Q451 54 426 33.5 Q401 13 363.5 1.5 Q326 -10 273 -10 Q206 -10 157.5 8 Q109 26 77.5 59 Q46 92 30.5 137.5 Q15 183 15 237 Z M312 278 L312 327 Q312 406 303 436.5 Q294 467 263 467 Q237 467 223 437 Q209 407 209 327 L209 278 L312 278 Z M405 734 L393 743 L269 636 L143 742 L132 735 L196 576 Q205 554 221 541 Q237 528 265 528 Q278 528 293 532.5 Q308 537 319 544 L405 734 Z " />
<glyph glyph-name="Gcircumflex" unicode="&#x11c;" horiz-adv-x="723" d="M390 10 Q416 10 431.5 15 Q447 20 454.5 30 Q462 40 464 55 Q466 70 466 89 L466 283 L402 283 L402 305 L690 305 L690 283 L651 283 L651 1 L636 1 Q627 14 616.5 20 Q606 26 585 26 Q570 26 549 20.5 Q528 15 502 8 Q476 1 446 -4.5 Q416 -10 383 -10 Q304 -10 240.5 11 Q177 32 132.5 75.5 Q88 119 64.5 185 Q41 251 41 341 Q41 432 66 501 Q91 570 136.5 616.5 Q182 663 245.5 687 Q309 711 386 711 Q425 711 455 706 Q485 701 508.5 695.5 Q532 690 549 685 Q566 680 579 680 Q591 680 596 685 Q601 690 606 700 L617 700 L625 483 L607 483 Q586 525 563 563 Q540 601 514.5 629.5 Q489 658 460 674.5 Q431 691 398 691 Q324 691 284.5 619 Q245 547 245 392 L245 313 Q245 160 283 85 Q321 10 390 10 Z M333 891 Q344 897 359 902 Q374 907 388 907 Q416 907 431.5 897 Q447 887 458 867 L532 743 L523 733 L381 801 L235 733 L227 743 L333 891 Z " />
<glyph glyph-name="gcircumflex" unicode="&#x11d;" horiz-adv-x="522" d="M111 532 L123 523 L248 643 L346 583 L357 590 L319 685 Q310 707 296 719 Q282 731 259 731 Q242 731 228 726 Q214 721 203 715 L111 532 Z M439 545 Q441 557 436 566.5 Q431 576 415 576 Q410 576 402.5 574.5 Q395 573 388.5 566.5 Q382 560 377 546.5 Q372 533 372 510 Q372 484 379 450 Q408 431 431.5 402 Q455 373 455 323 Q455 238 399 195 Q343 152 251 152 Q229 152 207.5 154.5 Q186 157 170 160 Q144 143 135 134 Q126 125 126 118 Q126 111 138 107.5 Q150 104 190 104 L292 104 Q334 104 375 97.5 Q416 91 448 73.5 Q480 56 499.5 24 Q519 -8 519 -59 Q519 -101 503.5 -136 Q488 -171 454 -196.5 Q420 -222 366.5 -236 Q313 -250 237 -250 Q107 -250 48.5 -221 Q-10 -192 -10 -143 Q-10 -124 -3 -110.5 Q4 -97 15.5 -88 Q27 -79 40.5 -73 Q54 -67 67 -63 L127 -90 Q122 -107 120.5 -120 Q119 -133 119 -145 Q119 -161 124 -176.5 Q129 -192 143 -204 Q157 -216 182 -223.5 Q207 -231 247 -231 Q327 -231 368 -202 Q409 -173 409 -125 Q409 -107 404 -94.5 Q399 -82 385 -73.5 Q371 -65 346 -61.5 Q321 -58 282 -58 L185 -58 Q140 -58 111 -49.5 Q82 -41 65 -28 Q48 -15 41 2 Q34 19 34 35 Q34 56 41 73 Q48 90 62 105 Q76 120 97.5 134.5 Q119 149 148 167 Q89 184 60.5 220 Q32 256 32 319 Q32 354 44.5 384.5 Q57 415 83.5 437.5 Q110 460 150.5 473 Q191 486 248 486 Q285 486 309.5 480.5 Q334 475 359 461 Q353 488 353 510 Q353 541 362.5 561.5 Q372 582 386.5 594 Q401 606 418.5 611 Q436 616 451 616 Q486 616 509 597 Q532 578 532 542 Q532 507 513 491.5 Q494 476 469 476 Q446 476 429.5 489 Q413 502 411 528 L439 545 Z M199 287 Q199 252 202 229.5 Q205 207 211 194.5 Q217 182 226 177 Q235 172 246 172 Q256 172 264 176 Q272 180 278 193 Q284 206 287 229.5 Q290 253 290 292 L290 341 Q290 383 287 408 Q284 433 278.5 446.5 Q273 460 265 464 Q257 468 247 468 Q237 468 228 463.5 Q219 459 212.5 445.5 Q206 432 202.5 407 Q199 382 199 341 L199 287 Z " />
<glyph glyph-name="Gbreve" unicode="&#x11e;" horiz-adv-x="723" d="M390 10 Q416 10 431.5 15 Q447 20 454.5 30 Q462 40 464 55 Q466 70 466 89 L466 283 L402 283 L402 305 L690 305 L690 283 L651 283 L651 1 L636 1 Q627 14 616.5 20 Q606 26 585 26 Q570 26 549 20.5 Q528 15 502 8 Q476 1 446 -4.5 Q416 -10 383 -10 Q304 -10 240.5 11 Q177 32 132.5 75.5 Q88 119 64.5 185 Q41 251 41 341 Q41 432 66 501 Q91 570 136.5 616.5 Q182 663 245.5 687 Q309 711 386 711 Q425 711 455 706 Q485 701 508.5 695.5 Q532 690 549 685 Q566 680 579 680 Q591 680 596 685 Q601 690 606 700 L617 700 L625 483 L607 483 Q586 525 563 563 Q540 601 514.5 629.5 Q489 658 460 674.5 Q431 691 398 691 Q324 691 284.5 619 Q245 547 245 392 L245 313 Q245 160 283 85 Q321 10 390 10 Z M253 921 Q267 879 297 866 Q327 853 381 853 Q407 853 427.5 855 Q448 857 463.5 864.5 Q479 872 489.5 885.5 Q500 899 506 921 L521 918 Q517 882 508 850.5 Q499 819 482.5 795.5 Q466 772 440.5 759 Q415 746 379 746 Q340 746 315 759 Q290 772 274 795.5 Q258 819 250 850.5 Q242 882 237 918 L253 921 Z " />
<glyph glyph-name="gbreve" unicode="&#x11f;" horiz-adv-x="522" d="M439 545 Q441 557 436 566.5 Q431 576 415 576 Q410 576 402.5 574.5 Q395 573 388.5 566.5 Q382 560 377 546.5 Q372 533 372 510 Q372 484 379 450 Q408 431 431.5 402 Q455 373 455 323 Q455 238 399 195 Q343 152 251 152 Q229 152 207.5 154.5 Q186 157 170 160 Q144 143 135 134 Q126 125 126 118 Q126 111 138 107.5 Q150 104 190 104 L292 104 Q334 104 375 97.5 Q416 91 448 73.5 Q480 56 499.5 24 Q519 -8 519 -59 Q519 -101 503.5 -136 Q488 -171 454 -196.5 Q420 -222 366.5 -236 Q313 -250 237 -250 Q107 -250 48.5 -221 Q-10 -192 -10 -143 Q-10 -124 -3 -110.5 Q4 -97 15.5 -88 Q27 -79 40.5 -73 Q54 -67 67 -63 L127 -90 Q122 -107 120.5 -120 Q119 -133 119 -145 Q119 -161 124 -176.5 Q129 -192 143 -204 Q157 -216 182 -223.5 Q207 -231 247 -231 Q327 -231 368 -202 Q409 -173 409 -125 Q409 -107 404 -94.5 Q399 -82 385 -73.5 Q371 -65 346 -61.5 Q321 -58 282 -58 L185 -58 Q140 -58 111 -49.5 Q82 -41 65 -28 Q48 -15 41 2 Q34 19 34 35 Q34 56 41 73 Q48 90 62 105 Q76 120 97.5 134.5 Q119 149 148 167 Q89 184 60.5 220 Q32 256 32 319 Q32 354 44.5 384.5 Q57 415 83.5 437.5 Q110 460 150.5 473 Q191 486 248 486 Q285 486 309.5 480.5 Q334 475 359 461 Q353 488 353 510 Q353 541 362.5 561.5 Q372 582 386.5 594 Q401 606 418.5 611 Q436 616 451 616 Q486 616 509 597 Q532 578 532 542 Q532 507 513 491.5 Q494 476 469 476 Q446 476 429.5 489 Q413 502 411 528 L439 545 Z M199 287 Q199 252 202 229.5 Q205 207 211 194.5 Q217 182 226 177 Q235 172 246 172 Q256 172 264 176 Q272 180 278 193 Q284 206 287 229.5 Q290 253 290 292 L290 341 Q290 383 287 408 Q284 433 278.5 446.5 Q273 460 265 464 Q257 468 247 468 Q237 468 228 463.5 Q219 459 212.5 445.5 Q206 432 202.5 407 Q199 382 199 341 L199 287 Z M121 724 Q135 682 165 669 Q195 656 249 656 Q275 656 295.5 658 Q316 660 331.5 667.5 Q347 675 357.5 688.5 Q368 702 374 724 L389 721 Q385 684 376 651 Q367 618 350.5 593.5 Q334 569 308.5 555 Q283 541 247 541 Q208 541 183 555 Q158 569 142.5 593.5 Q127 618 118.5 651 Q110 684 105 721 L121 724 Z " />
<glyph glyph-name="Gdotaccent" unicode="&#x120;" horiz-adv-x="723" d="M390 10 Q416 10 431.5 15 Q447 20 454.5 30 Q462 40 464 55 Q466 70 466 89 L466 283 L402 283 L402 305 L690 305 L690 283 L651 283 L651 1 L636 1 Q627 14 616.5 20 Q606 26 585 26 Q570 26 549 20.5 Q528 15 502 8 Q476 1 446 -4.5 Q416 -10 383 -10 Q304 -10 240.5 11 Q177 32 132.5 75.5 Q88 119 64.5 185 Q41 251 41 341 Q41 432 66 501 Q91 570 136.5 616.5 Q182 663 245.5 687 Q309 711 386 711 Q425 711 455 706 Q485 701 508.5 695.5 Q532 690 549 685 Q566 680 579 680 Q591 680 596 685 Q601 690 606 700 L617 700 L625 483 L607 483 Q586 525 563 563 Q540 601 514.5 629.5 Q489 658 460 674.5 Q431 691 398 691 Q324 691 284.5 619 Q245 547 245 392 L245 313 Q245 160 283 85 Q321 10 390 10 Z M279 846 Q279 883 302 911 Q325 939 381 939 Q428 939 454 916 Q480 893 480 847 Q480 807 456.5 780 Q433 753 379 753 Q349 753 329.5 761.5 Q310 770 298.5 783.5 Q287 797 283 813.5 Q279 830 279 846 Z " />
<glyph glyph-name="gdotaccent" unicode="&#x121;" horiz-adv-x="522" d="M439 545 Q441 557 436 566.5 Q431 576 415 576 Q410 576 402.5 574.5 Q395 573 388.5 566.5 Q382 560 377 546.5 Q372 533 372 510 Q372 484 379 450 Q408 431 431.5 402 Q455 373 455 323 Q455 238 399 195 Q343 152 251 152 Q229 152 207.5 154.5 Q186 157 170 160 Q144 143 135 134 Q126 125 126 118 Q126 111 138 107.5 Q150 104 190 104 L292 104 Q334 104 375 97.5 Q416 91 448 73.5 Q480 56 499.5 24 Q519 -8 519 -59 Q519 -101 503.5 -136 Q488 -171 454 -196.5 Q420 -222 366.5 -236 Q313 -250 237 -250 Q107 -250 48.5 -221 Q-10 -192 -10 -143 Q-10 -124 -3 -110.5 Q4 -97 15.5 -88 Q27 -79 40.5 -73 Q54 -67 67 -63 L127 -90 Q122 -107 120.5 -120 Q119 -133 119 -145 Q119 -161 124 -176.5 Q129 -192 143 -204 Q157 -216 182 -223.5 Q207 -231 247 -231 Q327 -231 368 -202 Q409 -173 409 -125 Q409 -107 404 -94.5 Q399 -82 385 -73.5 Q371 -65 346 -61.5 Q321 -58 282 -58 L185 -58 Q140 -58 111 -49.5 Q82 -41 65 -28 Q48 -15 41 2 Q34 19 34 35 Q34 56 41 73 Q48 90 62 105 Q76 120 97.5 134.5 Q119 149 148 167 Q89 184 60.5 220 Q32 256 32 319 Q32 354 44.5 384.5 Q57 415 83.5 437.5 Q110 460 150.5 473 Q191 486 248 486 Q285 486 309.5 480.5 Q334 475 359 461 Q353 488 353 510 Q353 541 362.5 561.5 Q372 582 386.5 594 Q401 606 418.5 611 Q436 616 451 616 Q486 616 509 597 Q532 578 532 542 Q532 507 513 491.5 Q494 476 469 476 Q446 476 429.5 489 Q413 502 411 528 L439 545 Z M199 287 Q199 252 202 229.5 Q205 207 211 194.5 Q217 182 226 177 Q235 172 246 172 Q256 172 264 176 Q272 180 278 193 Q284 206 287 229.5 Q290 253 290 292 L290 341 Q290 383 287 408 Q284 433 278.5 446.5 Q273 460 265 464 Q257 468 247 468 Q237 468 228 463.5 Q219 459 212.5 445.5 Q206 432 202.5 407 Q199 382 199 341 L199 287 Z M147 638 Q147 675 170 703 Q193 731 249 731 Q296 731 322 708 Q348 685 348 639 Q348 599 324.5 572 Q301 545 247 545 Q217 545 197.5 553.5 Q178 562 166.5 575.5 Q155 589 151 605.5 Q147 622 147 638 Z " />
<glyph glyph-name="Gcommaaccent" unicode="&#x122;" horiz-adv-x="723" d="M390 10 Q416 10 431.5 15 Q447 20 454.5 30 Q462 40 464 55 Q466 70 466 89 L466 283 L402 283 L402 305 L690 305 L690 283 L651 283 L651 1 L636 1 Q627 14 616.5 20 Q606 26 585 26 Q570 26 549 20.5 Q528 15 502 8 Q476 1 446 -4.5 Q416 -10 383 -10 Q304 -10 240.5 11 Q177 32 132.5 75.5 Q88 119 64.5 185 Q41 251 41 341 Q41 432 66 501 Q91 570 136.5 616.5 Q182 663 245.5 687 Q309 711 386 711 Q425 711 455 706 Q485 701 508.5 695.5 Q532 690 549 685 Q566 680 579 680 Q591 680 596 685 Q601 690 606 700 L617 700 L625 483 L607 483 Q586 525 563 563 Q540 601 514.5 629.5 Q489 658 460 674.5 Q431 691 398 691 Q324 691 284.5 619 Q245 547 245 392 L245 313 Q245 160 283 85 Q321 10 390 10 Z M340 -275 Q378 -246 390.5 -226 Q403 -206 403 -192 Q403 -178 398 -170.5 Q393 -163 385 -159 L354 -190 Q337 -184 321 -168 Q305 -152 305 -123 Q305 -89 324.5 -71.5 Q344 -54 376 -54 Q414 -54 433.5 -78.5 Q453 -103 453 -145 Q453 -187 428.5 -223 Q404 -259 351 -290 L340 -275 Z " />
<glyph glyph-name="gcommaaccent" unicode="&#x123;" horiz-adv-x="522" d="M439 545 Q441 557 436 566.5 Q431 576 415 576 Q410 576 402.5 574.5 Q395 573 388.5 566.5 Q382 560 377 546.5 Q372 533 372 510 Q372 484 379 450 Q408 431 431.5 402 Q455 373 455 323 Q455 238 399 195 Q343 152 251 152 Q229 152 207.5 154.5 Q186 157 170 160 Q144 143 135 134 Q126 125 126 118 Q126 111 138 107.5 Q150 104 190 104 L292 104 Q334 104 375 97.5 Q416 91 448 73.5 Q480 56 499.5 24 Q519 -8 519 -59 Q519 -101 503.5 -136 Q488 -171 454 -196.5 Q420 -222 366.5 -236 Q313 -250 237 -250 Q107 -250 48.5 -221 Q-10 -192 -10 -143 Q-10 -124 -3 -110.5 Q4 -97 15.5 -88 Q27 -79 40.5 -73 Q54 -67 67 -63 L127 -90 Q122 -107 120.5 -120 Q119 -133 119 -145 Q119 -161 124 -176.5 Q129 -192 143 -204 Q157 -216 182 -223.5 Q207 -231 247 -231 Q327 -231 368 -202 Q409 -173 409 -125 Q409 -107 404 -94.5 Q399 -82 385 -73.5 Q371 -65 346 -61.5 Q321 -58 282 -58 L185 -58 Q140 -58 111 -49.5 Q82 -41 65 -28 Q48 -15 41 2 Q34 19 34 35 Q34 56 41 73 Q48 90 62 105 Q76 120 97.5 134.5 Q119 149 148 167 Q89 184 60.5 220 Q32 256 32 319 Q32 354 44.5 384.5 Q57 415 83.5 437.5 Q110 460 150.5 473 Q191 486 248 486 Q285 486 309.5 480.5 Q334 475 359 461 Q353 488 353 510 Q353 541 362.5 561.5 Q372 582 386.5 594 Q401 606 418.5 611 Q436 616 451 616 Q486 616 509 597 Q532 578 532 542 Q532 507 513 491.5 Q494 476 469 476 Q446 476 429.5 489 Q413 502 411 528 L439 545 Z M199 287 Q199 252 202 229.5 Q205 207 211 194.5 Q217 182 226 177 Q235 172 246 172 Q256 172 264 176 Q272 180 278 193 Q284 206 287 229.5 Q290 253 290 292 L290 341 Q290 383 287 408 Q284 433 278.5 446.5 Q273 460 265 464 Q257 468 247 468 Q237 468 228 463.5 Q219 459 212.5 445.5 Q206 432 202.5 407 Q199 382 199 341 L199 287 Z M275 776 Q222 745 197.5 709 Q173 673 173 631 Q173 589 192.5 564.5 Q212 540 250 540 Q282 540 301.5 557.5 Q321 575 321 609 Q321 638 305 654 Q289 670 272 676 L241 645 Q233 649 228 656.5 Q223 664 223 678 Q223 692 235.5 712 Q248 732 286 761 L275 776 Z " />
<glyph glyph-name="Hcircumflex" unicode="&#x124;" horiz-adv-x="749" d="M333 700 L333 681 L275 681 L275 371 L474 371 L474 681 L415 681 L415 700 L728 700 L728 681 L669 681 L669 19 L728 19 L728 0 L415 0 L415 19 L474 19 L474 345 L275 345 L275 19 L333 19 L333 0 L21 0 L21 19 L80 19 L80 681 L21 681 L21 700 L333 700 Z M328 891 Q339 897 354 902 Q369 907 383 907 Q411 907 426.5 897 Q442 887 453 867 L527 743 L518 733 L376 801 L230 733 L222 743 L328 891 Z " />
<glyph glyph-name="hcircumflex" unicode="&#x125;" horiz-adv-x="616" d="M251 750 L251 384 Q257 403 267.5 421 Q278 439 295 453.5 Q312 468 337.5 477 Q363 486 400 486 Q470 486 512.5 448 Q555 410 555 319 L555 18 L611 18 L611 0 L328 0 L328 18 L369 18 L369 343 Q369 375 366.5 394 Q364 413 359.5 422.5 Q355 432 348 435 Q341 438 332 438 Q316 438 301.5 427 Q287 416 276 396.5 Q265 377 258 350.5 Q251 324 251 294 L251 18 L294 18 L294 0 L10 0 L10 18 L65 18 L65 732 L10 732 L10 750 L251 750 Z M93 928 Q104 934 119 939 Q134 944 148 944 Q176 944 191.5 934 Q207 924 218 904 L292 780 L283 770 L141 838 L-5 770 L-13 780 L93 928 Z " />
<glyph glyph-name="Hbar" unicode="&#x126;" horiz-adv-x="749" d="M333 700 L333 681 L275 681 L275 534 L474 534 L474 681 L415 681 L415 700 L728 700 L728 681 L669 681 L669 534 L738 534 L738 508 L669 508 L669 19 L728 19 L728 0 L415 0 L415 19 L474 19 L474 345 L275 345 L275 19 L333 19 L333 0 L21 0 L21 19 L80 19 L80 508 L11 508 L11 534 L80 534 L80 681 L21 681 L21 700 L333 700 Z M474 371 L474 508 L275 508 L275 371 L474 371 Z " />
<glyph glyph-name="hbar" unicode="&#x127;" horiz-adv-x="616" d="M251 750 L251 606 L422 606 L422 585 L251 585 L251 384 Q257 403 267.5 421 Q278 439 295 453.5 Q312 468 337.5 477 Q363 486 400 486 Q470 486 512.5 448 Q555 410 555 319 L555 18 L611 18 L611 0 L328 0 L328 18 L369 18 L369 343 Q369 375 366.5 394 Q364 413 359.5 422.5 Q355 432 348 435 Q341 438 332 438 Q316 438 301.5 427 Q287 416 276 396.5 Q265 377 258 350.5 Q251 324 251 294 L251 18 L294 18 L294 0 L10 0 L10 18 L65 18 L65 585 L3 585 L3 606 L65 606 L65 732 L10 732 L10 750 L251 750 Z " />
<glyph glyph-name="Itilde" unicode="&#x128;" horiz-adv-x="355" d="M330 700 L330 681 L275 681 L275 19 L330 19 L330 0 L25 0 L25 19 L80 19 L80 681 L25 681 L25 700 L330 700 Z M248 752 Q228 752 207 758.5 Q186 765 166 772.5 Q146 780 127.5 786 Q109 792 94 792 Q83 792 66.5 785 Q50 778 39 751 L27 755 Q37 788 46 813.5 Q55 839 66.5 857 Q78 875 94 884 Q110 893 134 893 Q153 893 172.5 887 Q192 881 211 873.5 Q230 866 247.5 859.5 Q265 853 279 853 Q294 853 310.5 859.5 Q327 866 337 895 L350 891 Q340 851 329.5 824 Q319 797 307 781 Q295 765 280.5 758.5 Q266 752 248 752 Z " />
<glyph glyph-name="itilde" unicode="&#x129;" horiz-adv-x="317" d="M205 548 Q185 548 164 554.5 Q143 561 123 568.5 Q103 576 84.5 582 Q66 588 51 588 Q40 588 23.5 581 Q7 574 -4 547 L-16 551 Q-6 584 4.5 611 Q15 638 28.5 657 Q42 676 59.5 686.5 Q77 697 101 697 Q120 697 139.5 691 Q159 685 178 677.5 Q197 670 214.5 663.5 Q232 657 246 657 Q261 657 277.5 663.5 Q294 670 304 699 L317 695 Q297 614 269.5 581 Q242 548 205 548 Z M251 476 L251 18 L307 18 L307 0 L10 0 L10 18 L65 18 L65 458 L6 458 L6 476 L251 476 Z " />
<glyph glyph-name="Imacron" unicode="&#x12a;" horiz-adv-x="355" d="M330 700 L330 681 L275 681 L275 19 L330 19 L330 0 L25 0 L25 19 L80 19 L80 681 L25 681 L25 700 L330 700 Z M41 867 L313 867 L313 770 L41 770 L41 867 Z " />
<glyph glyph-name="imacron" unicode="&#x12b;" horiz-adv-x="317" d="M0 647 L272 647 L272 552 L0 552 L0 647 Z M251 476 L251 18 L307 18 L307 0 L10 0 L10 18 L65 18 L65 458 L6 458 L6 476 L251 476 Z " />
<glyph glyph-name="Ibreve" unicode="&#x12c;" horiz-adv-x="355" d="M330 700 L330 681 L275 681 L275 19 L330 19 L330 0 L25 0 L25 19 L80 19 L80 681 L25 681 L25 700 L330 700 Z M51 921 Q65 879 95 866 Q125 853 179 853 Q205 853 225.5 855 Q246 857 261.5 864.5 Q277 872 287.5 885.5 Q298 899 304 921 L319 918 Q315 882 306 850.5 Q297 819 280.5 795.5 Q264 772 238.5 759 Q213 746 177 746 Q138 746 113 759 Q88 772 72 795.5 Q56 819 48 850.5 Q40 882 35 918 L51 921 Z " />
<glyph glyph-name="ibreve" unicode="&#x12d;" horiz-adv-x="317" d="M17 709 Q31 667 61 654 Q91 641 145 641 Q171 641 191.5 643 Q212 645 227.5 652.5 Q243 660 253.5 673.5 Q264 687 270 709 L285 706 Q281 669 272 636 Q263 603 246.5 578.5 Q230 554 204.5 540 Q179 526 143 526 Q104 526 79 540 Q54 554 38.5 578.5 Q23 603 14.5 636 Q6 669 1 706 L17 709 Z M251 476 L251 18 L307 18 L307 0 L10 0 L10 18 L65 18 L65 458 L6 458 L6 476 L251 476 Z " />
<glyph glyph-name="Iogonek" unicode="&#x12e;" horiz-adv-x="355" d="M330 700 L330 681 L275 681 L275 19 L330 19 L330 0 L227 0 Q193 -28 179 -63 Q165 -98 165 -147 Q165 -185 172.5 -197.5 Q180 -210 197 -210 Q223 -210 252 -167 L265 -175 Q256 -189 246 -203 Q236 -217 222 -227.5 Q208 -238 189.5 -244.5 Q171 -251 145 -251 Q103 -251 74 -231 Q45 -211 45 -168 Q45 -148 49.5 -131 Q54 -114 66 -97.5 Q78 -81 99.5 -64 Q121 -47 155 -26 L197 0 L25 0 L25 19 L80 19 L80 681 L25 681 L25 700 L330 700 Z " />
<glyph glyph-name="iogonek" unicode="&#x12f;" horiz-adv-x="317" d="M251 476 L251 18 L307 18 L307 0 L208 0 Q174 -28 160 -63 Q146 -98 146 -147 Q146 -185 153.5 -197.5 Q161 -210 178 -210 Q204 -210 233 -167 L246 -175 Q237 -189 227 -203 Q217 -217 203 -227.5 Q189 -238 170.5 -244.5 Q152 -251 126 -251 Q84 -251 55 -231 Q26 -211 26 -168 Q26 -148 30.5 -131 Q35 -114 47 -97.5 Q59 -81 80.5 -64 Q102 -47 136 -26 L178 0 L10 0 L10 18 L65 18 L65 458 L6 458 L6 476 L251 476 Z M50 638 Q50 675 73 703 Q96 731 152 731 Q199 731 225 708 Q251 685 251 639 Q251 599 227.5 572 Q204 545 150 545 Q120 545 100.5 553.5 Q81 562 69.5 575.5 Q58 589 54 605.5 Q50 622 50 638 Z " />
<glyph glyph-name="Idotaccent" unicode="&#x130;" horiz-adv-x="355" d="M330 700 L330 681 L275 681 L275 19 L330 19 L330 0 L25 0 L25 19 L80 19 L80 681 L25 681 L25 700 L330 700 Z M77 846 Q77 883 100 911 Q123 939 179 939 Q226 939 252 916 Q278 893 278 847 Q278 807 254.5 780 Q231 753 177 753 Q147 753 127.5 761.5 Q108 770 96.5 783.5 Q85 797 81 813.5 Q77 830 77 846 Z " />
<glyph glyph-name="dotlessi" unicode="&#x131;" horiz-adv-x="317" d="M251 476 L251 18 L307 18 L307 0 L10 0 L10 18 L65 18 L65 458 L6 458 L6 476 L251 476 Z " />
<glyph glyph-name="IJ" unicode="&#x132;" horiz-adv-x="862" d="M330 700 L330 681 L275 681 L275 19 L330 19 L330 0 L25 0 L25 19 L80 19 L80 681 L25 681 L25 700 L330 700 Z M846 700 L846 681 L791 681 L791 249 Q791 111 728.5 51 Q666 -9 547 -9 Q466 -9 418.5 21.5 Q371 52 371 109 Q371 152 395 176.5 Q419 201 460 201 Q504 201 523.5 179 Q543 157 543 124 Q543 100 532 70 L493 70 Q484 55 484 44 Q484 28 497.5 18.5 Q511 9 533 9 Q553 9 565.5 15.5 Q578 22 584.5 40.5 Q591 59 593.5 92 Q596 125 596 177 L596 681 L521 681 L521 700 L846 700 Z " />
<glyph glyph-name="ij" unicode="&#x133;" horiz-adv-x="623" d="M59 638 Q59 675 82 703 Q105 731 161 731 Q208 731 234 708 Q260 685 260 639 Q260 599 236.5 572 Q213 545 159 545 Q129 545 109.5 553.5 Q90 562 78.5 575.5 Q67 589 63 605.5 Q59 622 59 638 Z M251 476 L251 18 L307 18 L307 0 L10 0 L10 18 L65 18 L65 458 L6 458 L6 476 L251 476 Z M568 86 Q568 8 555 -54.5 Q542 -117 513.5 -160.5 Q485 -204 439 -227 Q393 -250 327 -250 Q282 -250 251 -240 Q220 -230 201.5 -214 Q183 -198 175 -178 Q167 -158 167 -139 Q167 -94 194 -71.5 Q221 -49 259 -49 Q299 -49 317.5 -71.5 Q336 -94 336 -126 Q336 -137 334 -148 Q332 -159 330 -168 L292 -168 Q275 -195 287.5 -214 Q300 -233 326 -233 Q343 -233 354 -225.5 Q365 -218 371 -198.5 Q377 -179 379.5 -144.5 Q382 -110 382 -56 L382 458 L317 458 L317 476 L568 476 L568 86 Z M375 638 Q375 675 398 703 Q421 731 477 731 Q524 731 550 708 Q576 685 576 639 Q576 599 552.5 572 Q529 545 475 545 Q445 545 425.5 553.5 Q406 562 394.5 575.5 Q383 589 379 605.5 Q375 622 375 638 Z " />
<glyph glyph-name="Jcircumflex" unicode="&#x134;" horiz-adv-x="507" d="M491 700 L491 681 L436 681 L436 249 Q436 111 373.5 51 Q311 -9 192 -9 Q111 -9 63.5 21.5 Q16 52 16 109 Q16 152 40 176.5 Q64 201 105 201 Q149 201 168.5 179 Q188 157 188 124 Q188 100 177 70 L138 70 Q129 55 129 44 Q129 28 142.5 18.5 Q156 9 178 9 Q198 9 210.5 15.5 Q223 22 229.5 40.5 Q236 59 238.5 92 Q241 125 241 177 L241 681 L166 681 L166 700 L491 700 Z M279 891 Q290 897 305 902 Q320 907 334 907 Q362 907 377.5 897 Q393 887 404 867 L478 743 L469 733 L327 801 L181 733 L173 743 L279 891 Z " />
<glyph glyph-name="jcircumflex" unicode="&#x135;" horiz-adv-x="306" d="M251 86 Q251 8 238 -54.5 Q225 -117 196.5 -160.5 Q168 -204 122 -227 Q76 -250 10 -250 Q-35 -250 -66 -240 Q-97 -230 -115.5 -214 Q-134 -198 -142 -178 Q-150 -158 -150 -139 Q-150 -94 -123 -71.5 Q-96 -49 -58 -49 Q-18 -49 0.5 -71.5 Q19 -94 19 -126 Q19 -137 17 -148 Q15 -159 13 -168 L-25 -168 Q-42 -195 -29.5 -214 Q-17 -233 9 -233 Q26 -233 37 -225.5 Q48 -218 54 -198.5 Q60 -179 62.5 -144.5 Q65 -110 65 -56 L65 458 L0 458 L0 476 L251 476 L251 86 Z M87 722 Q98 728 113.5 733 Q129 738 146 738 Q170 738 185.5 725.5 Q201 713 210 690 L271 531 L260 524 L135 628 L10 523 L-2 532 L87 722 Z " />
<glyph glyph-name="Kcommaaccent" unicode="&#x136;" horiz-adv-x="734" d="M330 700 L330 681 L275 681 L275 365 L283 367 L565 681 L486 681 L486 700 L661 700 L661 681 L601 681 L429 489 L669 19 L723 19 L723 0 L402 0 L402 19 L449 19 L284 338 L275 336 L275 19 L330 19 L330 0 L25 0 L25 19 L80 19 L80 681 L25 681 L25 700 L330 700 Z M304 -275 Q342 -246 354.5 -226 Q367 -206 367 -192 Q367 -178 362 -170.5 Q357 -163 349 -159 L318 -190 Q301 -184 285 -168 Q269 -152 269 -123 Q269 -89 288.5 -71.5 Q308 -54 340 -54 Q378 -54 397.5 -78.5 Q417 -103 417 -145 Q417 -187 392.5 -223 Q368 -259 315 -290 L304 -275 Z " />
<glyph glyph-name="kcommaaccent" unicode="&#x137;" horiz-adv-x="620" d="M337 18 L383 18 L270 250 L251 245 L251 18 L297 18 L297 0 L10 0 L10 18 L65 18 L65 732 L6 732 L6 750 L251 750 L251 265 L267 271 L492 458 L398 458 L398 476 L595 476 L595 458 L525 458 L406 357 L579 18 L615 18 L615 0 L337 0 L337 18 Z M264 -275 Q302 -246 314.5 -226 Q327 -206 327 -192 Q327 -178 322 -170.5 Q317 -163 309 -159 L278 -190 Q261 -184 245 -168 Q229 -152 229 -123 Q229 -89 248.5 -71.5 Q268 -54 300 -54 Q338 -54 357.5 -78.5 Q377 -103 377 -145 Q377 -187 352.5 -223 Q328 -259 275 -290 L264 -275 Z " />
<glyph glyph-name="kgreenlandic" unicode="&#x138;" horiz-adv-x="620" d="M337 18 L383 18 L270 250 L251 245 L251 18 L297 18 L297 0 L10 0 L10 18 L65 18 L65 458 L6 458 L6 476 L251 476 L251 265 L267 271 L492 458 L398 458 L398 476 L595 476 L595 458 L525 458 L406 357 L579 18 L615 18 L615 0 L337 0 L337 18 Z " />
<glyph glyph-name="Lacute" unicode="&#x139;" horiz-adv-x="596" d="M381 700 L381 678 L275 678 L275 22 L311 22 Q358 22 392.5 38 Q427 54 454.5 82.5 Q482 111 504.5 149.5 Q527 188 549 234 L570 234 L551 0 L21 0 L21 22 L80 22 L80 678 L21 678 L21 700 L381 700 Z M207 905 L255 901 Q282 899 292.5 885 Q303 871 303 856 Q303 837 291 821.5 Q279 806 259 798 L100 733 L92 743 L207 905 Z " />
<glyph glyph-name="lacute" unicode="&#x13a;" horiz-adv-x="316" d="M251 750 L251 18 L307 18 L307 0 L10 0 L10 18 L65 18 L65 732 L6 732 L6 750 L251 750 Z M166 942 L214 938 Q241 936 251.5 922 Q262 908 262 893 Q262 874 250 858.5 Q238 843 218 835 L59 770 L51 780 L166 942 Z " />
<glyph glyph-name="Lcommaaccent" unicode="&#x13b;" horiz-adv-x="596" d="M381 700 L381 678 L275 678 L275 22 L311 22 Q358 22 392.5 38 Q427 54 454.5 82.5 Q482 111 504.5 149.5 Q527 188 549 234 L570 234 L551 0 L21 0 L21 22 L80 22 L80 678 L21 678 L21 700 L381 700 Z M265 -275 Q303 -246 315.5 -226 Q328 -206 328 -192 Q328 -178 323 -170.5 Q318 -163 310 -159 L279 -190 Q262 -184 246 -168 Q230 -152 230 -123 Q230 -89 249.5 -71.5 Q269 -54 301 -54 Q339 -54 358.5 -78.5 Q378 -103 378 -145 Q378 -187 353.5 -223 Q329 -259 276 -290 L265 -275 Z " />
<glyph glyph-name="lcommaaccent" unicode="&#x13c;" horiz-adv-x="316" d="M251 750 L251 18 L307 18 L307 0 L10 0 L10 18 L65 18 L65 732 L6 732 L6 750 L251 750 Z M115 -276 Q153 -247 165.5 -227 Q178 -207 178 -193 Q178 -179 173 -171.5 Q168 -164 160 -160 L129 -191 Q112 -185 96 -169 Q80 -153 80 -124 Q80 -90 99.5 -72.5 Q119 -55 151 -55 Q189 -55 208.5 -79.5 Q228 -104 228 -146 Q228 -188 203.5 -224 Q179 -260 126 -291 L115 -276 Z " />
<glyph glyph-name="Lcaron" unicode="&#x13d;" horiz-adv-x="596" d="M381 700 L381 678 L275 678 L275 22 L311 22 Q358 22 392.5 38 Q427 54 454.5 82.5 Q482 111 504.5 149.5 Q527 188 549 234 L570 234 L551 0 L21 0 L21 22 L80 22 L80 678 L21 678 L21 700 L381 700 Z M412 490 Q436 516 445 544 Q454 572 454 592 Q454 615 440 632.5 Q426 650 409 665 L431 687 Q460 716 486 716 Q518 716 533 694 Q548 672 548 646 Q548 606 516 562.5 Q484 519 424 477 L412 490 Z " />
<glyph glyph-name="lcaron" unicode="&#x13e;" horiz-adv-x="385" d="M251 750 L251 18 L307 18 L307 0 L10 0 L10 18 L65 18 L65 732 L6 732 L6 750 L251 750 Z M282 534 Q306 560 315 588 Q324 616 324 636 Q324 659 310 676.5 Q296 694 279 709 L301 731 Q330 760 356 760 Q388 760 403 738 Q418 716 418 690 Q418 650 386 606.5 Q354 563 294 521 L282 534 Z " />
<glyph glyph-name="Ldot" unicode="&#x13f;" horiz-adv-x="596" d="M381 700 L381 678 L275 678 L275 22 L311 22 Q358 22 392.5 38 Q427 54 454.5 82.5 Q482 111 504.5 149.5 Q527 188 549 234 L570 234 L551 0 L21 0 L21 22 L80 22 L80 678 L21 678 L21 700 L381 700 Z M361 408 Q361 392 365 375.5 Q369 359 380.5 345.5 Q392 332 411.5 323.5 Q431 315 461 315 Q515 315 538.5 342 Q562 369 562 409 Q562 455 536 478 Q510 501 463 501 Q407 501 384 473 Q361 445 361 408 Z " />
<glyph glyph-name="ldot" unicode="&#x140;" horiz-adv-x="437" d="M251 750 L251 18 L307 18 L307 0 L10 0 L10 18 L65 18 L65 732 L6 732 L6 750 L251 750 Z M276 411 Q276 395 280 378.5 Q284 362 295.5 348.5 Q307 335 326.5 326.5 Q346 318 376 318 Q430 318 453.5 345 Q477 372 477 412 Q477 458 451 481 Q425 504 378 504 Q322 504 299 476 Q276 448 276 411 Z " />
<glyph glyph-name="Lslash" unicode="&#x141;" horiz-adv-x="596" d="M381 700 L381 678 L275 678 L275 407 L431 494 L444 472 L275 377 L275 22 L311 22 Q358 22 392.5 38 Q427 54 454.5 82.5 Q482 111 504.5 149.5 Q527 188 549 234 L570 234 L551 0 L21 0 L21 22 L80 22 L80 288 L18 254 L6 277 L80 317 L80 678 L21 678 L21 700 L381 700 Z " />
<glyph glyph-name="lslash" unicode="&#x142;" horiz-adv-x="322" d="M251 750 L251 453 L317 487 L323 468 L251 430 L251 18 L307 18 L307 0 L10 0 L10 18 L65 18 L65 355 L-2 322 L-8 342 L65 378 L65 732 L6 732 L6 750 L251 750 Z " />
<glyph glyph-name="Nacute" unicode="&#x143;" horiz-adv-x="670" d="M590 0 L450 0 L107 647 L107 19 L162 19 L162 0 L25 0 L25 19 L80 19 L80 681 L25 681 L25 700 L301 700 L563 198 L563 681 L508 681 L508 700 L645 700 L645 681 L590 681 L590 0 Z M382 905 L430 901 Q457 899 467.5 885 Q478 871 478 856 Q478 837 466 821.5 Q454 806 434 798 L275 733 L267 743 L382 905 Z " />
<glyph glyph-name="nacute" unicode="&#x144;" horiz-adv-x="616" d="M251 476 L251 384 Q257 403 267.5 421 Q278 439 295 453.5 Q312 468 337.5 477 Q363 486 400 486 Q470 486 512.5 448 Q555 410 555 319 L555 18 L611 18 L611 0 L328 0 L328 18 L369 18 L369 343 Q369 375 366.5 394 Q364 413 359.5 422.5 Q355 432 348 435 Q341 438 332 438 Q316 438 301.5 427 Q287 416 276 396.5 Q265 377 258 350.5 Q251 324 251 294 L251 18 L294 18 L294 0 L10 0 L10 18 L65 18 L65 458 L10 458 L10 476 L251 476 Z M319 738 L366 748 Q400 756 415 740 Q430 724 430 704 Q430 690 423.5 677.5 Q417 665 401 651 L267 540 L256 547 L319 738 Z " />
<glyph glyph-name="Ncommaaccent" unicode="&#x145;" horiz-adv-x="670" d="M590 0 L450 0 L107 647 L107 19 L162 19 L162 0 L25 0 L25 19 L80 19 L80 681 L25 681 L25 700 L301 700 L563 198 L563 681 L508 681 L508 700 L645 700 L645 681 L590 681 L590 0 Z M299 -275 Q337 -246 349.5 -226 Q362 -206 362 -192 Q362 -178 357 -170.5 Q352 -163 344 -159 L313 -190 Q296 -184 280 -168 Q264 -152 264 -123 Q264 -89 283.5 -71.5 Q303 -54 335 -54 Q373 -54 392.5 -78.5 Q412 -103 412 -145 Q412 -187 387.5 -223 Q363 -259 310 -290 L299 -275 Z " />
<glyph glyph-name="ncommaaccent" unicode="&#x146;" horiz-adv-x="616" d="M251 476 L251 384 Q257 403 267.5 421 Q278 439 295 453.5 Q312 468 337.5 477 Q363 486 400 486 Q470 486 512.5 448 Q555 410 555 319 L555 18 L611 18 L611 0 L328 0 L328 18 L369 18 L369 343 Q369 375 366.5 394 Q364 413 359.5 422.5 Q355 432 348 435 Q341 438 332 438 Q316 438 301.5 427 Q287 416 276 396.5 Q265 377 258 350.5 Q251 324 251 294 L251 18 L294 18 L294 0 L10 0 L10 18 L65 18 L65 458 L10 458 L10 476 L251 476 Z M269 -275 Q307 -246 319.5 -226 Q332 -206 332 -192 Q332 -178 327 -170.5 Q322 -163 314 -159 L283 -190 Q266 -184 250 -168 Q234 -152 234 -123 Q234 -89 253.5 -71.5 Q273 -54 305 -54 Q343 -54 362.5 -78.5 Q382 -103 382 -145 Q382 -187 357.5 -223 Q333 -259 280 -290 L269 -275 Z " />
<glyph glyph-name="Ncaron" unicode="&#x147;" horiz-adv-x="670" d="M590 0 L450 0 L107 647 L107 19 L162 19 L162 0 L25 0 L25 19 L80 19 L80 681 L25 681 L25 700 L301 700 L563 198 L563 681 L508 681 L508 700 L645 700 L645 681 L590 681 L590 0 Z M393 761 Q382 755 367 750 Q352 745 338 745 Q310 745 294.5 755 Q279 765 268 785 L194 909 L203 919 L345 851 L491 919 L499 909 L393 761 Z " />
<glyph glyph-name="ncaron" unicode="&#x148;" horiz-adv-x="616" d="M251 476 L251 384 Q257 403 267.5 421 Q278 439 295 453.5 Q312 468 337.5 477 Q363 486 400 486 Q470 486 512.5 448 Q555 410 555 319 L555 18 L611 18 L611 0 L328 0 L328 18 L369 18 L369 343 Q369 375 366.5 394 Q364 413 359.5 422.5 Q355 432 348 435 Q341 438 332 438 Q316 438 301.5 427 Q287 416 276 396.5 Q265 377 258 350.5 Q251 324 251 294 L251 18 L294 18 L294 0 L10 0 L10 18 L65 18 L65 458 L10 458 L10 476 L251 476 Z M363 544 Q352 537 337 532.5 Q322 528 309 528 Q281 528 265 541 Q249 554 240 576 L176 735 L187 742 L313 636 L437 743 L449 734 L363 544 Z " />
<glyph glyph-name="napostrophe" unicode="&#x149;" horiz-adv-x="667" d="M302 476 L302 384 Q308 403 318.5 421 Q329 439 346 453.5 Q363 468 388.5 477 Q414 486 451 486 Q521 486 563.5 448 Q606 410 606 319 L606 18 L662 18 L662 0 L379 0 L379 18 L420 18 L420 343 Q420 375 417.5 394 Q415 413 410.5 422.5 Q406 432 399 435 Q392 438 383 438 Q367 438 352.5 427 Q338 416 327 396.5 Q316 377 309 350.5 Q302 324 302 294 L302 18 L345 18 L345 0 L61 0 L61 18 L116 18 L116 458 L61 458 L61 476 L302 476 Z M-22 463 Q16 492 28.5 511 Q41 530 41 544 Q41 558 36 565.5 Q31 573 23 577 L-6 548 Q-23 554 -37 569.5 Q-51 585 -51 613 Q-51 645 -32 661.5 Q-13 678 14 678 Q47 678 66 654 Q85 630 85 589 Q85 548 63.5 513.5 Q42 479 -11 448 L-22 463 Z " />
<glyph glyph-name="Eng" unicode="&#x14a;" horiz-adv-x="670" d="M590 41 Q590 -97 541 -157 Q492 -217 396 -217 Q315 -217 270 -186.5 Q225 -156 225 -99 Q225 -56 249.5 -31.5 Q274 -7 315 -7 Q356 -7 375.5 -29.5 Q395 -52 395 -81 Q395 -91 393 -106.5 Q391 -122 386 -138 L357 -138 Q348 -151 348 -162 Q348 -173 353.5 -181.5 Q359 -190 368.5 -194.5 Q378 -199 388 -199 Q404 -199 414 -192.5 Q424 -186 430 -167.5 Q436 -149 438 -116.5 Q440 -84 440 -31 L440 19 L107 647 L107 19 L162 19 L162 0 L25 0 L25 19 L80 19 L80 681 L25 681 L25 700 L301 700 L563 198 L563 681 L508 681 L508 700 L645 700 L645 681 L590 681 L590 41 Z " />
<glyph glyph-name="eng" unicode="&#x14b;" horiz-adv-x="610" d="M251 476 L251 384 Q257 403 267.5 421 Q278 439 295 453.5 Q312 468 337.5 477 Q363 486 400 486 Q470 486 512.5 448 Q555 410 555 319 L555 86 Q555 8 542 -54.5 Q529 -117 500.5 -160.5 Q472 -204 426 -227 Q380 -250 314 -250 Q269 -250 239.5 -240 Q210 -230 193 -214 Q176 -198 169.5 -178 Q163 -158 163 -139 Q163 -94 190 -71.5 Q217 -49 255 -49 Q295 -49 313.5 -71.5 Q332 -94 332 -126 Q332 -137 330 -148 Q328 -159 326 -168 L297 -168 Q280 -195 288.5 -214 Q297 -233 317 -233 Q332 -233 342 -225.5 Q352 -218 358 -198.5 Q364 -179 366.5 -144.5 Q369 -110 369 -56 L369 343 Q369 375 366.5 394 Q364 413 359.5 422.5 Q355 432 348 435 Q341 438 332 438 Q316 438 301.5 427 Q287 416 276 396.5 Q265 377 258 350.5 Q251 324 251 294 L251 18 L294 18 L294 0 L10 0 L10 18 L65 18 L65 458 L10 458 L10 476 L251 476 Z " />
<glyph glyph-name="Omacron" unicode="&#x14c;" horiz-adv-x="748" d="M501 383 Q501 460 498 517.5 Q495 575 483 613.5 Q471 652 445.5 671 Q420 690 375 690 Q330 690 304 670 Q278 650 265 611 Q252 572 249 514 Q246 456 246 379 L246 307 Q246 237 249.5 181.5 Q253 126 266.5 88.5 Q280 51 305.5 31 Q331 11 375 11 Q417 11 442 29.5 Q467 48 480 85 Q493 122 497 178 Q501 234 501 309 L501 383 Z M41 339 Q41 425 63 494 Q85 563 128.5 611 Q172 659 235.5 685 Q299 711 383 711 Q544 711 625.5 616.5 Q707 522 707 352 Q707 268 687 201 Q667 134 625.5 87 Q584 40 521 15 Q458 -10 371 -10 Q204 -10 122.5 82 Q41 174 41 339 Z M240 867 L512 867 L512 770 L240 770 L240 867 Z " />
<glyph glyph-name="omacron" unicode="&#x14d;" horiz-adv-x="543" d="M333 282 Q333 323 331.5 357 Q330 391 324.5 415.5 Q319 440 307 454 Q295 468 274 468 Q251 468 238 454 Q225 440 219 415 Q213 390 211.5 354.5 Q210 319 210 277 L210 199 Q210 156 211.5 120.5 Q213 85 219 60 Q225 35 237.5 21.5 Q250 8 273 8 Q294 8 306 19.5 Q318 31 324 54 Q330 77 331.5 112.5 Q333 148 333 197 L333 282 Z M18 236 Q18 360 87 423 Q156 486 277 486 Q404 486 464.5 426.5 Q525 367 525 245 Q525 122 465 56 Q405 -10 271 -10 Q144 -10 81 54 Q18 118 18 236 Z M138 662 L410 662 L410 567 L138 567 L138 662 Z " />
<glyph glyph-name="Obreve" unicode="&#x14e;" horiz-adv-x="748" d="M501 383 Q501 460 498 517.5 Q495 575 483 613.5 Q471 652 445.5 671 Q420 690 375 690 Q330 690 304 670 Q278 650 265 611 Q252 572 249 514 Q246 456 246 379 L246 307 Q246 237 249.5 181.5 Q253 126 266.5 88.5 Q280 51 305.5 31 Q331 11 375 11 Q417 11 442 29.5 Q467 48 480 85 Q493 122 497 178 Q501 234 501 309 L501 383 Z M41 339 Q41 425 63 494 Q85 563 128.5 611 Q172 659 235.5 685 Q299 711 383 711 Q544 711 625.5 616.5 Q707 522 707 352 Q707 268 687 201 Q667 134 625.5 87 Q584 40 521 15 Q458 -10 371 -10 Q204 -10 122.5 82 Q41 174 41 339 Z M250 921 Q264 879 294 866 Q324 853 378 853 Q404 853 424.5 855 Q445 857 460.5 864.5 Q476 872 486.5 885.5 Q497 899 503 921 L518 918 Q514 882 505 850.5 Q496 819 479.5 795.5 Q463 772 437.5 759 Q412 746 376 746 Q337 746 312 759 Q287 772 271 795.5 Q255 819 247 850.5 Q239 882 234 918 L250 921 Z " />
<glyph glyph-name="obreve" unicode="&#x14f;" horiz-adv-x="543" d="M333 282 Q333 323 331.5 357 Q330 391 324.5 415.5 Q319 440 307 454 Q295 468 274 468 Q251 468 238 454 Q225 440 219 415 Q213 390 211.5 354.5 Q210 319 210 277 L210 199 Q210 156 211.5 120.5 Q213 85 219 60 Q225 35 237.5 21.5 Q250 8 273 8 Q294 8 306 19.5 Q318 31 324 54 Q330 77 331.5 112.5 Q333 148 333 197 L333 282 Z M18 236 Q18 360 87 423 Q156 486 277 486 Q404 486 464.5 426.5 Q525 367 525 245 Q525 122 465 56 Q405 -10 271 -10 Q144 -10 81 54 Q18 118 18 236 Z M148 724 Q162 682 192 669 Q222 656 276 656 Q302 656 322.5 658 Q343 660 358.5 667.5 Q374 675 384.5 688.5 Q395 702 401 724 L416 721 Q412 684 403 651 Q394 618 377.5 593.5 Q361 569 335.5 555 Q310 541 274 541 Q235 541 210 555 Q185 569 169.5 593.5 Q154 618 145.5 651 Q137 684 132 721 L148 724 Z " />
<glyph glyph-name="Ohungarumlaut" unicode="&#x150;" horiz-adv-x="748" d="M501 383 Q501 460 498 517.5 Q495 575 483 613.5 Q471 652 445.5 671 Q420 690 375 690 Q330 690 304 670 Q278 650 265 611 Q252 572 249 514 Q246 456 246 379 L246 307 Q246 237 249.5 181.5 Q253 126 266.5 88.5 Q280 51 305.5 31 Q331 11 375 11 Q417 11 442 29.5 Q467 48 480 85 Q493 122 497 178 Q501 234 501 309 L501 383 Z M41 339 Q41 425 63 494 Q85 563 128.5 611 Q172 659 235.5 685 Q299 711 383 711 Q544 711 625.5 616.5 Q707 522 707 352 Q707 268 687 201 Q667 134 625.5 87 Q584 40 521 15 Q458 -10 371 -10 Q204 -10 122.5 82 Q41 174 41 339 Z M494 916 L539 921 Q570 925 581 911 Q592 897 592 880 Q592 862 581.5 848 Q571 834 557 825 L416 734 L406 742 L494 916 Z M341 922 L385 929 Q415 934 427.5 921.5 Q440 909 440 891 Q440 875 432.5 860 Q425 845 411 835 L276 734 L265 742 L341 922 Z " />
<glyph glyph-name="ohungarumlaut" unicode="&#x151;" horiz-adv-x="543" d="M333 282 Q333 323 331.5 357 Q330 391 324.5 415.5 Q319 440 307 454 Q295 468 274 468 Q251 468 238 454 Q225 440 219 415 Q213 390 211.5 354.5 Q210 319 210 277 L210 199 Q210 156 211.5 120.5 Q213 85 219 60 Q225 35 237.5 21.5 Q250 8 273 8 Q294 8 306 19.5 Q318 31 324 54 Q330 77 331.5 112.5 Q333 148 333 197 L333 282 Z M18 236 Q18 360 87 423 Q156 486 277 486 Q404 486 464.5 426.5 Q525 367 525 245 Q525 122 465 56 Q405 -10 271 -10 Q144 -10 81 54 Q18 118 18 236 Z M379 738 L426 748 Q460 756 475 740 Q490 724 490 704 Q490 690 483.5 677.5 Q477 665 461 651 L327 540 L316 547 L379 738 Z M221 740 L267 753 Q300 762 316 747 Q332 732 333 712 Q334 698 328 685.5 Q322 673 307 658 L179 540 L168 546 L221 740 Z " />
<glyph glyph-name="OE" unicode="&#x152;" horiz-adv-x="1045" d="M962 700 L972 502 L954 502 Q933 551 913 584.5 Q893 618 867.5 639 Q842 660 809 669 Q776 678 731 678 L696 678 L696 369 L730 369 Q779 369 810 406 Q841 443 854 500 L869 500 L869 204 L852 204 Q834 279 803.5 311 Q773 343 720 343 L696 343 L696 22 L734 22 Q782 22 822 37.5 Q862 53 893 79.5 Q924 106 946 141.5 Q968 177 979 218 L999 218 L991 0 L563 0 L563 73 Q527 35 475 12.5 Q423 -10 357 -10 Q281 -10 222.5 13.5 Q164 37 123.5 82 Q83 127 62 192 Q41 257 41 339 Q41 425 63.5 494 Q86 563 129 611 Q172 659 233.5 685 Q295 711 373 711 Q438 711 483.5 690.5 Q529 670 564 628 L564 700 L962 700 Z M501 383 Q501 460 498 517.5 Q495 575 483 613.5 Q471 652 445.5 671 Q420 690 375 690 Q330 690 304 670 Q278 650 265 611 Q252 572 249 514 Q246 456 246 379 L246 307 Q246 237 249.5 181.5 Q253 126 266.5 88.5 Q280 51 305.5 31 Q331 11 375 11 Q417 11 442 29.5 Q467 48 480 85 Q493 122 497 178 Q501 234 501 309 L501 383 Z " />
<glyph glyph-name="oe" unicode="&#x153;" horiz-adv-x="832" d="M15 236 Q15 360 81.5 423 Q148 486 273 486 Q330 486 371 467 Q412 448 438 416 Q468 448 508.5 467 Q549 486 606 486 Q711 486 761 428 Q811 370 806 258 L524 258 L524 219 Q524 175 529 138.5 Q534 102 547 76 Q560 50 583 35.5 Q606 21 642 21 Q698 21 734.5 54 Q771 87 788 145 L806 142 Q797 110 782.5 82 Q768 54 744.5 33.5 Q721 13 688 1.5 Q655 -10 609 -10 Q543 -10 500 10.5 Q457 31 432 60 Q401 28 361.5 9 Q322 -10 260 -10 Q139 -10 77 54 Q15 118 15 236 Z M339 282 Q339 323 337 357 Q335 391 328.5 415.5 Q322 440 309.5 454 Q297 468 276 468 Q253 468 239.5 454 Q226 440 219 415 Q212 390 210 354.5 Q208 319 208 277 L208 199 Q208 156 210 120.5 Q212 85 218.5 60 Q225 35 238.5 21.5 Q252 8 275 8 Q318 8 328.5 54 Q339 100 339 197 L339 282 Z M628 278 L628 327 Q628 406 619 436.5 Q610 467 579 467 Q553 467 539 437 Q525 407 525 327 L525 278 L628 278 Z " />
<glyph glyph-name="Racute" unicode="&#x154;" horiz-adv-x="716" d="M275 354 L275 19 L340 19 L340 0 L15 0 L15 19 L80 19 L80 681 L15 681 L15 700 L317 700 Q395 700 453.5 694.5 Q512 689 550 671 Q588 653 607 620 Q626 587 626 532 Q626 486 614.5 455.5 Q603 425 581 406 Q559 387 527.5 377.5 Q496 368 456 365 L456 362 Q497 357 524.5 345.5 Q552 334 569 314 Q586 294 593.5 264 Q601 234 601 190 L601 137 Q601 88 606 68.5 Q611 49 632 49 Q639 49 645 51.5 Q651 54 657 63 Q663 72 668 89 Q673 106 678 135 L695 133 Q689 90 680.5 62.5 Q672 35 656.5 19 Q641 3 617.5 -3.5 Q594 -10 559 -10 Q512 -10 480.5 -1 Q449 8 430.5 29 Q412 50 404 85 Q396 120 396 173 L396 246 Q396 300 382.5 327 Q369 354 328 354 L275 354 Z M275 373 L307 373 Q363 373 391 407 Q419 441 419 522 L419 551 Q419 593 411.5 618.5 Q404 644 390 658 Q376 672 355 676.5 Q334 681 308 681 L275 681 L275 373 Z M349 905 L397 901 Q424 899 434.5 885 Q445 871 445 856 Q445 837 433 821.5 Q421 806 401 798 L242 733 L234 743 L349 905 Z " />
<glyph glyph-name="racute" unicode="&#x155;" horiz-adv-x="495" d="M344 448 Q326 448 309 435.5 Q292 423 279.5 401 Q267 379 259 349.5 Q251 320 251 286 L251 18 L322 18 L322 0 L10 0 L10 18 L65 18 L65 458 L10 458 L10 476 L251 476 L251 380 Q265 434 302.5 460 Q340 486 385 486 Q430 486 460.5 461 Q491 436 491 379 Q491 336 469.5 310 Q448 284 407 284 Q356 284 334.5 313.5 Q313 343 329 397 L365 397 Q380 428 370 438 Q360 448 344 448 Z M266 738 L313 748 Q347 756 362 740 Q377 724 377 704 Q377 690 370.5 677.5 Q364 665 348 651 L214 540 L203 547 L266 738 Z " />
<glyph glyph-name="Rcommaaccent" unicode="&#x156;" horiz-adv-x="716" d="M275 354 L275 19 L340 19 L340 0 L15 0 L15 19 L80 19 L80 681 L15 681 L15 700 L317 700 Q395 700 453.5 694.5 Q512 689 550 671 Q588 653 607 620 Q626 587 626 532 Q626 486 614.5 455.5 Q603 425 581 406 Q559 387 527.5 377.5 Q496 368 456 365 L456 362 Q497 357 524.5 345.5 Q552 334 569 314 Q586 294 593.5 264 Q601 234 601 190 L601 137 Q601 88 606 68.5 Q611 49 632 49 Q639 49 645 51.5 Q651 54 657 63 Q663 72 668 89 Q673 106 678 135 L695 133 Q689 90 680.5 62.5 Q672 35 656.5 19 Q641 3 617.5 -3.5 Q594 -10 559 -10 Q512 -10 480.5 -1 Q449 8 430.5 29 Q412 50 404 85 Q396 120 396 173 L396 246 Q396 300 382.5 327 Q369 354 328 354 L275 354 Z M275 373 L307 373 Q363 373 391 407 Q419 441 419 522 L419 551 Q419 593 411.5 618.5 Q404 644 390 658 Q376 672 355 676.5 Q334 681 308 681 L275 681 L275 373 Z M310 -275 Q348 -246 360.5 -226 Q373 -206 373 -192 Q373 -178 368 -170.5 Q363 -163 355 -159 L324 -190 Q307 -184 291 -168 Q275 -152 275 -123 Q275 -89 294.5 -71.5 Q314 -54 346 -54 Q384 -54 403.5 -78.5 Q423 -103 423 -145 Q423 -187 398.5 -223 Q374 -259 321 -290 L310 -275 Z " />
<glyph glyph-name="rcommaaccent" unicode="&#x157;" horiz-adv-x="495" d="M344 448 Q326 448 309 435.5 Q292 423 279.5 401 Q267 379 259 349.5 Q251 320 251 286 L251 18 L322 18 L322 0 L10 0 L10 18 L65 18 L65 458 L10 458 L10 476 L251 476 L251 380 Q265 434 302.5 460 Q340 486 385 486 Q430 486 460.5 461 Q491 436 491 379 Q491 336 469.5 310 Q448 284 407 284 Q356 284 334.5 313.5 Q313 343 329 397 L365 397 Q380 428 370 438 Q360 448 344 448 Z M115 -275 Q153 -246 165.5 -226 Q178 -206 178 -192 Q178 -178 173 -170.5 Q168 -163 160 -159 L129 -190 Q112 -184 96 -168 Q80 -152 80 -123 Q80 -89 99.5 -71.5 Q119 -54 151 -54 Q189 -54 208.5 -78.5 Q228 -103 228 -145 Q228 -187 203.5 -223 Q179 -259 126 -290 L115 -275 Z " />
<glyph glyph-name="Rcaron" unicode="&#x158;" horiz-adv-x="716" d="M275 354 L275 19 L340 19 L340 0 L15 0 L15 19 L80 19 L80 681 L15 681 L15 700 L317 700 Q395 700 453.5 694.5 Q512 689 550 671 Q588 653 607 620 Q626 587 626 532 Q626 486 614.5 455.5 Q603 425 581 406 Q559 387 527.5 377.5 Q496 368 456 365 L456 362 Q497 357 524.5 345.5 Q552 334 569 314 Q586 294 593.5 264 Q601 234 601 190 L601 137 Q601 88 606 68.5 Q611 49 632 49 Q639 49 645 51.5 Q651 54 657 63 Q663 72 668 89 Q673 106 678 135 L695 133 Q689 90 680.5 62.5 Q672 35 656.5 19 Q641 3 617.5 -3.5 Q594 -10 559 -10 Q512 -10 480.5 -1 Q449 8 430.5 29 Q412 50 404 85 Q396 120 396 173 L396 246 Q396 300 382.5 327 Q369 354 328 354 L275 354 Z M275 373 L307 373 Q363 373 391 407 Q419 441 419 522 L419 551 Q419 593 411.5 618.5 Q404 644 390 658 Q376 672 355 676.5 Q334 681 308 681 L275 681 L275 373 Z M372 761 Q361 755 346 750 Q331 745 317 745 Q289 745 273.5 755 Q258 765 247 785 L173 909 L182 919 L324 851 L470 919 L478 909 L372 761 Z " />
<glyph glyph-name="rcaron" unicode="&#x159;" horiz-adv-x="495" d="M344 448 Q326 448 309 435.5 Q292 423 279.5 401 Q267 379 259 349.5 Q251 320 251 286 L251 18 L322 18 L322 0 L10 0 L10 18 L65 18 L65 458 L10 458 L10 476 L251 476 L251 380 Q265 434 302.5 460 Q340 486 385 486 Q430 486 460.5 461 Q491 436 491 379 Q491 336 469.5 310 Q448 284 407 284 Q356 284 334.5 313.5 Q313 343 329 397 L365 397 Q380 428 370 438 Q360 448 344 448 Z M302 544 Q291 537 276 532.5 Q261 528 248 528 Q220 528 204 541 Q188 554 179 576 L115 735 L126 742 L252 636 L376 743 L388 734 L302 544 Z " />
<glyph glyph-name="Sacute" unicode="&#x15a;" horiz-adv-x="600" d="M325 11 Q348 11 370.5 17 Q393 23 411 36 Q429 49 440.5 69 Q452 89 452 116 Q452 147 440.5 168.5 Q429 190 405.5 206.5 Q382 223 347.5 235.5 Q313 248 267 261 Q222 274 183 290.5 Q144 307 115.5 333.5 Q87 360 70.5 398.5 Q54 437 54 494 Q54 536 69.5 575 Q85 614 115 644.5 Q145 675 189 693 Q233 711 291 711 Q326 711 353 706 Q380 701 401.5 695.5 Q423 690 439.5 685 Q456 680 469 680 Q482 680 487.5 685 Q493 690 498 700 L509 700 L516 498 L500 498 Q481 533 458.5 567 Q436 601 408.5 628.5 Q381 656 349 673 Q317 690 278 690 Q224 690 190 662 Q156 634 156 589 Q156 561 168 542 Q180 523 202.5 508.5 Q225 494 256 483.5 Q287 473 325 463 Q367 452 408.5 437.5 Q450 423 483.5 397.5 Q517 372 538 331.5 Q559 291 559 229 Q559 175 541.5 131 Q524 87 491.5 55.5 Q459 24 414 7 Q369 -10 314 -10 Q278 -10 244.5 -5.5 Q211 -1 183.5 5 Q156 11 136 15.5 Q116 20 105 20 Q93 20 87 12 Q81 4 75 -10 L61 -10 L51 228 L68 228 Q87 191 114 152 Q141 113 174 82 Q207 51 245.5 31 Q284 11 325 11 Z M318 905 L366 901 Q393 899 403.5 885 Q414 871 414 856 Q414 837 402 821.5 Q390 806 370 798 L211 733 L203 743 L318 905 Z " />
<glyph glyph-name="sacute" unicode="&#x15b;" horiz-adv-x="434" d="M33 169 L45 169 Q59 123 77.5 93 Q96 63 118.5 45 Q141 27 167.5 19.5 Q194 12 225 12 Q281 12 304 30 Q327 48 327 77 Q327 94 318 105 Q309 116 293 124 Q277 132 254 138.5 Q231 145 202 153 Q172 161 142 172 Q112 183 87.5 201.5 Q63 220 48 247.5 Q33 275 33 317 Q33 394 81 440 Q129 486 209 486 Q242 486 266 479 Q290 472 310 463 Q319 459 324 457 Q329 455 338 455 Q349 455 356 462 Q363 469 373 488 L384 488 L384 335 L372 335 Q345 404 306.5 434.5 Q268 465 214 465 Q164 465 142.5 447.5 Q121 430 121 407 Q121 390 131.5 378.5 Q142 367 159.5 359 Q177 351 199.5 345 Q222 339 247 332 Q277 324 306.5 313 Q336 302 360 283 Q384 264 399 234.5 Q414 205 414 161 Q414 75 363 32.5 Q312 -10 227 -10 Q191 -10 163.5 -2.5 Q136 5 107 19 Q102 22 96.5 24.5 Q91 27 88 27 Q78 27 67.5 19 Q57 11 45 -10 L33 -10 L33 169 Z M223 738 L270 748 Q304 756 319 740 Q334 724 334 704 Q334 690 327.5 677.5 Q321 665 305 651 L171 540 L160 547 L223 738 Z " />
<glyph glyph-name="Scircumflex" unicode="&#x15c;" horiz-adv-x="600" d="M325 11 Q348 11 370.5 17 Q393 23 411 36 Q429 49 440.5 69 Q452 89 452 116 Q452 147 440.5 168.5 Q429 190 405.5 206.5 Q382 223 347.5 235.5 Q313 248 267 261 Q222 274 183 290.5 Q144 307 115.5 333.5 Q87 360 70.5 398.5 Q54 437 54 494 Q54 536 69.5 575 Q85 614 115 644.5 Q145 675 189 693 Q233 711 291 711 Q326 711 353 706 Q380 701 401.5 695.5 Q423 690 439.5 685 Q456 680 469 680 Q482 680 487.5 685 Q493 690 498 700 L509 700 L516 498 L500 498 Q481 533 458.5 567 Q436 601 408.5 628.5 Q381 656 349 673 Q317 690 278 690 Q224 690 190 662 Q156 634 156 589 Q156 561 168 542 Q180 523 202.5 508.5 Q225 494 256 483.5 Q287 473 325 463 Q367 452 408.5 437.5 Q450 423 483.5 397.5 Q517 372 538 331.5 Q559 291 559 229 Q559 175 541.5 131 Q524 87 491.5 55.5 Q459 24 414 7 Q369 -10 314 -10 Q278 -10 244.5 -5.5 Q211 -1 183.5 5 Q156 11 136 15.5 Q116 20 105 20 Q93 20 87 12 Q81 4 75 -10 L61 -10 L51 228 L68 228 Q87 191 114 152 Q141 113 174 82 Q207 51 245.5 31 Q284 11 325 11 Z M245 891 Q256 897 271 902 Q286 907 300 907 Q328 907 343.5 897 Q359 887 370 867 L444 743 L435 733 L293 801 L147 733 L139 743 L245 891 Z " />
<glyph glyph-name="scircumflex" unicode="&#x15d;" horiz-adv-x="434" d="M33 169 L45 169 Q59 123 77.5 93 Q96 63 118.5 45 Q141 27 167.5 19.5 Q194 12 225 12 Q281 12 304 30 Q327 48 327 77 Q327 94 318 105 Q309 116 293 124 Q277 132 254 138.5 Q231 145 202 153 Q172 161 142 172 Q112 183 87.5 201.5 Q63 220 48 247.5 Q33 275 33 317 Q33 394 81 440 Q129 486 209 486 Q242 486 266 479 Q290 472 310 463 Q319 459 324 457 Q329 455 338 455 Q349 455 356 462 Q363 469 373 488 L384 488 L384 335 L372 335 Q345 404 306.5 434.5 Q268 465 214 465 Q164 465 142.5 447.5 Q121 430 121 407 Q121 390 131.5 378.5 Q142 367 159.5 359 Q177 351 199.5 345 Q222 339 247 332 Q277 324 306.5 313 Q336 302 360 283 Q384 264 399 234.5 Q414 205 414 161 Q414 75 363 32.5 Q312 -10 227 -10 Q191 -10 163.5 -2.5 Q136 5 107 19 Q102 22 96.5 24.5 Q91 27 88 27 Q78 27 67.5 19 Q57 11 45 -10 L33 -10 L33 169 Z M170 722 Q181 728 196.5 733 Q212 738 229 738 Q253 738 268.5 725.5 Q284 713 293 690 L354 531 L343 524 L218 628 L93 523 L81 532 L170 722 Z " />
<glyph glyph-name="Scedilla" unicode="&#x15e;" horiz-adv-x="600" d="M325 11 Q348 11 370.5 17 Q393 23 411 36 Q429 49 440.5 69 Q452 89 452 116 Q452 147 440.5 168.5 Q429 190 405.5 206.5 Q382 223 347.5 235.5 Q313 248 267 261 Q222 274 183 290.5 Q144 307 115.5 333.5 Q87 360 70.5 398.5 Q54 437 54 494 Q54 536 69.5 575 Q85 614 115 644.5 Q145 675 189 693 Q233 711 291 711 Q326 711 353 706 Q380 701 401.5 695.5 Q423 690 439.5 685 Q456 680 469 680 Q482 680 487.5 685 Q493 690 498 700 L509 700 L516 498 L500 498 Q481 533 458.5 567 Q436 601 408.5 628.5 Q381 656 349 673 Q317 690 278 690 Q224 690 190 662 Q156 634 156 589 Q156 561 168 542 Q180 523 202.5 508.5 Q225 494 256 483.5 Q287 473 325 463 Q367 452 408.5 437.5 Q450 423 483.5 397.5 Q517 372 538 331.5 Q559 291 559 229 Q559 175 541.5 131 Q524 87 491.5 55.5 Q459 24 414 7 Q369 -10 314 -10 L301 -10 L272 -59 Q277 -58 286.5 -57 Q296 -56 305 -56 Q361 -56 385.5 -80.5 Q410 -105 410 -145 Q410 -162 403 -180.5 Q396 -199 380.5 -214 Q365 -229 339 -239 Q313 -249 274 -249 Q227 -249 199 -230.5 Q171 -212 171 -183 Q171 -162 183 -150 Q195 -138 214 -138 Q233 -138 244 -150 Q255 -162 260 -176 L234 -196 Q234 -208 241 -220.5 Q248 -233 268 -233 Q287 -233 295.5 -216 Q304 -199 304 -156 Q304 -117 299.5 -95.5 Q295 -74 272 -74 Q258 -74 242 -78 L239 -69 L275 -8 Q245 -6 218 -1 Q191 4 169 8.5 Q147 13 130.5 16.5 Q114 20 105 20 Q93 20 87 12 Q81 4 75 -10 L61 -10 L51 228 L68 228 Q87 191 114 152 Q141 113 174 82 Q207 51 245.5 31 Q284 11 325 11 Z " />
<glyph glyph-name="scedilla" unicode="&#x15f;" horiz-adv-x="428" d="M33 169 L45 169 Q59 123 77.5 93 Q96 63 118.5 45 Q141 27 167.5 19.5 Q194 12 225 12 Q281 12 304 30 Q327 48 327 77 Q327 94 318 105 Q309 116 293 124 Q277 132 254 138.5 Q231 145 202 153 Q172 161 142 172 Q112 183 87.5 201.5 Q63 220 48 247.5 Q33 275 33 317 Q33 394 81 440 Q129 486 209 486 Q242 486 266 479 Q290 472 310 463 Q319 459 324 457 Q329 455 338 455 Q349 455 356 462 Q363 469 373 488 L384 488 L384 335 L372 335 Q345 404 306.5 434.5 Q268 465 214 465 Q164 465 142.5 447.5 Q121 430 121 407 Q121 390 131.5 378.5 Q142 367 159.5 359 Q177 351 199.5 345 Q222 339 247 332 Q277 324 306.5 313 Q336 302 360 283 Q384 264 399 234.5 Q414 205 414 161 Q414 75 363 32.5 Q312 -10 227 -10 Q216 -10 211 -9 L183 -58 Q188 -57 197.5 -56 Q207 -55 216 -55 Q272 -55 296.5 -79.5 Q321 -104 321 -144 Q321 -161 314 -179.5 Q307 -198 291.5 -213 Q276 -228 250 -238 Q224 -248 185 -248 Q138 -248 110 -229.5 Q82 -211 82 -182 Q82 -161 94 -149 Q106 -137 125 -137 Q144 -137 155 -149 Q166 -161 171 -175 L145 -195 Q145 -207 152 -219.5 Q159 -232 179 -232 Q198 -232 206.5 -215 Q215 -198 215 -155 Q215 -116 210.5 -94.5 Q206 -73 183 -73 Q169 -73 153 -77 L150 -68 L186 -7 Q165 -4 146 2.5 Q127 9 107 19 Q102 22 96.5 24.5 Q91 27 88 27 Q78 27 67.5 19 Q57 11 45 -10 L33 -10 L33 169 Z " />
<glyph glyph-name="Scaron" unicode="&#x160;" horiz-adv-x="600" d="M325 11 Q348 11 370.5 17 Q393 23 411 36 Q429 49 440.5 69 Q452 89 452 116 Q452 147 440.5 168.5 Q429 190 405.5 206.5 Q382 223 347.5 235.5 Q313 248 267 261 Q222 274 183 290.5 Q144 307 115.5 333.5 Q87 360 70.5 398.5 Q54 437 54 494 Q54 536 69.5 575 Q85 614 115 644.5 Q145 675 189 693 Q233 711 291 711 Q326 711 353 706 Q380 701 401.5 695.5 Q423 690 439.5 685 Q456 680 469 680 Q482 680 487.5 685 Q493 690 498 700 L509 700 L516 498 L500 498 Q481 533 458.5 567 Q436 601 408.5 628.5 Q381 656 349 673 Q317 690 278 690 Q224 690 190 662 Q156 634 156 589 Q156 561 168 542 Q180 523 202.5 508.5 Q225 494 256 483.5 Q287 473 325 463 Q367 452 408.5 437.5 Q450 423 483.5 397.5 Q517 372 538 331.5 Q559 291 559 229 Q559 175 541.5 131 Q524 87 491.5 55.5 Q459 24 414 7 Q369 -10 314 -10 Q278 -10 244.5 -5.5 Q211 -1 183.5 5 Q156 11 136 15.5 Q116 20 105 20 Q93 20 87 12 Q81 4 75 -10 L61 -10 L51 228 L68 228 Q87 191 114 152 Q141 113 174 82 Q207 51 245.5 31 Q284 11 325 11 Z M351 761 Q340 755 325 750 Q310 745 296 745 Q268 745 252.5 755 Q237 765 226 785 L152 909 L161 919 L303 851 L449 919 L457 909 L351 761 Z " />
<glyph glyph-name="scaron" unicode="&#x161;" horiz-adv-x="434" d="M33 169 L45 169 Q59 123 77.5 93 Q96 63 118.5 45 Q141 27 167.5 19.5 Q194 12 225 12 Q281 12 304 30 Q327 48 327 77 Q327 94 318 105 Q309 116 293 124 Q277 132 254 138.5 Q231 145 202 153 Q172 161 142 172 Q112 183 87.5 201.5 Q63 220 48 247.5 Q33 275 33 317 Q33 394 81 440 Q129 486 209 486 Q242 486 266 479 Q290 472 310 463 Q319 459 324 457 Q329 455 338 455 Q349 455 356 462 Q363 469 373 488 L384 488 L384 335 L372 335 Q345 404 306.5 434.5 Q268 465 214 465 Q164 465 142.5 447.5 Q121 430 121 407 Q121 390 131.5 378.5 Q142 367 159.5 359 Q177 351 199.5 345 Q222 339 247 332 Q277 324 306.5 313 Q336 302 360 283 Q384 264 399 234.5 Q414 205 414 161 Q414 75 363 32.5 Q312 -10 227 -10 Q191 -10 163.5 -2.5 Q136 5 107 19 Q102 22 96.5 24.5 Q91 27 88 27 Q78 27 67.5 19 Q57 11 45 -10 L33 -10 L33 169 Z M272 544 Q261 537 246 532.5 Q231 528 218 528 Q190 528 174 541 Q158 554 149 576 L85 735 L96 742 L222 636 L346 743 L358 734 L272 544 Z " />
<glyph glyph-name="uni0162" unicode="&#x162;" horiz-adv-x="683" d="M646 449 L627 449 Q607 510 589.5 553.5 Q572 597 552.5 625 Q533 653 509 666 Q485 679 451 679 L439 679 L439 21 L524 21 L524 0 L356 0 L324 -55 Q329 -54 338.5 -53 Q348 -52 357 -52 Q413 -52 437.5 -76.5 Q462 -101 462 -141 Q462 -158 455 -176.5 Q448 -195 432.5 -210 Q417 -225 391 -235 Q365 -245 326 -245 Q279 -245 251 -226.5 Q223 -208 223 -179 Q223 -158 235 -146 Q247 -134 266 -134 Q285 -134 296 -146 Q307 -158 312 -172 L286 -192 Q286 -204 293 -216.5 Q300 -229 320 -229 Q339 -229 347.5 -212 Q356 -195 356 -152 Q356 -113 351.5 -91.5 Q347 -70 324 -70 Q310 -70 294 -74 L291 -65 L330 0 L159 0 L159 21 L244 21 L244 679 L231 679 Q197 679 172.5 665 Q148 651 128 622.5 Q108 594 91 550.5 Q74 507 55 449 L36 449 L46 700 L636 700 L646 449 Z " />
<glyph glyph-name="uni0163" unicode="&#x163;" horiz-adv-x="384" d="M50 458 L-5 458 L-5 476 L50 476 L50 605 L236 651 L236 476 L366 476 L366 458 L236 458 L236 121 Q236 76 245 53 Q254 30 280 30 Q316 30 338 60.5 Q360 91 367 142 L384 140 Q381 111 372 84 Q363 57 344.5 36 Q326 15 296 2.5 Q266 -10 220 -10 L213 -10 L187 -55 Q192 -54 201.5 -53 Q211 -52 220 -52 Q276 -52 300.5 -76.5 Q325 -101 325 -141 Q325 -158 318 -176.5 Q311 -195 295.5 -210 Q280 -225 254 -235 Q228 -245 189 -245 Q142 -245 114 -226.5 Q86 -208 86 -179 Q86 -158 98 -146 Q110 -134 129 -134 Q148 -134 159 -146 Q170 -158 175 -172 L149 -192 Q149 -204 156 -216.5 Q163 -229 183 -229 Q202 -229 210.5 -212 Q219 -195 219 -152 Q219 -113 214.5 -91.5 Q210 -70 187 -70 Q173 -70 157 -74 L154 -65 L188 -9 Q157 -6 131.5 2.5 Q106 11 88 28.5 Q70 46 60 74 Q50 102 50 143 L50 458 Z " />
<glyph glyph-name="Tcaron" unicode="&#x164;" horiz-adv-x="683" d="M646 449 L627 449 Q607 510 589.5 553.5 Q572 597 552.5 625 Q533 653 509 666 Q485 679 451 679 L439 679 L439 21 L524 21 L524 0 L159 0 L159 21 L244 21 L244 679 L231 679 Q197 679 172.5 665 Q148 651 128 622.5 Q108 594 91 550.5 Q74 507 55 449 L36 449 L46 700 L636 700 L646 449 Z M391 761 Q380 755 365 750 Q350 745 336 745 Q308 745 292.5 755 Q277 765 266 785 L192 909 L201 919 L343 851 L489 919 L497 909 L391 761 Z " />
<glyph glyph-name="tcaron" unicode="&#x165;" horiz-adv-x="394" d="M60 458 L5 458 L5 476 L60 476 L60 605 L246 651 L246 476 L376 476 L376 458 L246 458 L246 121 Q246 76 255 53 Q264 30 290 30 Q326 30 348 60.5 Q370 91 377 142 L394 140 Q391 111 382 84 Q373 57 354.5 36 Q336 15 306 2.5 Q276 -10 230 -10 Q193 -10 161.5 -3.5 Q130 3 107.5 20 Q85 37 72.5 67 Q60 97 60 143 L60 458 Z M273 527 Q297 553 306 581 Q315 609 315 629 Q315 652 301 669.5 Q287 687 270 702 L292 724 Q321 753 347 753 Q379 753 394 731 Q409 709 409 683 Q409 643 377 599.5 Q345 556 285 514 L273 527 Z " />
<glyph glyph-name="Tbar" unicode="&#x166;" horiz-adv-x="683" d="M646 449 L627 449 Q607 510 589.5 553.5 Q572 597 552.5 625 Q533 653 509 666 Q485 679 451 679 L439 679 L439 367 L583 367 L583 341 L439 341 L439 21 L524 21 L524 0 L159 0 L159 21 L244 21 L244 341 L100 341 L100 367 L244 367 L244 679 L231 679 Q197 679 172.5 665 Q148 651 128 622.5 Q108 594 91 550.5 Q74 507 55 449 L36 449 L46 700 L636 700 L646 449 Z " />
<glyph glyph-name="tbar" unicode="&#x167;" horiz-adv-x="384" d="M-5 308 L50 308 L50 458 L-5 458 L-5 476 L50 476 L50 605 L236 651 L236 476 L366 476 L366 458 L236 458 L236 308 L366 308 L366 287 L236 287 L236 121 Q236 76 245 53 Q254 30 280 30 Q316 30 338 60.5 Q360 91 367 142 L384 140 Q381 111 372 84 Q363 57 344.5 36 Q326 15 296 2.5 Q266 -10 220 -10 Q183 -10 151.5 -3.5 Q120 3 97.5 20 Q75 37 62.5 67 Q50 97 50 143 L50 287 L-5 287 L-5 308 Z " />
<glyph glyph-name="Utilde" unicode="&#x168;" horiz-adv-x="683" d="M420 23 Q496 23 541 72.5 Q586 122 586 229 L586 681 L521 681 L521 700 L667 700 L667 681 L612 681 L612 236 Q612 178 601 132.5 Q590 87 561 55.5 Q532 24 482.5 7 Q433 -10 356 -10 Q295 -10 243.5 2 Q192 14 155 43.5 Q118 73 97 122.5 Q76 172 76 247 L76 681 L21 681 L21 700 L336 700 L336 681 L271 681 L271 213 Q271 172 277 137 Q283 102 299.5 76.5 Q316 51 345 37 Q374 23 420 23 Z M441 752 Q459 752 473.5 758.5 Q488 765 500 781 Q512 797 522.5 824 Q533 851 543 891 L530 895 Q520 866 503.5 859.5 Q487 853 472 853 Q458 853 440.5 859.5 Q423 866 404 873.5 Q385 881 365.5 887 Q346 893 327 893 Q303 893 287 884 Q271 875 259.5 857 Q248 839 239 813.5 Q230 788 220 755 L232 751 Q243 778 259.5 785 Q276 792 287 792 Q302 792 320.5 786 Q339 780 359 772.5 Q379 765 400 758.5 Q421 752 441 752 Z " />
<glyph glyph-name="utilde" unicode="&#x169;" horiz-adv-x="605" d="M367 0 L356 73 Q349 55 338.5 40 Q328 25 312 14 Q296 3 272.5 -3.5 Q249 -10 215 -10 Q145 -10 102.5 28 Q60 66 60 157 L60 458 L4 458 L4 476 L246 476 L246 133 Q246 101 248.5 82 Q251 63 255.5 52.5 Q260 42 267 38.5 Q274 35 283 35 Q313 35 333.5 65 Q354 95 354 152 L354 458 L308 458 L308 476 L540 476 L540 18 L595 18 L595 0 L367 0 Z M356 563 Q336 563 315 569.5 Q294 576 274 583.5 Q254 591 235.5 597 Q217 603 202 603 Q191 603 174.5 596 Q158 589 147 562 L135 566 Q145 599 155.5 626 Q166 653 179.5 672 Q193 691 210.5 701.5 Q228 712 252 712 Q271 712 290.5 706 Q310 700 329 692.5 Q348 685 365.5 678.5 Q383 672 397 672 Q412 672 428.5 678.5 Q445 685 455 714 L468 710 Q448 629 420.5 596 Q393 563 356 563 Z " />
<glyph glyph-name="Umacron" unicode="&#x16a;" horiz-adv-x="683" d="M420 23 Q496 23 541 72.5 Q586 122 586 229 L586 681 L521 681 L521 700 L667 700 L667 681 L612 681 L612 236 Q612 178 601 132.5 Q590 87 561 55.5 Q532 24 482.5 7 Q433 -10 356 -10 Q295 -10 243.5 2 Q192 14 155 43.5 Q118 73 97 122.5 Q76 172 76 247 L76 681 L21 681 L21 700 L336 700 L336 681 L271 681 L271 213 Q271 172 277 137 Q283 102 299.5 76.5 Q316 51 345 37 Q374 23 420 23 Z M234 770 L506 770 L506 867 L234 867 L234 770 Z " />
<glyph glyph-name="umacron" unicode="&#x16b;" horiz-adv-x="605" d="M367 0 L356 73 Q349 55 338.5 40 Q328 25 312 14 Q296 3 272.5 -3.5 Q249 -10 215 -10 Q145 -10 102.5 28 Q60 66 60 157 L60 458 L4 458 L4 476 L246 476 L246 133 Q246 101 248.5 82 Q251 63 255.5 52.5 Q260 42 267 38.5 Q274 35 283 35 Q313 35 333.5 65 Q354 95 354 152 L354 458 L308 458 L308 476 L540 476 L540 18 L595 18 L595 0 L367 0 Z M156 662 L428 662 L428 567 L156 567 L156 662 Z " />
<glyph glyph-name="Ubreve" unicode="&#x16c;" horiz-adv-x="683" d="M420 23 Q496 23 541 72.5 Q586 122 586 229 L586 681 L521 681 L521 700 L667 700 L667 681 L612 681 L612 236 Q612 178 601 132.5 Q590 87 561 55.5 Q532 24 482.5 7 Q433 -10 356 -10 Q295 -10 243.5 2 Q192 14 155 43.5 Q118 73 97 122.5 Q76 172 76 247 L76 681 L21 681 L21 700 L336 700 L336 681 L271 681 L271 213 Q271 172 277 137 Q283 102 299.5 76.5 Q316 51 345 37 Q374 23 420 23 Z M269 921 Q283 879 313 866 Q343 853 397 853 Q423 853 443.5 855 Q464 857 479.5 864.5 Q495 872 505.5 885.5 Q516 899 522 921 L537 918 Q533 882 524 850.5 Q515 819 498.5 795.5 Q482 772 456.5 759 Q431 746 395 746 Q356 746 331 759 Q306 772 290 795.5 Q274 819 266 850.5 Q258 882 253 918 L269 921 Z " />
<glyph glyph-name="ubreve" unicode="&#x16d;" horiz-adv-x="605" d="M367 0 L356 73 Q349 55 338.5 40 Q328 25 312 14 Q296 3 272.5 -3.5 Q249 -10 215 -10 Q145 -10 102.5 28 Q60 66 60 157 L60 458 L4 458 L4 476 L246 476 L246 133 Q246 101 248.5 82 Q251 63 255.5 52.5 Q260 42 267 38.5 Q274 35 283 35 Q313 35 333.5 65 Q354 95 354 152 L354 458 L308 458 L308 476 L540 476 L540 18 L595 18 L595 0 L367 0 Z M166 724 Q180 682 210 669 Q240 656 294 656 Q320 656 340.5 658 Q361 660 376.5 667.5 Q392 675 402.5 688.5 Q413 702 419 724 L434 721 Q430 684 421 651 Q412 618 395.5 593.5 Q379 569 353.5 555 Q328 541 292 541 Q253 541 228 555 Q203 569 187.5 593.5 Q172 618 163.5 651 Q155 684 150 721 L166 724 Z " />
<glyph glyph-name="Uring" unicode="&#x16e;" horiz-adv-x="683" d="M420 23 Q496 23 541 72.5 Q586 122 586 229 L586 681 L521 681 L521 700 L667 700 L667 681 L612 681 L612 236 Q612 178 601 132.5 Q590 87 561 55.5 Q532 24 482.5 7 Q433 -10 356 -10 Q295 -10 243.5 2 Q192 14 155 43.5 Q118 73 97 122.5 Q76 172 76 247 L76 681 L21 681 L21 700 L336 700 L336 681 L271 681 L271 213 Q271 172 277 137 Q283 102 299.5 76.5 Q316 51 345 37 Q374 23 420 23 Z M331 836 Q331 863 346.5 885 Q362 907 401 907 Q440 907 457 885.5 Q474 864 474 836 Q474 807 457.5 785 Q441 763 403 763 Q361 763 346 785.5 Q331 808 331 836 Z M301 836 Q301 793 324.5 766 Q348 739 402 739 Q451 739 477 766.5 Q503 794 503 838 Q503 879 478.5 905 Q454 931 404 931 Q351 931 326 903 Q301 875 301 836 Z " />
<glyph glyph-name="uring" unicode="&#x16f;" horiz-adv-x="605" d="M367 0 L356 73 Q349 55 338.5 40 Q328 25 312 14 Q296 3 272.5 -3.5 Q249 -10 215 -10 Q145 -10 102.5 28 Q60 66 60 157 L60 458 L4 458 L4 476 L246 476 L246 133 Q246 101 248.5 82 Q251 63 255.5 52.5 Q260 42 267 38.5 Q274 35 283 35 Q313 35 333.5 65 Q354 95 354 152 L354 458 L308 458 L308 476 L540 476 L540 18 L595 18 L595 0 L367 0 Z M221 632 Q221 604 236 581.5 Q251 559 293 559 Q331 559 347.5 581 Q364 603 364 632 Q364 660 347 681.5 Q330 703 291 703 Q252 703 236.5 681 Q221 659 221 632 Z M191 632 Q191 671 216 699 Q241 727 294 727 Q344 727 368.5 701 Q393 675 393 634 Q393 590 367 562.5 Q341 535 292 535 Q238 535 214.5 562 Q191 589 191 632 Z " />
<glyph glyph-name="Uhungarumlaut" unicode="&#x170;" horiz-adv-x="683" d="M420 23 Q496 23 541 72.5 Q586 122 586 229 L586 681 L521 681 L521 700 L667 700 L667 681 L612 681 L612 236 Q612 178 601 132.5 Q590 87 561 55.5 Q532 24 482.5 7 Q433 -10 356 -10 Q295 -10 243.5 2 Q192 14 155 43.5 Q118 73 97 122.5 Q76 172 76 247 L76 681 L21 681 L21 700 L336 700 L336 681 L271 681 L271 213 Q271 172 277 137 Q283 102 299.5 76.5 Q316 51 345 37 Q374 23 420 23 Z M400 742 L410 734 L551 825 Q565 834 575.5 848 Q586 862 586 880 Q586 897 575 911 Q564 925 533 921 L488 916 L400 742 Z M259 742 L270 734 L405 835 Q419 845 426.5 860 Q434 875 434 891 Q434 909 421.5 921.5 Q409 934 379 929 L335 922 L259 742 Z " />
<glyph glyph-name="uhungarumlaut" unicode="&#x171;" horiz-adv-x="605" d="M367 0 L356 73 Q349 55 338.5 40 Q328 25 312 14 Q296 3 272.5 -3.5 Q249 -10 215 -10 Q145 -10 102.5 28 Q60 66 60 157 L60 458 L4 458 L4 476 L246 476 L246 133 Q246 101 248.5 82 Q251 63 255.5 52.5 Q260 42 267 38.5 Q274 35 283 35 Q313 35 333.5 65 Q354 95 354 152 L354 458 L308 458 L308 476 L540 476 L540 18 L595 18 L595 0 L367 0 Z M397 738 L444 748 Q478 756 493 740 Q508 724 508 704 Q508 690 501.5 677.5 Q495 665 479 651 L345 540 L334 547 L397 738 Z M239 740 L285 753 Q318 762 334 747 Q350 732 351 712 Q352 698 346 685.5 Q340 673 325 658 L197 540 L186 546 L239 740 Z " />
<glyph glyph-name="Uogonek" unicode="&#x172;" horiz-adv-x="683" d="M420 23 Q496 23 541 72.5 Q586 122 586 229 L586 681 L521 681 L521 700 L667 700 L667 681 L612 681 L612 236 Q612 153 588 100 Q564 47 502 12 Q460 -11 443.5 -53.5 Q427 -96 427 -147 Q427 -185 434.5 -197.5 Q442 -210 459 -210 Q485 -210 514 -167 L527 -175 Q518 -189 508 -203 Q498 -217 484 -227.5 Q470 -238 451.5 -244.5 Q433 -251 407 -251 Q365 -251 336 -231 Q307 -211 307 -168 Q307 -148 310.5 -131.5 Q314 -115 325 -99 Q336 -83 356.5 -66 Q377 -49 411 -27 L452 -1 Q431 -5 407.5 -7.5 Q384 -10 356 -10 Q295 -10 243.5 2 Q192 14 155 43.5 Q118 73 97 122.5 Q76 172 76 247 L76 681 L21 681 L21 700 L336 700 L336 681 L271 681 L271 213 Q271 172 277 137 Q283 102 299.5 76.5 Q316 51 345 37 Q374 23 420 23 Z " />
<glyph glyph-name="uogonek" unicode="&#x173;" horiz-adv-x="605" d="M516 0 Q482 -28 468 -63 Q454 -98 454 -147 Q454 -185 461.5 -197.5 Q469 -210 486 -210 Q512 -210 541 -167 L554 -175 Q545 -189 535 -203 Q525 -217 511 -227.5 Q497 -238 478.5 -244.5 Q460 -251 434 -251 Q392 -251 363 -231 Q334 -211 334 -168 Q334 -148 338.5 -131 Q343 -114 355 -97.5 Q367 -81 388.5 -64 Q410 -47 444 -26 L486 0 L367 0 L356 73 Q349 55 338.5 40 Q328 25 312 14 Q296 3 272.5 -3.5 Q249 -10 215 -10 Q145 -10 102.5 28 Q60 66 60 157 L60 458 L4 458 L4 476 L246 476 L246 133 Q246 101 248.5 82 Q251 63 255.5 52.5 Q260 42 267 38.5 Q274 35 283 35 Q313 35 333.5 65 Q354 95 354 152 L354 458 L308 458 L308 476 L540 476 L540 18 L595 18 L595 0 L516 0 Z " />
<glyph glyph-name="Wcircumflex" unicode="&#x174;" horiz-adv-x="1015" d="M507 490 L447 681 L390 681 L390 700 L700 700 L700 681 L641 681 L790 208 L910 681 L809 681 L809 700 L1009 700 L1009 681 L943 681 L759 -10 L670 -10 L522 442 L392 -10 L305 -10 L53 681 L6 681 L6 700 L331 700 L331 681 L261 681 L424 202 L507 490 Z M498 891 Q509 897 524 902 Q539 907 553 907 Q581 907 596.5 897 Q612 887 623 867 L697 743 L688 733 L546 801 L400 733 L392 743 L498 891 Z " />
<glyph glyph-name="wcircumflex" unicode="&#x175;" horiz-adv-x="834" d="M352 476 L610 476 L610 458 L569 458 L659 121 L748 458 L679 458 L679 476 L814 476 L814 458 L772 458 L652 0 L515 0 L428 307 L334 0 L200 0 L52 458 L7 458 L7 476 L310 476 L310 458 L250 458 L342 118 L414 352 L389 458 L352 458 L352 476 Z M337 532 L349 523 L474 628 L599 524 L610 531 L549 690 Q540 713 524.5 725.5 Q509 738 485 738 Q468 738 452.5 733 Q437 728 426 722 L337 532 Z " />
<glyph glyph-name="Ycircumflex" unicode="&#x176;" horiz-adv-x="641" d="M539 684 L438 684 L438 700 L635 700 L635 684 L569 684 L418 350 L418 19 L479 19 L479 0 L162 0 L162 19 L223 19 L223 331 L53 684 L6 684 L6 700 L326 700 L326 684 L261 684 L397 371 L539 684 Z M296 891 Q307 897 322 902 Q337 907 351 907 Q379 907 394.5 897 Q410 887 421 867 L495 743 L486 733 L344 801 L198 733 L190 743 L296 891 Z " />
<glyph glyph-name="ycircumflex" unicode="&#x177;" horiz-adv-x="532" d="M5 476 L295 476 L295 458 L241 458 L350 126 L466 458 L399 458 L399 476 L540 476 L540 458 L490 458 L303 -81 Q286 -129 267.5 -161.5 Q249 -194 227.5 -213.5 Q206 -233 181.5 -241.5 Q157 -250 127 -250 Q70 -250 36 -223.5 Q2 -197 2 -149 Q2 -111 24 -89.5 Q46 -68 82 -68 Q120 -68 142.5 -85 Q165 -102 165 -137 Q165 -152 159 -173 L124 -173 Q116 -196 121.5 -211 Q127 -226 149 -226 Q191 -226 222.5 -184.5 Q254 -143 283 -62 L305 0 L217 0 L46 458 L5 458 L5 476 Z M162 532 L174 523 L299 628 L424 524 L435 531 L374 690 Q365 713 349.5 725.5 Q334 738 310 738 Q293 738 277.5 733 Q262 728 251 722 L162 532 Z " />
<glyph glyph-name="Ydieresis" unicode="&#x178;" horiz-adv-x="641" d="M539 684 L438 684 L438 700 L635 700 L635 684 L569 684 L418 350 L418 19 L479 19 L479 0 L162 0 L162 19 L223 19 L223 331 L53 684 L6 684 L6 700 L326 700 L326 684 L261 684 L397 371 L539 684 Z M354 821 Q354 850 373 872 Q392 894 428 894 Q460 894 481.5 876.5 Q503 859 503 821 Q503 788 484 767 Q465 746 429 746 Q408 746 393.5 752.5 Q379 759 370.5 770 Q362 781 358 794.5 Q354 808 354 821 Z M161 821 Q161 850 180 872 Q199 894 235 894 Q267 894 288.5 876.5 Q310 859 310 821 Q310 788 291 767 Q272 746 236 746 Q215 746 200.5 752.5 Q186 759 177.5 770 Q169 781 165 794.5 Q161 808 161 821 Z " />
<glyph glyph-name="Zacute" unicode="&#x179;" horiz-adv-x="612" d="M559 678 L263 23 L297 23 Q385 23 454 79 Q523 135 554 244 L572 244 L560 0 L48 0 L48 19 L347 678 L306 678 Q261 678 228.5 669 Q196 660 169.5 637.5 Q143 615 119.5 576.5 Q96 538 67 479 L49 479 L64 700 L559 700 L559 678 Z M333 905 L381 901 Q408 899 418.5 885 Q429 871 429 856 Q429 837 417 821.5 Q405 806 385 798 L226 733 L218 743 L333 905 Z " />
<glyph glyph-name="zacute" unicode="&#x17a;" horiz-adv-x="500" d="M475 458 L238 18 L251 18 Q337 18 384 63 Q431 108 458 205 L472 205 L456 0 L36 0 L36 15 L277 458 L266 458 Q215 458 181.5 451 Q148 444 125 424.5 Q102 405 86 371 Q70 337 55 284 L42 284 L55 476 L475 476 L475 458 Z M254 738 L301 748 Q335 756 350 740 Q365 724 365 704 Q365 690 358.5 677.5 Q352 665 336 651 L202 540 L191 547 L254 738 Z " />
<glyph glyph-name="Zdotaccent" unicode="&#x17b;" horiz-adv-x="612" d="M559 678 L263 23 L297 23 Q385 23 454 79 Q523 135 554 244 L572 244 L560 0 L48 0 L48 19 L347 678 L306 678 Q261 678 228.5 669 Q196 660 169.5 637.5 Q143 615 119.5 576.5 Q96 538 67 479 L49 479 L64 700 L559 700 L559 678 Z M210 846 Q210 883 233 911 Q256 939 312 939 Q359 939 385 916 Q411 893 411 847 Q411 807 387.5 780 Q364 753 310 753 Q280 753 260.5 761.5 Q241 770 229.5 783.5 Q218 797 214 813.5 Q210 830 210 846 Z " />
<glyph glyph-name="zdotaccent" unicode="&#x17c;" horiz-adv-x="500" d="M475 458 L238 18 L251 18 Q337 18 384 63 Q431 108 458 205 L472 205 L456 0 L36 0 L36 15 L277 458 L266 458 Q215 458 181.5 451 Q148 444 125 424.5 Q102 405 86 371 Q70 337 55 284 L42 284 L55 476 L475 476 L475 458 Z M160 638 Q160 675 183 703 Q206 731 262 731 Q309 731 335 708 Q361 685 361 639 Q361 599 337.5 572 Q314 545 260 545 Q230 545 210.5 553.5 Q191 562 179.5 575.5 Q168 589 164 605.5 Q160 622 160 638 Z " />
<glyph glyph-name="Zcaron" unicode="&#x17d;" horiz-adv-x="612" d="M559 678 L263 23 L297 23 Q385 23 454 79 Q523 135 554 244 L572 244 L560 0 L48 0 L48 19 L347 678 L306 678 Q261 678 228.5 669 Q196 660 169.5 637.5 Q143 615 119.5 576.5 Q96 538 67 479 L49 479 L64 700 L559 700 L559 678 Z M360 761 Q349 755 334 750 Q319 745 305 745 Q277 745 261.5 755 Q246 765 235 785 L161 909 L170 919 L312 851 L458 919 L466 909 L360 761 Z " />
<glyph glyph-name="zcaron" unicode="&#x17e;" horiz-adv-x="500" d="M475 458 L238 18 L251 18 Q337 18 384 63 Q431 108 458 205 L472 205 L456 0 L36 0 L36 15 L277 458 L266 458 Q215 458 181.5 451 Q148 444 125 424.5 Q102 405 86 371 Q70 337 55 284 L42 284 L55 476 L475 476 L475 458 Z M312 544 Q301 537 286 532.5 Q271 528 258 528 Q230 528 214 541 Q198 554 189 576 L125 735 L136 742 L262 636 L386 743 L398 734 L312 544 Z " />
<glyph glyph-name="longs" unicode="&#x17f;" horiz-adv-x="383" d="M313 756 Q273 756 262 724.5 Q251 693 251 636 L251 18 L373 18 L373 0 L10 0 L10 18 L65 18 L65 458 L7 458 L7 476 L65 476 L65 480 Q65 548 77 602.5 Q89 657 117 695 Q145 733 191 753 Q237 773 304 773 Q351 773 381.5 762.5 Q412 752 430 735.5 Q448 719 455.5 699 Q463 679 463 661 Q463 616 439 595 Q415 574 380 574 Q339 574 319.5 594 Q300 614 300 645 Q300 656 302 667.5 Q304 679 306 688 L344 688 Q358 725 345.5 740.5 Q333 756 313 756 Z " />
<glyph glyph-name="florin" unicode="&#x192;" horiz-adv-x="549" d="M411 694 Q374 694 358.5 662.5 Q343 631 332 574 L302 406 L444 406 L441 388 L299 388 L246 83 Q234 16 211 -38 Q188 -92 152.5 -130.5 Q117 -169 70 -190 Q23 -211 -36 -211 Q-77 -211 -104.5 -202 Q-132 -193 -149 -178 Q-166 -163 -173.5 -145 Q-181 -127 -181 -109 Q-181 -67 -157.5 -39.5 Q-134 -12 -89 -12 Q-51 -12 -33 -31 Q-15 -50 -15 -76 Q-15 -100 -29 -126 L-67 -126 Q-81 -146 -81 -162 Q-81 -179 -67.5 -186.5 Q-54 -194 -37 -194 Q0 -194 15.5 -162.5 Q31 -131 42 -74 L123 388 L65 388 L68 406 L126 406 Q138 475 161 531.5 Q184 588 219 627.5 Q254 667 301.5 689 Q349 711 410 711 Q451 711 478.5 702 Q506 693 523 678 Q540 663 547.5 645 Q555 627 555 609 Q555 567 531.5 539.5 Q508 512 463 512 Q425 512 407 531 Q389 550 389 576 Q389 600 403 626 L441 626 Q455 646 455 662 Q455 679 441.5 686.5 Q428 694 411 694 Z " />
</font>
</svg>
