<svg width="123" height="97" viewBox="0 0 123 97" fill="none" xmlns="http://www.w3.org/2000/svg">
<path d="M118.25 0.750122H5.14993C2.74383 0.750122 0.799927 2.68983 0.799927 5.09072V91.9027C0.799927 94.3036 2.74383 96.2433 5.14993 96.2433H118.25C120.656 96.2433 122.6 94.3036 122.6 91.9027V5.09072C122.6 2.68983 120.656 0.750122 118.25 0.750122ZM107.266 15.5217L64.3779 48.8223C63.3176 49.6497 61.8359 49.6497 60.7756 48.8223L17.8737 15.5217C17.712 15.3972 17.5933 15.2253 17.5344 15.0301C17.4756 14.8349 17.4794 14.6262 17.5453 14.4333C17.6112 14.2403 17.736 14.0728 17.9022 13.9542C18.0683 13.8356 18.2675 13.7719 18.4718 13.7719H106.668C106.872 13.7719 107.072 13.8356 107.238 13.9542C107.404 14.0728 107.529 14.2403 107.595 14.4333C107.66 14.6262 107.664 14.8349 107.605 15.0301C107.547 15.2253 107.428 15.3972 107.266 15.5217Z" fill="#282828"/>
</svg>
