<svg width="391" height="194" viewBox="0 0 391 194" fill="none" xmlns="http://www.w3.org/2000/svg">
<path d="M55.3013 169.977L55.2327 142.988L101.037 94.1019L136.786 94.011L93.5781 140.05L191.354 139.801L191.43 169.631L55.3013 169.977ZM54.8866 6.85973L54.9546 33.6119L101.008 82.5014L136.756 82.4105L93.3151 36.5921L191.091 36.3435L191.015 6.51364L54.8866 6.85973Z" fill="#282828"/>
<path d="M385.955 139.362L259.519 171.047L249.894 143.637L352.631 119.091L319.343 92.424L359.57 91.16L385.108 112.386L385.955 139.362ZM382.543 30.7488L383.39 57.7245L359.236 80.5117L319.009 81.7757L350.587 54.018L246.481 35.0241L254.396 8.00988L382.543 30.7488Z" fill="#F5F5F5"/>
</svg>
