<svg version="1.2" xmlns="http://www.w3.org/2000/svg" viewBox="0 0 123 60" width="100" height="49">
	<title>logo-svg</title>
	<style>
		.s0 { fill: #282828 } 
		.s1 { fill: #f5f5f5 } 
	</style>
	<path id="Layer" fill-rule="evenodd" class="s0" d="m17.5 51.9v-8.3l14-14.9 10.9-0.1-13.2 14.1h29.9v9.1zm41.5-50l0.1 9.1-29.9 0.1 13.2 14h-10.9l-14.1-14.9v-8.2z"/>
	<path id="Layer" fill-rule="evenodd" class="s0" d="m67 52.9v-1.4h0.5l-0.5-1.8h1.1v1.8h3.9v1.4zm0.8-8.3h4.2v1.4h-3.9v1.8h3.9v1.5h-5l0.6-1.5-0.6-1.5v-0.5zm2-1.9l-0.8-1.3v-1.8h0.9v1.7h0.9v-1.7h1.2v1.8l-0.8 1.3zm-1.2 0h-0.8l-0.8-1.3v-1.8h1.1v1.7h0.5zm3.4-6.8v3.1h-1.2v-1.7h-0.9v1.7h-0.9v-1.7h-0.9v1.7h-1.1v-1.8l0.8-1.3zm-4.9-2.2v-1.4h0.5l-0.5-1.7h1v1.7h3.9v1.4zm1.6-5v1.4h-1.6l0.6-1.4zm-1.5-2.5h5v1.4h-5zm-0.5 0.1v1.4h-1v-1.4zm0.8-1.3l-0.4-1.3 3.3-0.9-1.3-1.4h1.8l1.2 1.2v1.1zm4.6-6.4v1.1l-1.2 1.2h-1.8l1.3-1.3-3.3-0.8 0.4-1.4zm-2.9-9.1l0.8 1.3v1.8h-0.9v-1.7h-0.9v1.7h-1.1v-1.8l0.8-1.3zm1.3 0h0.8l0.8 1.3v1.8h-1.2v-1.6h-0.4zm-2.6 6.8l-0.8-1.3v-1.8h1.1v1.7h0.9v-1.7h0.9v1.7h0.9v-1.7h1.2v1.8l-0.8 1.3zm-2.3-7.9v-1.4h1.6v-1.7h1v1.7h2.7v-1.7h1.2v3.1zm5.8-6.8l0.7 1.3v1.8h-1.1v-1.7h-2.8v1.8h-1v-1.9l0.8-1.3z"/>
	<path id="Layer" class="s1" d="m120.2 42.6l-38.7 9.7-3-8.4 31.5-7.5-10.2-8.1 12.3-0.4 7.8 6.5zm-1.1-33.2l0.3 8.2-7.4 7-12.3 0.4 9.7-8.5-31.9-5.8 2.5-8.3z"/>
</svg>