<svg width="123" height="60" viewBox="0 0 123 60" fill="none" xmlns="http://www.w3.org/2000/svg">
<path d="M17.4923 51.8817L17.4713 43.6262L31.4821 28.6728L42.4169 28.645L29.2005 42.7274L59.1083 42.6514L59.1315 51.7758L17.4923 51.8817ZM17.3654 1.98697L17.3862 10.17L31.4731 25.1244L42.4079 25.0966L29.12 11.0816L59.0279 11.0055L59.0047 1.88111L17.3654 1.98697Z" fill="#282828"/>
<path d="M67.0214 52.8685L67.0214 51.4541L67.5079 51.4541L67.0214 49.7116L68.085 49.7116L68.085 51.4541L71.9887 51.4541L71.9887 52.8685L67.0214 52.8685ZM67.0214 45.8418L67.0214 46.3284L67.6437 47.7767L67.0214 49.259L68.085 49.259L71.9887 49.259L71.9887 47.7767L68.085 47.7767L68.085 45.9663L71.9887 45.9663L71.9887 44.5519L67.8021 44.5519L67.0214 45.8418ZM69.7936 42.6306L69.0128 41.3407L69.0128 39.485L69.8841 39.485L69.8841 41.1936L70.8119 41.1936L70.8119 39.485L72.0113 39.485L72.0113 41.3407L71.2306 42.6306L69.7936 42.6306ZM68.5942 42.6306L67.8134 42.6306L67.0214 41.3407L67.0214 39.485L68.085 39.485L68.085 41.1936L68.5942 41.1936L68.5942 42.6306ZM67.8134 35.8415L67.0214 37.1315L67.0214 38.9871L68.085 38.9871L68.085 37.2786L69.0128 37.2786L69.0128 38.9871L69.8841 38.9871L69.8841 37.2786L70.8119 37.2786L70.8119 38.9419L72.0113 38.9419L72.0113 35.8415L67.8134 35.8415ZM67.0553 33.697L67.0553 32.2826L67.5419 32.2826L67.0553 30.5854L68.1076 30.5854L68.1076 32.2826L72 32.2826L72 33.697L67.0553 33.697ZM67.6776 28.6052L67.0553 30.0762L68.5942 30.0762L68.5942 28.6052L67.6776 28.6052ZM67.0214 26.166L72.0113 26.166L72.0113 27.5917L67.0214 27.5917L67.0214 26.166ZM66.5575 26.1887L66.5575 27.5917L65.5052 27.5917L65.5052 26.1887L66.5575 26.1887ZM67.4061 24.9199L67.0101 23.6186L70.3027 22.7021L69.0015 21.3669L70.8006 21.3669L72 22.5663L72 23.6186L67.4061 24.9199ZM72 18.4816L72 19.6471L70.8006 20.8578L69.0015 20.8578L70.3027 19.5565L67.0101 18.7532L67.4061 17.2935L72 18.4816ZM69.092 9.40923L69.8728 10.7444L69.8728 12.5548L69.0015 12.5548L69.0015 10.8462L68.0737 10.8462L68.0737 12.5548L67.0101 12.5548L67.0101 10.7444L67.8021 9.40923L69.092 9.40923ZM70.4272 9.40923L71.2193 9.40923L72 10.7444L72 12.5548L70.8006 12.5548L70.8006 10.8915L70.4272 10.8915L70.4272 9.40923ZM71.2193 16.2435L72 14.9083L72 13.1092L70.8006 13.1092L70.8006 14.8178L69.8728 14.8178L69.8728 13.1092L69.0015 13.1092L69.0015 14.8178L68.0737 14.8178L68.0737 13.1092L67.0101 13.1092L67.0101 14.9083L67.8021 16.2435L71.2193 16.2435ZM65.4825 8.30442L65.4825 6.87872L67.044 6.87872L67.044 5.18146L68.0963 5.18146L68.0963 6.87872L70.8119 6.87872L70.8119 5.22672L72 5.22672L72 8.30442L65.4825 8.30442ZM67.8247 1.56065L67.044 2.85056L67.044 4.6836L68.0963 4.6836L68.0963 2.94108L70.8119 2.94108L70.8119 4.63834L72 4.63834L72 2.85056L71.2193 1.56065L67.8247 1.56065Z" fill="#282828"/>
<path d="M120.152 42.6386L81.4771 52.3307L78.5329 43.9463L109.959 36.4382L99.7763 28.2813L112.081 27.8946L119.892 34.3872L120.152 42.6386ZM119.108 9.41593L119.367 17.6673L111.979 24.6375L99.674 25.0241L109.333 16.5336L77.489 10.7236L79.9101 2.46048L119.108 9.41593Z" fill="#F5F5F5"/>
</svg>
