<svg width="101" height="102" viewBox="0 0 101 102" fill="none" xmlns="http://www.w3.org/2000/svg">
<path d="M75.7669 58.5417C74.6822 57.5549 73.2569 57.0286 71.7918 57.0739C70.3268 57.1193 68.9366 57.7327 67.9149 58.7847L54.4124 72.6902C51.161 72.0687 44.6242 70.0289 37.8955 63.3106C31.1669 56.5697 29.1291 50.0096 28.5251 46.7776L42.4058 33.2506C43.4581 32.2286 44.0718 30.8369 44.1171 29.37C44.1624 27.9031 43.6357 26.4761 42.6485 25.391L21.7908 2.43349C20.8031 1.34499 19.4305 0.684725 17.9644 0.592938C16.4983 0.50115 15.0542 0.985066 13.9388 1.94191L1.68941 12.4573C0.711841 13.4371 0.127363 14.7419 0.0467505 16.1243C-0.0379224 17.5369 -1.65235 50.9985 24.2689 76.9563C46.8822 99.586 75.2137 101.242 83.0093 101.242C84.1552 101.242 84.8495 101.208 85.0358 101.196C86.4163 101.12 87.7195 100.534 88.6936 99.5521L99.1987 87.2852C100.154 86.1688 100.638 84.724 100.547 83.2569C100.456 81.7898 99.7986 80.4156 98.7133 79.4255L75.7669 58.5417Z" fill="#282828"/>
</svg>
