<svg width="113" height="113" viewBox="0 0 113 113" fill="none" xmlns="http://www.w3.org/2000/svg">
<path d="M112.2 25.7585C112.137 23.3488 111.951 20.9439 111.642 18.5533C111.225 16.4594 110.531 14.4307 109.577 12.521C108.58 10.4494 107.241 8.56107 105.616 6.93556C103.976 5.32809 102.092 3.98974 100.036 2.96989C98.1252 2.03401 96.0985 1.35778 94.0092 0.959125C91.6436 0.604446 89.2581 0.399241 86.8668 0.344727H25.989C23.5816 0.407487 21.179 0.593913 18.7908 0.903271C16.699 1.32033 14.6722 2.01535 12.7644 2.96989C10.6948 3.96821 8.8083 5.30892 7.18438 6.93556C5.57848 8.57718 4.24143 10.4622 3.22258 12.521C2.28761 14.4333 1.61204 16.462 1.21377 18.5533C0.859442 20.9212 0.654437 23.309 0.599976 25.7027V86.6399C0.662675 89.0496 0.848919 91.4546 1.15798 93.8452C1.57463 95.939 2.26897 97.9677 3.22258 99.8774C4.21993 101.949 5.55933 103.837 7.18438 105.463C8.8244 107.07 10.7076 108.409 12.7644 109.429C14.6748 110.364 16.7015 111.041 18.7908 111.439C21.1563 111.794 23.5419 111.999 25.9332 112.054H86.811C89.2183 111.991 91.6209 111.805 94.0092 111.495C96.101 111.078 98.1277 110.383 100.036 109.429C102.105 108.43 103.992 107.09 105.616 105.463C107.221 103.821 108.559 101.936 109.577 99.8774C110.512 97.9652 111.188 95.9365 111.586 93.8452C111.941 91.4773 112.146 89.0894 112.2 86.6958V25.7585ZM57.6834 95.2974C50.9821 95.2643 44.3981 93.535 38.544 90.2705L17.34 95.8559L22.92 75.078C19.3215 69.0259 17.3957 62.1248 17.34 55.0821C17.3622 47.1671 19.7238 39.4357 24.1273 32.8616C28.5308 26.2875 34.7793 21.1647 42.0858 18.1384C49.3923 15.1121 57.43 14.3177 65.1867 15.8552C72.9434 17.3927 80.0721 21.1933 85.6751 26.7784C91.278 32.3636 95.1045 39.4834 96.6728 47.2412C98.241 54.999 97.4808 63.0479 94.4879 70.374C91.495 77.7002 86.4032 83.976 79.8538 88.4111C73.3045 92.8462 65.5905 95.2422 57.6834 95.2974ZM57.6834 21.9604C51.7675 22.0282 45.9752 23.6639 40.8963 26.701C35.8173 29.7381 31.633 34.0682 28.7695 39.2503C25.9059 44.4324 24.4654 50.2816 24.5944 56.2022C24.7235 62.1228 26.4177 67.9034 29.5044 72.9556L30.2856 74.2402L26.9376 86.4724L39.66 83.0094L40.8876 83.7355C45.963 86.7279 51.7373 88.3271 57.6276 88.3714C66.507 88.3714 75.0228 84.8406 81.3015 78.5558C87.5802 72.2709 91.1076 63.7468 91.1076 54.8587C91.1076 45.9706 87.5802 37.4465 81.3015 31.1617C75.0228 24.8768 66.507 21.346 57.6276 21.346L57.6834 21.9604ZM77.2134 69.5484C76.4825 70.7687 75.5039 71.8218 74.3409 72.6396C73.1778 73.4574 71.8562 74.0217 70.4616 74.2961C68.3777 74.6773 66.2322 74.5431 64.212 73.9051C62.3111 73.3102 60.4478 72.6015 58.632 71.7826C51.7337 68.3178 45.8506 63.1218 41.5572 56.7019C39.2241 53.7275 37.8085 50.1365 37.4838 46.3688C37.4505 44.8037 37.7463 43.2491 38.3519 41.8058C38.9575 40.3624 39.8594 39.0626 40.9992 37.9907C41.3349 37.6097 41.7467 37.3034 42.2081 37.0918C42.6695 36.8801 43.1701 36.7677 43.6776 36.7619H45.24C45.8538 36.7619 46.6908 36.7619 47.472 38.4933C48.2532 40.2248 50.3178 45.4193 50.5968 45.922C50.7339 46.1899 50.8054 46.4867 50.8054 46.7877C50.8054 47.0888 50.7339 47.3855 50.5968 47.6535C50.3501 48.2604 50.0113 48.8256 49.5924 49.3291C49.0902 49.9435 48.5322 50.6696 48.0858 51.1165C47.6394 51.5633 47.0814 52.1218 47.6394 53.1272C49.1576 55.692 51.0369 58.0246 53.2194 60.0532C55.596 62.1553 58.3134 63.8364 61.2546 65.0242C62.259 65.5269 62.8728 65.4711 63.4308 65.0242C63.9888 64.5774 65.9418 62.1198 66.6114 61.1144C67.281 60.109 67.9506 60.2766 68.8434 60.6117C69.7362 60.9469 74.7024 63.3486 75.7068 63.8513C76.7112 64.354 77.325 64.5774 77.604 65.0242C77.846 66.4861 77.7115 67.9855 77.2134 69.3809V69.5484Z" fill="#282828"/>
</svg>
